<svg width="21" height="21" viewBox="0 0 21 21" fill="none" xmlns="http://www.w3.org/2000/svg">
<g clip-path="url(#clip0_580_14127)">
<path d="M14.4502 1.10938C12.9675 1.10938 11.5731 1.68693 10.5245 2.73536C9.47611 3.78397 8.89844 5.17821 8.89844 6.66109C8.89844 6.97078 8.92947 7.27525 8.97871 7.57486C9.12679 7.51174 9.27943 7.46109 9.43507 7.4194C9.58712 7.37865 9.74194 7.34791 9.90003 7.32771C9.86835 7.10849 9.84692 6.88693 9.84692 6.66109C9.84692 5.43156 10.326 4.27551 11.1951 3.40602C12.0647 2.53652 13.2207 2.05792 14.4502 2.05792C15.6797 2.05792 16.8354 2.53652 17.705 3.40596C18.5745 4.27545 19.0533 5.4315 19.0533 6.66104C19.0533 7.89068 18.5744 9.04644 17.705 9.91594C16.8354 10.7856 15.6797 11.2642 14.4502 11.2642C14.2248 11.2642 14.0028 11.2425 13.7839 11.211C13.7638 11.3685 13.7332 11.5242 13.6919 11.6761C13.6505 11.832 13.5993 11.9842 13.5363 12.1324C13.8364 12.1818 14.1402 12.2127 14.4502 12.2127C15.9329 12.2127 17.3273 11.635 18.3759 10.5864C19.4245 9.53798 20.0019 8.14375 20.0019 6.66074C20.0019 5.17786 19.4246 3.78362 18.3759 2.73507C17.3273 1.68658 15.933 1.10938 14.4502 1.10938Z" fill="#3E6897" stroke="#3E6897" stroke-width="0.3"/>
<path d="M5.09219 19.9983C5.09249 19.9983 5.09249 19.9983 5.09219 19.9983C6.15637 19.9983 7.15709 19.5839 7.9096 18.8314C8.23116 18.51 8.49453 18.1339 8.69249 17.7133C9.40841 16.5949 9.92788 15.3148 10.2127 14.528L13.4015 17.7164C13.6455 17.9606 13.9697 18.095 14.3152 18.095C14.6604 18.095 14.9849 17.9606 15.2288 17.7164L15.482 17.4639C15.7259 17.2196 15.8602 16.8951 15.8602 16.55C15.8602 16.2047 15.7259 15.8802 15.482 15.636L12.9247 13.0794L12.5894 12.7438L12.499 12.6533C12.6357 12.4366 12.7419 12.2062 12.8161 11.9669C12.8642 11.8135 12.8976 11.6565 12.9195 11.4979C12.9421 11.3348 12.952 11.1712 12.9473 11.0069C12.9384 10.6833 12.8766 10.3614 12.7614 10.0546C12.6187 9.67484 12.398 9.3182 12.0926 9.01344C11.7873 8.70809 11.4303 8.48671 11.0499 8.34437C10.7433 8.22967 10.422 8.16778 10.0986 8.15882C9.93444 8.15448 9.77067 8.16391 9.60778 8.18663C9.44939 8.20888 9.29253 8.24237 9.1386 8.29009C8.89994 8.36451 8.66942 8.47072 8.45255 8.60721L8.36208 8.51692L8.02664 8.18142L5.46962 5.62434C5.22557 5.38041 4.9012 5.24609 4.55586 5.24609C4.21064 5.24609 3.88626 5.38041 3.64221 5.62463L3.38886 5.87752C2.88555 6.38112 2.88555 7.20103 3.38886 7.70469L6.57783 10.8938C5.79119 11.1785 4.51089 11.6981 3.39272 12.4138C2.97215 12.6121 2.59595 12.8752 2.27468 13.1966C0.720942 14.7503 0.720942 17.2779 2.27468 18.8313C3.02748 19.5838 4.02784 19.9983 5.09219 19.9983ZM11.4223 9.68439C11.6588 9.92094 11.8219 10.2028 11.9139 10.5023C11.9744 10.6984 12.0041 10.9019 12.0022 11.1057C12.001 11.2742 11.9775 11.4429 11.9333 11.6068C11.9009 11.727 11.8577 11.844 11.8024 11.9573L9.14949 9.30403C9.26267 9.24905 9.38001 9.20537 9.49981 9.17311C9.66393 9.12926 9.83203 9.10548 10.001 9.10426C10.2046 9.10273 10.4079 9.13207 10.6038 9.19244C10.9035 9.28436 11.1858 9.44784 11.4223 9.68439ZM4.0601 7.03421C3.92607 6.90007 3.92607 6.6822 4.0601 6.54823L4.31298 6.29517C4.3778 6.23018 4.46411 6.19469 4.55609 6.19469C4.64814 6.19469 4.73409 6.23047 4.79926 6.29517L7.40974 8.90565L7.75525 9.2511L8.10182 9.59773L11.5087 13.0048L11.8551 13.3513L12.2009 13.6974L14.8112 16.3071C14.876 16.3725 14.9116 16.4587 14.9116 16.5504C14.9116 16.6421 14.8761 16.7282 14.8112 16.7937L14.558 17.0465C14.4284 17.1759 14.2024 17.1759 14.0721 17.0465L11.1641 14.1383L10.759 13.7331L10.3163 13.2904L9.9328 12.9069L7.81679 10.7912L7.58861 10.5628L7.37326 10.3475L6.97013 9.94436L4.0601 7.03421ZM2.94591 13.8673C3.19757 13.616 3.49443 13.4106 3.8287 13.2575L4.44777 12.9725L4.39402 12.9188C5.35925 12.3723 6.38654 11.9703 7.00918 11.7479C7.1284 11.7059 7.23812 11.6677 7.32384 11.6386L7.54956 11.8646L9.24206 13.557L9.46778 13.7827C9.43909 13.8685 9.40074 13.9788 9.35799 14.0986C9.13649 14.7207 8.73488 15.7465 8.18795 16.7123L8.13315 16.6576L7.84923 17.278C7.69623 17.6121 7.49107 17.9088 7.23941 18.1604C6.66589 18.7338 5.90355 19.0497 5.09284 19.0497C5.09284 19.0497 5.09284 19.0497 5.09255 19.0497C4.28184 19.0497 3.5192 18.7338 2.94597 18.1604C2.37275 17.5874 2.05686 16.8247 2.05686 16.0139C2.0568 15.2033 2.3724 14.441 2.94591 13.8673Z" fill="#3E6897"/>
<path d="M5.09219 19.9983C5.09249 19.9983 5.09249 19.9983 5.09219 19.9983ZM5.09219 19.9983C6.15637 19.9983 7.15709 19.5839 7.90959 18.8314C8.23116 18.51 8.49453 18.1339 8.69249 17.7133C9.40841 16.5949 9.92788 15.3148 10.2127 14.528L13.4015 17.7164C13.6455 17.9606 13.9697 18.095 14.3152 18.095C14.6604 18.095 14.9849 17.9606 15.2288 17.7164L15.482 17.4639C15.7259 17.2196 15.8602 16.8951 15.8602 16.55C15.8602 16.2047 15.7259 15.8802 15.482 15.636L12.9247 13.0794L12.5894 12.7438L12.499 12.6533C12.6357 12.4366 12.7419 12.2062 12.8161 11.9669C12.8642 11.8135 12.8976 11.6565 12.9195 11.4979C12.9421 11.3348 12.952 11.1712 12.9473 11.0069C12.9384 10.6833 12.8766 10.3614 12.7614 10.0546C12.6187 9.67484 12.398 9.3182 12.0926 9.01344C11.7873 8.70809 11.4303 8.48671 11.0499 8.34437C10.7433 8.22967 10.422 8.16778 10.0986 8.15882C9.93444 8.15448 9.77067 8.16391 9.60778 8.18663C9.44939 8.20888 9.29253 8.24237 9.1386 8.29009C8.89994 8.36451 8.66942 8.47072 8.45255 8.60721L8.36208 8.51692L8.02664 8.18142L5.46962 5.62434C5.22557 5.38041 4.9012 5.24609 4.55586 5.24609C4.21064 5.24609 3.88626 5.38041 3.64221 5.62463L3.38886 5.87752C2.88555 6.38112 2.88555 7.20103 3.38886 7.70469L6.57783 10.8938C5.79119 11.1785 4.51089 11.6981 3.39272 12.4138C2.97215 12.6121 2.59595 12.8752 2.27468 13.1966C0.720942 14.7503 0.720942 17.2779 2.27468 18.8313C3.02748 19.5838 4.02784 19.9983 5.09219 19.9983ZM11.4223 9.68439C11.6588 9.92094 11.8219 10.2028 11.9139 10.5023C11.9744 10.6984 12.0041 10.9019 12.0022 11.1057C12.001 11.2742 11.9775 11.4429 11.9333 11.6068C11.9009 11.727 11.8577 11.844 11.8024 11.9573L9.14949 9.30403C9.26267 9.24905 9.38001 9.20538 9.49981 9.17311C9.66393 9.12926 9.83203 9.10548 10.001 9.10426C10.2046 9.10273 10.4079 9.13207 10.6038 9.19244C10.9035 9.28436 11.1858 9.44784 11.4223 9.68439ZM4.0601 7.03421C3.92607 6.90007 3.92607 6.6822 4.0601 6.54823L4.31298 6.29517C4.3778 6.23018 4.46411 6.19469 4.55609 6.19469C4.64814 6.19469 4.73409 6.23047 4.79926 6.29517L7.40974 8.90565L7.75525 9.2511L8.10182 9.59773L11.5087 13.0048L11.8551 13.3513L12.2009 13.6974L14.8112 16.3071C14.876 16.3725 14.9116 16.4587 14.9116 16.5504C14.9116 16.6421 14.8761 16.7282 14.8112 16.7937L14.558 17.0465C14.4284 17.1759 14.2024 17.1759 14.0721 17.0465L11.1641 14.1383L10.759 13.7331L10.3163 13.2904L9.9328 12.9069L7.81679 10.7912L7.58861 10.5628L7.37326 10.3475L6.97013 9.94436L4.0601 7.03421ZM2.94591 13.8673C3.19757 13.616 3.49443 13.4106 3.8287 13.2575L4.44777 12.9725L4.39402 12.9188C5.35925 12.3723 6.38654 11.9703 7.00918 11.7479C7.1284 11.7059 7.23812 11.6677 7.32384 11.6386L7.54956 11.8646L9.24206 13.557L9.46778 13.7827C9.43909 13.8685 9.40074 13.9788 9.35799 14.0986C9.13649 14.7207 8.73488 15.7465 8.18795 16.7123L8.13315 16.6576L7.84923 17.278C7.69623 17.6121 7.49107 17.9088 7.23941 18.1604C6.66589 18.7338 5.90355 19.0497 5.09284 19.0497C5.09284 19.0497 5.09284 19.0497 5.09254 19.0497C4.28184 19.0497 3.5192 18.7338 2.94597 18.1604C2.37275 17.5874 2.05686 16.8247 2.05686 16.0139C2.0568 15.2033 2.3724 14.441 2.94591 13.8673Z" stroke="#3E6897" stroke-width="0.3"/>
</g>
<defs>
<clipPath id="clip0_580_14127">
<rect width="21" height="21" fill="white"/>
</clipPath>
</defs>
</svg>
