<svg width="21" height="21" viewBox="0 0 21 21" fill="none" xmlns="http://www.w3.org/2000/svg">
<g clip-path="url(#clip0_580_14141)">
<path d="M20.6427 4.04791C20.2601 3.50883 19.6168 3.20976 18.8103 3.17553C18.922 1.6561 18.4142 0.475246 17.4598 0.111095C16.6912 -0.182332 15.7726 0.114105 14.9461 0.898459C14.5714 0.565532 14.1406 0.37518 13.6794 0.37518C12.2029 0.37518 11.0461 2.27531 11.0461 4.70135C11.0461 6.50217 11.6969 8.04417 12.6607 8.69347C11.835 9.53764 11.6424 11.4363 11.6036 13.9748C11.1567 13.2811 10.5691 12.7582 9.79981 12.5377C10.3231 11.6481 10.5149 10.3058 10.2573 8.87216C9.82764 6.48411 8.35336 4.82173 6.90014 5.0798C6.44571 5.16143 6.0556 5.42514 5.74562 5.81939C4.79386 5.19378 3.83684 5.064 3.13223 5.48909C2.25948 6.01538 1.97357 7.26546 2.34901 8.73748C1.58234 8.90978 0.986076 9.3108 0.696034 9.92699C0.0226561 11.3588 1.28928 13.3244 3.57952 14.4021C4.48501 14.8284 5.43263 15.0541 6.2941 15.0541C6.44157 15.0541 6.58602 15.0473 6.72747 15.0341C7.76914 14.9359 8.52829 14.4875 8.86573 13.7713C8.92517 13.6449 8.96429 13.5132 8.99401 13.3797C9.08655 13.3255 9.17496 13.2638 9.25922 13.1934C12.0295 13.558 12.2518 18.9913 12.2518 20.6969C12.2518 20.9046 12.42 21.0731 12.628 21.0731C12.836 21.0731 13.0042 20.9046 13.0042 20.6969C13.0042 19.4333 12.9015 17.3191 12.3233 15.5439C12.3349 15.5074 12.3462 15.4705 12.3462 15.4303C12.3462 13.1126 12.3492 10.0195 13.2318 9.19267C13.2495 9.22051 13.2634 9.25023 13.2826 9.27731C13.6896 9.85025 14.3874 10.1565 15.2681 10.1565C15.3794 10.1565 15.4934 10.1516 15.61 10.1418C16.581 10.0602 17.6411 9.64147 18.5962 8.96282C19.5514 8.28418 20.2962 7.42045 20.6927 6.53076C21.119 5.57486 21.1013 4.69345 20.6427 4.04791ZM7.03331 5.82014C8.04112 5.63957 9.17345 7.09843 9.51691 9.00458C9.76708 10.395 9.53309 11.7365 8.97971 12.4136C8.97821 12.4076 8.9752 12.4012 8.97369 12.3952C8.90636 12.119 8.79011 11.8399 8.63061 11.5642C8.62233 11.5495 8.61406 11.5352 8.60541 11.5209C8.44139 11.2452 8.23411 10.9743 7.98733 10.714C7.97642 10.7027 7.96513 10.6914 7.95422 10.6801C7.83497 10.5564 7.70782 10.4352 7.57089 10.3175C7.56411 10.3118 7.5581 10.3058 7.55132 10.3002C7.40875 10.1783 7.25752 10.0605 7.09764 9.94693C7.07996 9.93414 7.06115 9.92248 7.04309 9.91006C6.93437 9.83445 6.82227 9.76034 6.70603 9.68924C6.70565 9.68887 6.70528 9.68849 6.70452 9.68811C6.70415 9.68811 6.70377 9.68811 6.70339 9.68736C6.67706 9.67118 6.64885 9.65576 6.62176 9.63996C6.58189 9.61626 6.54239 9.59256 6.50213 9.56924C6.45285 9.54102 6.40432 9.51281 6.35354 9.48535C6.35241 9.48459 6.35166 9.48347 6.35015 9.48309C6.23015 9.41839 6.10714 9.35556 5.98149 9.29612C5.90512 9.26039 5.828 9.22615 5.75126 9.19342C5.74675 9.14979 5.7411 9.10615 5.73772 9.06251C5.73471 9.02414 5.73132 8.98577 5.72869 8.94777C5.72154 8.8383 5.7174 8.72958 5.71628 8.62199C5.71628 8.60883 5.71515 8.59566 5.71515 8.58249C5.71477 8.45722 5.71853 8.33383 5.72606 8.21232C5.72718 8.19276 5.72944 8.17395 5.73057 8.15477C5.73772 8.05357 5.74787 7.95351 5.76029 7.85607C5.7633 7.83162 5.76668 7.80754 5.77007 7.78347C5.78549 7.67588 5.80393 7.56979 5.82612 7.46785C5.82687 7.46371 5.82763 7.45957 5.82838 7.45543C5.90475 7.10783 6.01873 6.79484 6.1677 6.53452C6.17033 6.53001 6.17033 6.52474 6.17297 6.52023C6.39605 6.13576 6.6891 5.88183 7.03331 5.82014ZM3.52084 6.13313C3.96888 5.8634 4.6573 5.99168 5.36228 6.46342C5.28855 6.62819 5.22497 6.80538 5.17118 6.99159C5.16892 6.99949 5.16666 7.00739 5.16441 7.01567C5.11174 7.20075 5.0681 7.39449 5.03613 7.59801C4.97405 7.98887 4.95224 8.41133 4.97255 8.85335C4.9733 8.87254 4.9718 8.89059 4.97255 8.90978C4.96841 8.90865 4.9639 8.90752 4.95976 8.90639C4.3067 8.71077 3.67169 8.62237 3.09574 8.64268C2.7741 7.47499 2.93436 6.48637 3.52084 6.13313ZM6.65712 14.2844C5.82048 14.363 4.84013 14.1629 3.90004 13.7205C2.0552 12.8522 0.899552 11.2613 1.37731 10.2468C1.60303 9.76598 2.16392 9.48798 2.88545 9.41801C3.04797 9.40183 3.21725 9.39694 3.3918 9.40221C3.41927 9.40296 3.44673 9.40484 3.47457 9.40597C3.6431 9.41425 3.81577 9.4308 3.99145 9.45789C4.02079 9.4624 4.05089 9.46879 4.08023 9.47369C4.26231 9.50491 4.44589 9.54366 4.63135 9.59482C4.64226 9.59783 4.65354 9.60196 4.66445 9.60497C4.85556 9.65877 5.04741 9.72272 5.23776 9.79683C5.25055 9.80172 5.26297 9.80586 5.27576 9.81075C5.40441 9.86154 5.53307 9.91608 5.66173 9.97627C5.77082 10.0278 5.87728 10.0824 5.98111 10.1384C6.02212 10.1606 6.06199 10.1843 6.10224 10.2073C6.1598 10.24 6.21698 10.2723 6.27304 10.3062C6.32533 10.3382 6.37611 10.3713 6.4269 10.4044C6.46828 10.4311 6.50928 10.4578 6.54953 10.4853C6.60596 10.524 6.66164 10.5635 6.71581 10.6038C6.74628 10.6263 6.77638 10.6489 6.80609 10.6715C6.8644 10.7162 6.92196 10.7614 6.97764 10.8077C6.99946 10.8257 7.02052 10.8441 7.04196 10.8622C7.10178 10.913 7.16046 10.9645 7.21652 11.0168C7.22855 11.0281 7.23984 11.0394 7.25188 11.0507C7.41439 11.2049 7.5596 11.364 7.68788 11.5254C7.7255 11.5728 7.76349 11.6202 7.79773 11.668C7.83572 11.7207 7.87146 11.7733 7.90569 11.8264C7.91322 11.838 7.92187 11.8497 7.92902 11.8614C7.96024 11.9114 7.9877 11.9614 8.01554 12.0118C8.02946 12.0374 8.04451 12.0634 8.05767 12.0889C8.08062 12.1337 8.10056 12.1781 8.12012 12.2229C8.13367 12.2537 8.14721 12.2842 8.15925 12.3147C8.17542 12.3564 8.18972 12.3978 8.20326 12.4392C8.21379 12.4723 8.22357 12.505 8.23223 12.5374C8.24276 12.5765 8.25216 12.6156 8.25969 12.6544C8.26646 12.6886 8.27135 12.7225 8.27586 12.7559C8.28076 12.7924 8.28527 12.8293 8.28753 12.8654C8.28978 12.9015 8.28903 12.9365 8.28828 12.9719C8.2879 13.0042 8.2879 13.0369 8.28527 13.0689C8.27285 13.2025 8.24088 13.3307 8.18445 13.4508C7.96551 13.9161 7.42304 14.2125 6.65712 14.2844ZM17.1915 0.814192C17.8322 1.05909 18.1651 2.00634 18.0541 3.21503C18.0474 3.21616 18.0402 3.21804 18.0331 3.21917C17.6008 3.28274 17.1562 3.4099 16.713 3.59385C16.7055 3.59686 16.698 3.60025 16.6905 3.60363C16.5577 3.65931 16.4252 3.72025 16.2936 3.78608C16.2804 3.79248 16.2672 3.79737 16.2545 3.80414C16.2522 3.78684 16.2477 3.77104 16.2454 3.75373C16.157 3.08412 15.978 2.47958 15.7297 1.9721C15.7263 1.96533 15.7233 1.95856 15.7199 1.95216C15.6334 1.77799 15.5397 1.6151 15.4377 1.46575L15.4374 1.46538C16.0532 0.866859 16.6942 0.624593 17.1915 0.814192ZM11.7985 4.70135C11.7985 2.76436 12.66 1.12756 13.6794 1.12756C14.0289 1.12756 14.3626 1.32543 14.6493 1.66438C14.6523 1.66852 14.6534 1.67341 14.6568 1.67755C14.8494 1.90665 15.0164 2.19405 15.1526 2.52171C15.1556 2.52849 15.1579 2.53563 15.1609 2.5424C15.1992 2.63608 15.2346 2.73351 15.2681 2.8332C15.2764 2.8584 15.2846 2.88361 15.2925 2.90919C15.3215 3.00023 15.3478 3.0939 15.3723 3.18907C15.3779 3.21052 15.384 3.23121 15.3892 3.25303C15.4174 3.37002 15.443 3.48927 15.4645 3.61116C15.4675 3.62733 15.4693 3.64464 15.472 3.66081C15.4893 3.76314 15.5036 3.86734 15.5156 3.9723C15.5201 4.01217 15.5239 4.05243 15.5277 4.09306C15.5318 4.13519 15.5337 4.17807 15.5371 4.22058C15.4675 4.2661 15.3982 4.3135 15.329 4.36241C15.2711 4.40341 15.2165 4.44742 15.1605 4.48956C15.1067 4.53019 15.051 4.57006 14.9987 4.61144C14.9574 4.64455 14.9186 4.67916 14.8784 4.71264C14.8374 4.74687 14.7971 4.7811 14.7572 4.81609C14.6365 4.92142 14.5195 5.02901 14.4085 5.13999C14.3833 5.16519 14.3573 5.19002 14.3325 5.2156C14.2208 5.33072 14.1162 5.44884 14.0158 5.56847C13.9736 5.6185 13.9337 5.66891 13.8939 5.7197C13.8378 5.79117 13.7844 5.8634 13.7325 5.936C13.7257 5.94541 13.7186 5.95481 13.7118 5.96422C13.7035 5.97588 13.6956 5.98792 13.6873 5.99958C13.6569 6.04359 13.6241 6.08723 13.5952 6.13162C13.5403 6.21627 13.4906 6.30204 13.4421 6.38781C13.4391 6.39307 13.4357 6.39834 13.4327 6.40361C13.4146 6.43596 13.3962 6.46794 13.3789 6.50029C13.3491 6.55559 13.3228 6.61051 13.2957 6.66581C13.289 6.68011 13.2803 6.6944 13.2735 6.7087C13.2724 6.71058 13.2732 6.71283 13.2724 6.71509C13.26 6.7418 13.2449 6.76813 13.2329 6.79447C13.2145 6.83623 13.2013 6.87685 13.1844 6.91823C13.1595 6.97918 13.134 7.04012 13.1129 7.10106C13.0659 7.23461 13.0256 7.36703 12.9967 7.49644C12.9929 7.51299 12.9918 7.52916 12.9884 7.54572C12.962 7.67212 12.9462 7.79588 12.9372 7.91739C12.9361 7.93169 12.932 7.94673 12.9312 7.96065C12.2657 7.39261 11.7985 6.11394 11.7985 4.70135ZM20.0058 6.22417C19.6631 6.99272 19.0082 7.74735 18.161 8.34888C17.3142 8.95078 16.3857 9.32095 15.5472 9.3913C14.7798 9.456 14.1941 9.26039 13.8961 8.84093C13.8231 8.73824 13.7694 8.6235 13.7329 8.49898C13.7227 8.46362 13.7167 8.42675 13.7095 8.39026C13.7039 8.36205 13.6967 8.33496 13.6926 8.30599C13.6873 8.26725 13.6862 8.227 13.684 8.18712C13.6825 8.15778 13.6794 8.12956 13.6794 8.09947C13.6794 8.05884 13.6832 8.01671 13.6862 7.97495C13.6885 7.9441 13.6896 7.91363 13.6934 7.88203C13.6986 7.83877 13.7069 7.79438 13.7148 7.75036C13.7204 7.71914 13.7257 7.68792 13.7329 7.65632C13.7434 7.60929 13.7569 7.56114 13.7705 7.51336C13.7788 7.48402 13.787 7.45506 13.7968 7.42534C13.8141 7.37192 13.8337 7.31775 13.8547 7.26358C13.8634 7.24138 13.8721 7.21918 13.8815 7.19661C13.9059 7.13793 13.9319 7.07887 13.9605 7.0198C13.9857 6.96639 14.0154 6.91222 14.044 6.85842C14.1873 6.59245 14.3679 6.32423 14.5846 6.06353C14.5891 6.05789 14.5936 6.05225 14.5981 6.0466C14.6557 5.97814 14.7158 5.91005 14.7775 5.84309C14.7888 5.83105 14.8001 5.81863 14.8114 5.80622C14.8693 5.74452 14.9291 5.68358 14.9905 5.62339C15.0112 5.60345 15.0318 5.58314 15.0529 5.5632C15.1078 5.51091 15.1639 5.45862 15.2214 5.40746C15.2624 5.37172 15.3042 5.33598 15.3463 5.301C15.3903 5.26375 15.434 5.22614 15.4795 5.19002C15.5412 5.14074 15.6059 5.09334 15.6706 5.04557C15.7018 5.02262 15.7316 4.99817 15.7635 4.97559C15.8828 4.89095 16.0032 4.81233 16.1239 4.73784C16.1435 4.7258 16.1634 4.7149 16.183 4.70323C16.6352 4.43125 17.1054 4.22246 17.5628 4.09042C17.5715 4.08779 17.5798 4.08553 17.5884 4.08327C17.6746 4.05882 17.7603 4.03738 17.8454 4.01857C17.8615 4.01481 17.8777 4.0118 17.8935 4.00841C17.9733 3.99148 18.0526 3.97644 18.1309 3.96477C18.1504 3.96177 18.1696 3.95988 18.1888 3.95763C18.2659 3.94709 18.3431 3.93769 18.4183 3.93242C18.4187 3.93242 18.4194 3.93205 18.4198 3.93205C18.5003 3.9264 18.5797 3.92189 18.656 3.92189C19.2862 3.92189 19.7673 4.11788 20.028 4.48467C20.3275 4.90337 20.3192 5.52144 20.0058 6.22417Z" fill="#3E6897" stroke="#3E6897" stroke-width="0.4"/>
<path d="M16.408 15.6174C17.7999 14.6465 18.7185 13.0037 18.7219 11.1423C18.7223 10.9892 18.6297 10.8515 18.4883 10.7932C18.4157 10.7638 18.3378 10.7586 18.2637 10.7744C16.8895 10.7917 15.6007 11.3514 14.6278 12.3559C13.6513 13.3637 13.1099 14.7014 13.096 16.1268C13.0956 16.129 13.0945 16.1313 13.0945 16.1335C13.0941 16.1366 13.0953 16.1396 13.0953 16.1426C13.0953 16.1531 13.0938 16.1629 13.0938 16.1734C13.0938 16.1937 13.0998 16.2125 13.1028 16.2321C13.1043 16.2404 13.1047 16.249 13.1065 16.2573C13.1182 16.3055 13.1374 16.3502 13.1667 16.3894C13.9097 18.136 15.6417 19.1901 17.4895 19.1901C18.0993 19.1901 18.7215 19.0753 19.3249 18.8331C19.4671 18.7759 19.5604 18.6382 19.5608 18.4851C19.5612 18.4084 19.5375 18.3354 19.4969 18.2741C18.9386 16.945 17.7897 15.9823 16.408 15.6174ZM15.1681 12.8791C15.9238 12.0989 16.9008 11.6324 17.9519 11.5422C17.7999 13.3456 16.6529 14.8553 15.0872 15.4794C15.0845 15.4805 15.0815 15.4797 15.0789 15.4809C14.7099 15.6268 14.3307 15.719 13.9473 15.7611C13.9255 15.7634 13.9044 15.7679 13.8826 15.7698C13.8758 15.7705 13.8695 15.7701 13.8627 15.7709C13.9545 14.6766 14.4097 13.662 15.1681 12.8791ZM14.0624 16.5082C14.2648 16.4853 14.4631 16.4469 14.6579 16.4006C14.6816 16.395 14.705 16.3875 14.7287 16.3815C14.9043 16.3371 15.0763 16.2833 15.2444 16.2208C15.2576 16.2159 15.2711 16.2133 15.2847 16.2084C16.7334 16.2483 18.0158 17.0394 18.6625 18.2673C16.8665 18.797 14.9589 18.0581 14.0624 16.5082Z" fill="#3E6897" stroke="#3E6897" stroke-width="0.4"/>
</g>
<defs>
<clipPath id="clip0_580_14141">
<rect width="21" height="21" fill="white"/>
</clipPath>
</defs>
</svg>
