<svg width="21" height="15" viewBox="0 0 21 15" fill="none" xmlns="http://www.w3.org/2000/svg">
<path d="M18.3281 3.32422C17.9831 3.32422 17.7031 3.60359 17.7031 3.94922V5.28609C17.7031 9.44547 14.4088 12.7042 10.2031 12.7042C5.9975 12.7042 2.70312 9.44547 2.70312 5.28609V3.94922C2.70312 3.60359 2.42312 3.32422 2.07812 3.32422C1.73313 3.32422 1.45312 3.60359 1.45312 3.94922V5.28609C1.45312 10.1467 5.29625 13.9542 10.2031 13.9542C15.11 13.9542 18.9531 10.1467 18.9531 5.28609V3.94922C18.9531 3.60359 18.6731 3.32422 18.3281 3.32422Z" fill="#3E6897" stroke="#3E6897" stroke-width="0.4"/>
<path d="M19.5781 0.199219H0.828125C0.483125 0.199219 0.203125 0.478594 0.203125 0.824219V2.70047C0.203125 3.73359 1.0175 4.57422 2.01813 4.57422H18.3888C19.3894 4.57422 20.2031 3.73359 20.2031 2.70047V0.824219C20.2031 0.478594 19.9231 0.199219 19.5781 0.199219ZM18.9531 2.70047C18.9531 3.04484 18.7 3.32422 18.3881 3.32422H2.01813C1.71187 3.32422 1.45312 3.03859 1.45312 2.70047V1.44922H18.9531V2.70047Z" fill="#3E6897" stroke="#3E6897" stroke-width="0.4"/>
<path d="M10.2019 7.76758C9.17687 7.76758 8.34375 8.60133 8.34375 9.6257C8.34375 10.6501 9.1775 11.4838 10.2019 11.4838C11.2262 11.4838 12.06 10.6501 12.06 9.6257C12.06 8.60133 11.2269 7.76758 10.2019 7.76758ZM10.2019 10.2338C9.86687 10.2338 9.59375 9.9607 9.59375 9.6257C9.59375 9.2907 9.86687 9.01758 10.2019 9.01758C10.5369 9.01758 10.81 9.2907 10.81 9.6257C10.81 9.9607 10.5369 10.2338 10.2019 10.2338Z" fill="#3E6897" stroke="#3E6897" stroke-width="0.4"/>
</svg>
