<svg width="21" height="21" viewBox="0 0 21 21" fill="none" xmlns="http://www.w3.org/2000/svg">
<path d="M0.787549 16.2418H20.2125C20.6474 16.2418 21 16.6293 21 17.1072C21 17.5454 20.7037 17.9075 20.3193 17.9648L20.2125 17.9727H0.787549C0.352598 17.9727 0 17.5852 0 17.1072C0 16.6691 0.29628 16.307 0.680683 16.2497L0.787549 16.2418H20.2125H0.787549ZM17.0629 2.97266C18.0778 2.97266 18.9005 3.87673 18.9005 4.99197V13.6465C18.9005 14.7617 18.0778 15.6658 17.0629 15.6658H3.93709C2.9222 15.6658 2.09947 14.7617 2.09947 13.6465V4.99197C2.09947 3.87673 2.9222 2.97266 3.93709 2.97266H17.0629ZM17.0629 4.70349H3.93709C3.79211 4.70349 3.67457 4.83265 3.67457 4.99197V13.6465C3.67457 13.8058 3.79211 13.9349 3.93709 13.9349H17.0629C17.2079 13.9349 17.3254 13.8058 17.3254 13.6465V4.99197C17.3254 4.83265 17.2079 4.70349 17.0629 4.70349Z" fill="#3E6897"/>
</svg>
