<svg width="21" height="21" viewBox="0 0 21 21" fill="none" xmlns="http://www.w3.org/2000/svg">
<path fill-rule="evenodd" clip-rule="evenodd" d="M4.31156 1.32541C4.44709 1.12211 4.67526 1 4.9196 1H7.57693C7.98052 1 8.3077 1.32718 8.3077 1.73077C8.3077 2.94155 9.28923 3.92308 10.5 3.92308C11.7108 3.92308 12.6923 2.94155 12.6923 1.73077C12.6923 1.32718 13.0195 1 13.4231 1H16.0804C16.3247 1 16.5529 1.12211 16.6884 1.32541L19.8772 6.10863C20.0822 6.41614 20.0254 6.82831 19.7448 7.06883L17.2098 9.2417V19.2692C17.2098 19.6728 16.8826 20 16.479 20H4.521C4.11741 20 3.79023 19.6728 3.79023 19.2692V9.2417L1.25522 7.06883C0.974611 6.82831 0.917754 6.41614 1.12276 6.10863L4.31156 1.32541ZM5.31069 2.46154L2.69802 6.38056L4.99657 8.35075C5.15855 8.48959 5.25176 8.69226 5.25176 8.90559V18.5385H15.7482V8.90559C15.7482 8.69226 15.8415 8.48959 16.0034 8.35075L18.302 6.38056L15.6893 2.46154H14.0807C13.7422 4.12933 12.2677 5.38462 10.5 5.38462C8.73231 5.38462 7.2578 4.12933 6.91925 2.46154H5.31069Z" fill="#3E6897"/>
</svg>
