<svg width="21" height="21" viewBox="0 0 21 21" fill="none" xmlns="http://www.w3.org/2000/svg">
<path d="M18.2722 1.68164H2.72783L0 6.22802V19.3184H21V6.22802L18.2722 1.68164ZM17.5755 2.91211L19.2981 5.7832H12.3457H12.2873L12.0001 2.91211H17.5755ZM10.2364 2.91211H10.7635L11.0506 5.7832H9.94932L10.2364 2.91211ZM9.88477 7.01367H11.1152V9.88477H9.88477V7.01367ZM3.42452 2.91211H8.99989L8.71278 5.7832H8.6543H1.70186L3.42452 2.91211ZM19.7695 18.0879H1.23047V7.01367H8.5897H8.6543V11.1152H12.3457V7.01367H12.4103H19.7695V18.0879Z" fill="#3E6897"/>
<path d="M4.92188 15.627H2.46094V16.8574H4.92188V15.627Z" fill="#3E6897"/>
<path d="M6.15234 13.166H2.46094V14.3965H6.15234V13.166Z" fill="#3E6897"/>
</svg>
