<svg width="40" height="40" viewBox="0 0 40 40" fill="none" xmlns="http://www.w3.org/2000/svg">
<path d="M0 20C0 8.95431 8.95431 0 20 0C31.0457 0 40 8.95431 40 20V40H20C8.95431 40 0 31.0457 0 20Z" fill="#F3F8FF"/>
<path d="M26.1844 14.2002L23.735 25.3914C23.5501 26.1811 23.0683 26.3776 22.3837 26.0058L18.6514 23.3413L16.8508 25.0195C16.6513 25.2127 16.485 25.3739 16.1006 25.3739L16.369 21.6917L23.2857 15.6364C23.5866 15.3769 23.2202 15.2326 22.8185 15.4926L14.2675 20.7093L10.5862 19.5928C9.78564 19.3507 9.77115 18.8171 10.7532 18.4447L25.1519 13.0702C25.8186 12.8281 26.4018 13.2134 26.1844 14.2002Z" fill="#0075FF"/>
</svg>
