<svg width="40" height="40" viewBox="0 0 40 40" fill="none" xmlns="http://www.w3.org/2000/svg">
<path d="M0 20C0 8.95431 8.95431 0 20 0C31.0457 0 40 8.95431 40 20V40H20C8.95431 40 0 31.0457 0 20Z" fill="#F3F8FF"/>
<path fill-rule="evenodd" clip-rule="evenodd" d="M20.0377 28.8453H20.034C18.534 28.8448 17.0601 28.4703 15.7511 27.7597L11 29L12.2715 24.378C11.4872 23.0253 11.0745 21.4909 11.0751 19.9189C11.0771 15.0011 15.0976 11 20.0376 11C22.4351 11.001 24.6854 11.9299 26.3775 13.6159C28.0696 15.3018 29.0009 17.5427 29 19.9259C28.998 24.8427 24.9791 28.8433 20.0377 28.8453Z" fill="#0075FF"/>
<path d="M20.2227 12.7188C22.1174 12.7195 23.8989 13.4579 25.2383 14.7988C26.5777 16.1398 27.3142 17.9227 27.3135 19.8184C27.3119 23.7301 24.1299 26.913 20.2197 26.9131H20.2168C18.9438 26.9126 17.6947 26.5702 16.6055 25.9238L16.3467 25.7705L13.6621 26.4746L14.3779 23.8564L14.21 23.5879C13.4998 22.4584 13.1245 21.153 13.125 19.8125C13.1266 15.901 16.3094 12.7188 20.2227 12.7188ZM17.1982 15.8691C17.0561 15.8691 16.8244 15.9222 16.6289 16.1357C16.4333 16.3493 15.8828 16.8655 15.8828 17.915C15.8828 18.9648 16.6473 19.9788 16.7539 20.1211C16.8605 20.2635 18.258 22.418 20.3975 23.3418C20.9061 23.5614 21.3036 23.6928 21.6133 23.791C22.124 23.9532 22.5887 23.9299 22.9561 23.875C23.3658 23.8138 24.2177 23.3595 24.3955 22.8613C24.5731 22.3631 24.5738 21.9356 24.5205 21.8467C24.4671 21.7578 24.3245 21.7044 24.1113 21.5977C23.8978 21.4908 22.8506 20.9759 22.6543 20.9043C22.4588 20.8332 22.316 20.7973 22.1738 21.0107C22.0317 21.2241 21.6238 21.7039 21.499 21.8467C21.3746 21.9889 21.2502 22.0071 21.0371 21.9004C20.8238 21.7936 20.1359 21.5684 19.3213 20.8418C18.6874 20.2763 18.2592 19.5777 18.1348 19.3643C18.0109 19.1512 18.1219 19.0359 18.2285 18.9297C18.3245 18.8341 18.4422 18.6802 18.5488 18.5557C18.6553 18.4313 18.6908 18.3422 18.7617 18.2002C18.8328 18.0578 18.7975 17.9329 18.7441 17.8262C18.6908 17.7194 18.2646 16.6692 18.0869 16.2422C17.9138 15.8266 17.7373 15.8835 17.6064 15.877C17.4823 15.8707 17.3402 15.8691 17.1982 15.8691Z" fill="#F3F8FF"/>
</svg>
