<svg width="40" height="40" viewBox="0 0 40 40" fill="none" xmlns="http://www.w3.org/2000/svg">
<path d="M0 20C0 8.95431 8.95431 0 20 0C31.0457 0 40 8.95431 40 20V40H20C8.95431 40 0 31.0457 0 20Z" fill="#F3F8FF"/>
<path fill-rule="evenodd" clip-rule="evenodd" d="M20.7129 25.5647C20.7129 25.5647 21.0979 25.5227 21.2951 25.3148C21.4756 25.1243 21.4694 24.7648 21.4694 24.7648C21.4694 24.7648 21.4454 23.0861 22.2394 22.8383C23.022 22.5945 24.0268 24.4616 25.0931 25.1796C25.8987 25.7224 26.5101 25.6036 26.5101 25.6036L29.3597 25.5647C29.3597 25.5647 30.8497 25.4746 30.1433 24.3244C30.0848 24.2302 29.7311 23.4733 28.0251 21.9185C26.2378 20.291 26.4777 20.5543 28.6293 17.7387C29.9398 16.0242 30.4636 14.9774 30.2998 14.5298C30.1443 14.1017 29.1802 14.2154 29.1802 14.2154L25.9727 14.2349C25.9727 14.2349 25.7348 14.2031 25.5585 14.3066C25.3863 14.408 25.2747 14.6446 25.2747 14.6446C25.2747 14.6446 24.7676 15.9709 24.0904 17.0996C22.662 19.4799 22.0912 19.6058 21.8575 19.4584C21.3139 19.1132 21.4495 18.0736 21.4495 17.3352C21.4495 15.0276 21.8064 14.0659 20.7557 13.817C20.4072 13.734 20.1505 13.6797 19.2584 13.6705C18.1137 13.6593 17.1455 13.6746 16.5966 13.9379C16.2314 14.113 15.9497 14.5042 16.1219 14.5268C16.3337 14.5544 16.8136 14.6538 17.0682 14.9938C17.3969 15.4332 17.3854 16.4185 17.3854 16.4185C17.3854 16.4185 17.5743 19.1347 16.9441 19.4717C16.5121 19.7031 15.9194 19.231 14.6454 17.0709C13.9933 15.9648 13.5008 14.7419 13.5008 14.7419C13.5008 14.7419 13.4059 14.5135 13.2358 14.3906C13.0302 14.242 12.7433 14.196 12.7433 14.196L9.69548 14.2154C9.69548 14.2154 9.23742 14.2277 9.06943 14.4233C8.92022 14.5964 9.05795 14.9559 9.05795 14.9559C9.05795 14.9559 11.4442 20.4365 14.1467 23.1988C16.6248 25.7306 19.4378 25.5647 19.4378 25.5647H20.7129Z" fill="#0075FF"/>
</svg>
