<svg width="40" height="40" viewBox="0 0 40 40" fill="none" xmlns="http://www.w3.org/2000/svg">
<circle cx="19" cy="20" r="13" fill="#0075FF"/>
<path fill-rule="evenodd" clip-rule="evenodd" d="M20 0C31.0457 0 40 8.9543 40 20C40 31.0457 31.0457 40 20 40C8.95431 40 0 31.0457 0 20C0 8.9543 8.95431 0 20 0ZM20.4938 13.0556C21.3853 13.1618 22.1057 13.367 22.8961 13.7353C23.6735 14.0986 24.171 14.4422 24.8293 15.0675C25.4461 15.6583 25.7881 16.1057 26.1509 16.8002C26.6563 17.7692 26.9439 18.921 26.9931 20.189C27.0113 20.6215 26.9983 20.7179 26.8946 20.8415C26.6977 21.0813 26.2649 21.0417 26.1172 20.7723C26.0706 20.6833 26.0576 20.6067 26.0421 20.2606C26.0161 19.7292 25.9773 19.3857 25.8995 18.9753C25.5938 17.3663 24.7852 16.081 23.4947 15.159C22.4193 14.3878 21.3075 14.0121 19.8512 13.9306C19.3588 13.9034 19.2733 13.8861 19.1618 13.8045C18.9545 13.6488 18.9442 13.283 19.1437 13.1124C19.2655 13.0061 19.351 12.9913 19.7734 13.0037C19.9937 13.0111 20.3176 13.0358 20.4938 13.0556ZM14.2279 13.0764C14.3205 13.1079 14.4633 13.1814 14.5452 13.2339C15.0475 13.5647 16.4461 15.3419 16.9035 16.2293C17.1652 16.7359 17.2525 17.1113 17.1706 17.3896C17.0859 17.6889 16.9458 17.8464 16.3192 18.3478C16.068 18.5499 15.8327 18.7573 15.7958 18.8124C15.7006 18.9489 15.6239 19.2167 15.6239 19.4057C15.6265 19.8441 15.9121 20.6396 16.2875 21.2512C16.5783 21.7264 17.0991 22.3354 17.6147 22.8027C18.2201 23.354 18.7542 23.7294 19.357 24.026C20.1316 24.4093 20.6049 24.5064 20.9512 24.3463C21.0385 24.3069 21.131 24.2544 21.1601 24.2308C21.1865 24.2072 21.3901 23.9604 21.6122 23.6874C22.0405 23.1518 22.1383 23.0652 22.4317 22.9655C22.8046 22.8395 23.1853 22.8736 23.5686 23.0678C23.8594 23.2175 24.4939 23.6086 24.9037 23.8921C25.443 24.2675 26.5958 25.2021 26.7518 25.3885C27.0267 25.7245 27.0743 26.155 26.8892 26.6302C26.6936 27.1316 25.9322 28.0714 25.4008 28.4731C24.9196 28.8354 24.5785 28.9745 24.1291 28.9955C23.759 29.0138 23.6056 28.9823 23.1324 28.7881C19.4204 27.2681 16.4567 25 14.1037 21.8839C12.8743 20.2563 11.9384 18.5683 11.2985 16.8173C10.9258 15.7961 10.9073 15.3525 11.2139 14.8301C11.3462 14.6096 11.9093 14.0635 12.3191 13.759C13.0012 13.255 13.3158 13.0686 13.567 13.0161C13.7388 12.9793 14.0376 13.0082 14.2279 13.0764ZM20.1435 15.0513C21.8648 15.292 23.1976 16.0547 24.071 17.2933C24.5616 17.991 24.8678 18.8104 24.9727 19.6893C25.0096 20.0112 25.0096 20.598 24.9699 20.6954C24.933 20.7873 24.8139 20.9117 24.7118 20.9631C24.6012 21.0172 24.3659 21.0118 24.2354 20.9469C24.0171 20.8414 23.9519 20.6737 23.9519 20.2194C23.9519 19.519 23.7618 18.7807 23.4329 18.2073C23.0586 17.5529 22.5142 17.012 21.8506 16.6361C21.2807 16.3116 20.4385 16.0709 19.67 16.0114C19.3921 15.9897 19.239 15.9357 19.134 15.8194C18.9724 15.6436 18.9554 15.4056 19.0915 15.2082C19.2389 14.9891 19.4658 14.954 20.1435 15.0513ZM21.0186 17.057C21.5141 17.1595 21.8939 17.3425 22.2183 17.6378C22.6358 18.0209 22.8647 18.4847 22.9653 19.1509C23.0332 19.5853 23.0055 19.7561 22.847 19.8977C22.6987 20.0295 22.4245 20.0344 22.2585 19.9099C22.1378 19.822 22.1001 19.7293 22.0724 19.4779C22.0397 19.1436 21.9794 18.9093 21.8763 18.6921C21.6549 18.2308 21.2651 17.9917 20.6062 17.9136C20.2968 17.877 20.2037 17.8428 20.1031 17.7281C19.9195 17.5158 19.9899 17.1717 20.244 17.0448C20.3396 16.9984 20.3798 16.9935 20.591 17.0057C20.7218 17.013 20.9155 17.035 21.0186 17.057Z" fill="#F3F8FF"/>
</svg>
