<svg width="18" height="13" viewBox="0 0 18 13" fill="none" xmlns="http://www.w3.org/2000/svg">
<path d="M15.0417 3.16667H12.6667V0H1.58333C0.7125 0 0 0.7125 0 1.58333V10.2917H1.58333C1.58333 11.6058 2.64417 12.6667 3.95833 12.6667C5.2725 12.6667 6.33333 11.6058 6.33333 10.2917H11.0833C11.0833 11.6058 12.1442 12.6667 13.4583 12.6667C14.7725 12.6667 15.8333 11.6058 15.8333 10.2917H17.4167V6.33333L15.0417 3.16667ZM3.95833 11.4792C3.30125 11.4792 2.77083 10.9488 2.77083 10.2917C2.77083 9.63458 3.30125 9.10417 3.95833 9.10417C4.61542 9.10417 5.14583 9.63458 5.14583 10.2917C5.14583 10.9488 4.61542 11.4792 3.95833 11.4792ZM14.6458 4.35417L16.1975 6.33333H12.6667V4.35417H14.6458ZM13.4583 11.4792C12.8013 11.4792 12.2708 10.9488 12.2708 10.2917C12.2708 9.63458 12.8013 9.10417 13.4583 9.10417C14.1154 9.10417 14.6458 9.63458 14.6458 10.2917C14.6458 10.9488 14.1154 11.4792 13.4583 11.4792Z" fill="#0075FF"/>
</svg>
