<svg width="37" height="51" viewBox="0 0 37 51" fill="none" xmlns="http://www.w3.org/2000/svg">
<path d="M36.425 18.1591C36.425 8.10038 28.3008 0 18.2125 0C8.1242 0 0 8.10038 0 18.1591C0 28.2178 18.2125 47 18.2125 47C18.2125 47 36.425 28.2178 36.425 18.1591ZM9.73119 17.803C9.73119 13.1742 13.5701 9.34659 18.2125 9.34659C22.8549 9.34659 26.6938 13.0852 26.6938 17.803C26.6938 22.4318 22.9442 26.2595 18.2125 26.2595C13.5701 26.2595 9.73119 22.4318 9.73119 17.803Z" fill="#FD0A5A"/>
<path d="M18.2109 1.5C27.3515 1.5 34.7109 8.85948 34.7109 18C34.7109 20.2263 33.6984 23.0003 32.1143 25.9551C30.538 28.8952 28.4302 31.9529 26.3135 34.7285C24.1982 37.5022 22.0814 39.9841 20.4932 41.7734C19.6993 42.6679 19.0377 43.3891 18.5752 43.8857C18.4353 44.036 18.3126 44.1647 18.2109 44.2725C18.1093 44.1647 17.9866 44.036 17.8467 43.8857C17.3842 43.3891 16.7226 42.6679 15.9287 41.7734C14.3405 39.9841 12.2236 37.5022 10.1084 34.7285C7.99168 31.9529 5.8839 28.8952 4.30762 25.9551C2.72346 23.0003 1.71094 20.2263 1.71094 18C1.71094 8.85948 9.07041 1.5 18.2109 1.5ZM18.2109 9.25C13.6015 9.25 9.79395 13.0575 9.79395 17.667C9.79412 22.2763 13.6016 26.083 18.2109 26.083C22.9071 26.083 26.6278 22.2729 26.6279 17.667C26.6279 12.9708 22.817 9.25 18.2109 9.25Z" fill="#FD0A5A" stroke="white"/>
<circle cx="18.2141" cy="17.6242" r="9.9875" fill="#FD0A5A"/>
<path d="M19.9789 25V20.314L21.1889 21.348H17.6469C16.2243 21.348 14.9923 21.1207 13.9509 20.666C12.9243 20.1967 12.1323 19.5293 11.5749 18.664C11.0176 17.7987 10.7389 16.7647 10.7389 15.562C10.7389 14.33 11.0249 13.274 11.5969 12.394C12.1836 11.4993 13.0123 10.81 14.0829 10.326C15.1536 9.842 16.4149 9.6 17.8669 9.6H25.0829V25H19.9789ZM10.8049 25L14.6769 19.39H19.8469L16.2389 25H10.8049ZM19.9789 18.686V12.35L21.1889 13.604H17.9549C17.2949 13.604 16.7963 13.758 16.4589 14.066C16.1363 14.374 15.9749 14.8433 15.9749 15.474C15.9749 16.1193 16.1436 16.6107 16.4809 16.948C16.8183 17.2707 17.3096 17.432 17.9549 17.432H21.1889L19.9789 18.686Z" fill="white"/>
<ellipse cx="18.2109" cy="49.5" rx="6" ry="1.5" fill="#FD0A5A"/>
</svg>
