<svg width="18" height="17" viewBox="0 0 18 17" fill="none" xmlns="http://www.w3.org/2000/svg">
<path d="M9.464 12.1336C9.17075 11.8557 8.82861 11.6422 8.45496 11.5091L7.67166 8.45882L17.0006 5.84908L18 9.74376L9.464 12.1336ZM6.49412 3.87345L12.7136 2.13384L13.7137 6.0298L7.4948 7.76941L6.49412 3.87345ZM6.77323 11.4506C6.59959 11.4994 6.43817 11.5689 6.28125 11.6454L3.53903 0.960163H2.50749C2.40394 1.18589 2.18722 1.34474 1.93126 1.34474H0.643753C0.288113 1.34474 0 1.04312 0 0.67205C0 0.300975 0.288113 0 0.643753 0H1.93126C2.14734 0 2.3287 0.118332 2.44575 0.28747H4.42652V0.320269L4.45611 0.311265L7.29222 11.3618C7.11923 11.3779 6.94623 11.403 6.77323 11.4506ZM6.9398 12.1001C8.14177 11.7638 9.37718 12.5085 9.69938 13.7645C10.0216 15.0192 9.30837 16.3093 8.10576 16.6456C6.90378 16.9807 5.66837 16.2359 5.34617 14.9812C5.02397 13.7265 5.73783 12.4365 6.9398 12.1001ZM6.60088 14.6745C6.7385 15.2121 7.26843 15.5311 7.78356 15.3864C8.29869 15.2417 8.60417 14.6893 8.46654 14.1516C8.32891 13.614 7.79899 13.295 7.28386 13.4384C6.76809 13.5831 6.46261 14.1362 6.60088 14.6745ZM17.9196 12.0294L10.4055 14.1311C10.392 13.9516 10.3669 13.7703 10.3206 13.5896C10.275 13.4088 10.2087 13.2391 10.1348 13.0757L17.6096 10.9856L17.9196 12.0294Z" fill="#0075FF"/>
</svg>
