<svg width="18" height="18" viewBox="0 0 18 18" fill="none" xmlns="http://www.w3.org/2000/svg">
<path d="M8.73962 17.4475C8.65021 17.4473 8.56206 17.4263 8.48213 17.3863L0.319841 13.3138C0.223674 13.2659 0.142788 13.1921 0.086283 13.1007C0.029778 13.0093 -0.000103609 12.9039 2.69916e-07 12.7965V4.65037C0.000111082 4.54312 0.0300937 4.43802 0.0865867 4.34686C0.14308 4.2557 0.22385 4.18207 0.319841 4.13424L8.48213 0.0606006C8.56211 0.0207447 8.65025 0 8.73962 0C8.82898 0 8.91712 0.0207447 8.99711 0.0606006L17.1594 4.13424C17.2554 4.18207 17.3362 4.2557 17.3926 4.34686C17.4491 4.43802 17.4791 4.54312 17.4792 4.65037V12.7965C17.4793 12.9039 17.4495 13.0093 17.393 13.1007C17.3364 13.1921 17.2556 13.2659 17.1594 13.3138L8.99711 17.3863C8.91717 17.4263 8.82903 17.4473 8.73962 17.4475ZM1.15466 12.4397L8.73962 16.2247L16.3246 12.4397V5.01293L8.73962 1.22219L1.15466 5.01293V12.4397Z" fill="white"/>
<path d="M8.74135 9.28511C8.65203 9.28529 8.56389 9.26473 8.48386 9.22507L0.32273 5.1676C0.184925 5.09946 0.0798307 4.97937 0.0305677 4.83375C-0.0186953 4.68812 -0.0080919 4.5289 0.0600453 4.39109C0.128183 4.25328 0.248272 4.14819 0.393895 4.09893C0.539519 4.04966 0.698748 4.06027 0.836554 4.1284L8.74135 8.05425L16.6461 4.1284C16.7144 4.09467 16.7886 4.0747 16.8645 4.06964C16.9405 4.06458 17.0167 4.07453 17.0888 4.09893C17.1609 4.12332 17.2275 4.16168 17.2848 4.21181C17.3421 4.26193 17.3889 4.32286 17.4227 4.39109C17.4564 4.45932 17.4764 4.53354 17.4814 4.60949C17.4865 4.68544 17.4765 4.76164 17.4521 4.83375C17.4277 4.90585 17.3894 4.97245 17.3393 5.02973C17.2891 5.08701 17.2282 5.13386 17.16 5.1676L8.99884 9.22507C8.91881 9.26473 8.83067 9.28529 8.74135 9.28511Z" fill="white"/>
<path d="M12.8195 7.25582C12.7305 7.25581 12.6428 7.23526 12.5631 7.19577L4.40086 3.1383C4.26305 3.07016 4.15796 2.95007 4.10869 2.80445C4.05943 2.65883 4.07003 2.4996 4.13817 2.36179C4.20631 2.22399 4.3264 2.11889 4.47202 2.06963C4.61764 2.02037 4.77687 2.03097 4.91468 2.09911L13.077 6.16697C13.1937 6.22484 13.2875 6.32052 13.343 6.43844C13.3985 6.55637 13.4124 6.6896 13.3826 6.81646C13.3527 6.94332 13.2809 7.05636 13.1786 7.13718C13.0764 7.218 12.9498 7.26184 12.8195 7.26159V7.25582Z" fill="white"/>
<path d="M8.74139 17.4478C8.58827 17.4478 8.44143 17.387 8.33316 17.2787C8.22489 17.1704 8.16406 17.0236 8.16406 16.8705V8.70819C8.16406 8.55507 8.22489 8.40823 8.33316 8.29995C8.44143 8.19168 8.58827 8.13086 8.74139 8.13086C8.89451 8.13086 9.04136 8.19168 9.14963 8.29995C9.2579 8.40823 9.31872 8.55507 9.31872 8.70819V16.8705C9.31872 17.0236 9.2579 17.1704 9.14963 17.2787C9.04136 17.387 8.89451 17.4478 8.74139 17.4478Z" fill="white"/>
</svg>
