<svg width="21" height="21" viewBox="0 0 21 21" fill="none" xmlns="http://www.w3.org/2000/svg">
<path fill-rule="evenodd" clip-rule="evenodd" d="M1 1.58333C1 1.26117 1.30329 1 1.67742 1H14.3226C14.6967 1 15 1.26117 15 1.58333V7.41667C15 7.73883 14.6967 8 14.3226 8H1.67742C1.30329 8 1 7.73883 1 7.41667V1.58333ZM2.35484 2.16667V6.83333H13.6452V2.16667H2.35484Z" fill="#3E6897"/>
<path fill-rule="evenodd" clip-rule="evenodd" d="M13.7908 3.75C13.7908 3.33579 14.139 3 14.5686 3H19.2222C19.6518 3 20 3.33579 20 3.75V11.8007C20 12.1778 19.7097 12.4962 19.3218 12.5445L7.55556 14.0096V19.25C7.55556 19.6642 7.20733 20 6.77778 20C6.34822 20 6 19.6642 6 19.25V13.3502C6 12.9731 6.29035 12.6547 6.67817 12.6064L18.4444 11.1413V4.5H14.5686C14.139 4.5 13.7908 4.16421 13.7908 3.75Z" fill="#3E6897"/>
</svg>
