<svg width="20" height="20" viewBox="0 0 20 20" fill="none" xmlns="http://www.w3.org/2000/svg">
<path d="M9.74921 0.25H5.63288C5.45802 0.25 5.31624 0.391777 5.31624 0.56664V2.78312H0.56664C0.391777 2.78312 0.25 2.9249 0.25 3.09976V18.9318C0.25 19.1066 0.391777 19.2484 0.56664 19.2484H9.74921C9.92407 19.2484 10.0658 19.1066 10.0658 18.9318V0.56664C10.0658 0.391777 9.92407 0.25 9.74921 0.25ZM9.43257 16.7153H5.94952V16.082H9.43257V16.7153ZM0.88328 4.9996H5.31624V14.4988H0.88328V4.9996ZM9.43257 3.73304H5.94952V2.78312H9.43257V3.73304ZM0.88328 15.1321H5.31624V16.082H0.88328V15.1321ZM5.94952 15.4487V4.36632H9.43257V15.4487H5.94952ZM9.43257 0.88328V2.14984H5.94952V0.88328H9.43257ZM5.31624 3.4164V4.36632H0.88328V3.4164H5.31624ZM0.88328 16.7153H5.31624V18.6151H0.88328V16.7153ZM5.94952 18.6151V17.3486H9.43257V18.6151H5.94952Z" fill="#3E6897" stroke="#3E6897" stroke-width="0.5"/>
<path d="M19.235 17.5874L15.4353 3.02196C15.4141 2.94033 15.3612 2.8706 15.2882 2.82808C15.2154 2.78572 15.1287 2.77412 15.0472 2.79592L10.2976 4.06248C10.1294 4.10732 10.0289 4.27956 10.0728 4.44808L13.8725 19.0135C13.8937 19.0952 13.9467 19.1649 14.0197 19.2073C14.0925 19.2495 14.1792 19.2609 14.2606 19.239L19.0102 17.9724C19.1781 17.9276 19.2784 17.7556 19.235 17.5874ZM11.2696 6.52711L15.4074 5.42397L15.5563 5.99387L11.4188 7.0987L11.2696 6.52711ZM15.7162 6.60828L17.5527 13.6528L13.4164 14.7564L11.5799 7.71142L15.7162 6.60828ZM17.7139 14.2658L18.0381 15.5084L13.9003 16.6115L13.5773 15.3694L17.7139 14.2658ZM14.9028 3.48966L15.2476 4.81157L11.1098 5.9144L10.7653 4.5931L14.9028 3.48966ZM14.405 18.5458L14.0602 17.2239L18.198 16.1205L18.5425 17.4418L14.405 18.5458Z" fill="#3E6897" stroke="#3E6897" stroke-width="0.5"/>
<path d="M4.36539 5.95117H1.83227C1.6574 5.95117 1.51562 6.09295 1.51562 6.26781V8.80093C1.51562 8.9758 1.6574 9.11757 1.83227 9.11757H4.36539C4.54025 9.11757 4.68203 8.9758 4.68203 8.80093V6.26781C4.68203 6.09295 4.54025 5.95117 4.36539 5.95117ZM4.04875 8.48429H2.14891V6.58445H4.04875V8.48429Z" fill="#3E6897" stroke="#3E6897" stroke-width="0.5"/>
</svg>
