<svg width="21" height="21" viewBox="0 0 21 21" fill="none" xmlns="http://www.w3.org/2000/svg">
<path fill-rule="evenodd" clip-rule="evenodd" d="M10.5 2.32558C5.98539 2.32558 2.32558 5.98539 2.32558 10.5C2.32558 15.0146 5.98539 18.6744 10.5 18.6744C15.0146 18.6744 18.6744 15.0146 18.6744 10.5C18.6744 5.98539 15.0146 2.32558 10.5 2.32558ZM1 10.5C1 5.25329 5.25329 1 10.5 1C15.7467 1 20 5.25329 20 10.5C20 15.7467 15.7467 20 10.5 20C5.25329 20 1 15.7467 1 10.5Z" fill="#3E6897"/>
<path fill-rule="evenodd" clip-rule="evenodd" d="M13.7205 2.37973C13.9351 2.67627 13.8687 3.09064 13.5722 3.30524L11.185 5.03286V6.29887L14.0519 8.55805L15.325 8.04209L16.3641 5.23473C16.4911 4.89144 16.8724 4.71615 17.2157 4.84321C17.559 4.97027 17.7343 5.35156 17.6072 5.69485L16.4666 8.77655C16.4019 8.9513 16.2667 9.09076 16.094 9.16075L14.193 9.93117C13.9724 10.0206 13.7207 9.98482 13.5338 9.83749L10.1119 7.14101C9.95245 7.01533 9.85938 6.82348 9.85938 6.62042V4.69437C9.85938 4.48177 9.96136 4.28207 10.1336 4.15743L12.795 2.23137C13.0916 2.01677 13.5059 2.08319 13.7205 2.37973Z" fill="#3E6897"/>
<path fill-rule="evenodd" clip-rule="evenodd" d="M7.32653 2.37973C7.54113 2.08319 7.9555 2.01677 8.25204 2.23137L10.9135 4.15743C11.0857 4.28207 11.1877 4.48177 11.1877 4.69437V6.62042C11.1877 6.82348 11.0946 7.01533 10.9351 7.14101L7.51328 9.83749C7.32632 9.98482 7.07472 10.0206 6.85411 9.93117L4.95308 9.16075C4.78039 9.09076 4.64513 8.9513 4.58044 8.77655L3.43983 5.69485C3.31277 5.35156 3.48806 4.97027 3.83134 4.84321C4.17463 4.71615 4.55593 4.89144 4.68299 5.23473L5.72207 8.04209L6.9952 8.55805L9.86211 6.29887V5.03286L7.47489 3.30524C7.17835 3.09064 7.11192 2.67627 7.32653 2.37973Z" fill="#3E6897"/>
<path fill-rule="evenodd" clip-rule="evenodd" d="M4.95104 7.93765C5.11424 7.86679 5.29907 7.86451 5.46396 7.93134L7.36499 8.70176C7.55737 8.77973 7.70211 8.94331 7.75606 9.14375L8.89668 13.3811C8.94926 13.5764 8.90975 13.7851 8.78938 13.9477L7.64877 15.4885C7.52377 15.6574 7.32613 15.757 7.11605 15.757H3.6942C3.32815 15.757 3.03141 15.4603 3.03141 15.0942C3.03141 14.7282 3.32815 14.4314 3.6942 14.4314H6.78205L7.53342 13.4164L6.5617 9.80652L5.22387 9.26434L2.81757 10.3092C2.4818 10.455 2.09143 10.301 1.94563 9.96522C1.79984 9.62946 1.95384 9.23908 2.2896 9.09329L4.95104 7.93765Z" fill="#3E6897"/>
<path fill-rule="evenodd" clip-rule="evenodd" d="M7.70819 13.1591C7.83319 12.9902 8.03083 12.8906 8.24091 12.8906H12.8034C13.0135 12.8906 13.2111 12.9902 13.3361 13.1591L14.4767 14.6999C14.5612 14.814 14.6068 14.9523 14.6068 15.0943V17.7907C14.6068 18.1568 14.31 18.4535 13.944 18.4535C13.5779 18.4535 13.2812 18.1568 13.2812 17.7907V15.3129L12.4694 14.2162H8.5749L7.76308 15.3129V17.7907C7.76308 18.1568 7.46634 18.4535 7.10029 18.4535C6.73424 18.4535 6.4375 18.1568 6.4375 17.7907V15.0943C6.4375 14.9523 6.4831 14.814 6.56758 14.6999L7.70819 13.1591Z" fill="#3E6897"/>
<path fill-rule="evenodd" clip-rule="evenodd" d="M15.5961 7.93134C15.7737 7.85938 15.9737 7.86777 16.1446 7.95435L19.1862 9.4952C19.5128 9.66062 19.6434 10.0594 19.478 10.386C19.3125 10.7125 18.9137 10.8431 18.5872 10.6777L15.8145 9.27313L14.4984 9.80652L13.5267 13.4164L14.278 14.4314H17.3659C17.7319 14.4314 18.0287 14.7282 18.0287 15.0942C18.0287 15.4603 17.7319 15.757 17.3659 15.757H13.944C13.734 15.757 13.5363 15.6574 13.4113 15.4885L12.2707 13.9477C12.1503 13.7851 12.1108 13.5764 12.1634 13.3811L13.304 9.14375C13.358 8.94331 13.5027 8.77973 13.6951 8.70176L15.5961 7.93134Z" fill="#3E6897"/>
</svg>
