<svg width="21" height="21" viewBox="0 0 21 21" fill="none" xmlns="http://www.w3.org/2000/svg">
<path d="M6.56736 7.34985C7.58222 7.34985 8.40492 8.17253 8.40492 9.18735V19.1625C8.40492 20.1773 7.58222 21 6.56736 21H1.83756C0.822703 21 0 20.1773 0 19.1625V9.18735C0 8.17253 0.822703 7.34985 1.83756 7.34985H6.56736ZM6.56736 8.92485H1.83756C1.69258 8.92485 1.57505 9.04238 1.57505 9.18735V19.1625C1.57505 19.3075 1.69258 19.425 1.83756 19.425H6.56736C6.71234 19.425 6.82987 19.3075 6.82987 19.1625V9.18735C6.82987 9.04238 6.71234 8.92485 6.56736 8.92485ZM4.46198 16.8C4.89692 16.8 5.24951 17.1526 5.24951 17.5875C5.24951 17.9862 4.95324 18.3157 4.56884 18.3678L4.46198 18.375H3.93697C3.50203 18.375 3.14944 18.0224 3.14944 17.5875C3.14944 17.1888 3.44571 16.8593 3.8301 16.8072L3.93697 16.8H4.46198ZM18.6374 0C19.8879 0 20.9114 0.97142 20.9946 2.20075L21 2.3625V11.8125C21 13.0629 20.0286 14.0864 18.7992 14.1695L18.6374 14.175H14.704V16.275H16.0123C16.4473 16.275 16.7999 16.6276 16.7999 17.0625C16.7999 17.4612 16.5036 17.7907 16.1192 17.8428L16.0123 17.85H9.44964V16.275H13.129V14.175H9.44964V12.6H18.6374C19.0361 12.6 19.3656 12.3037 19.4178 11.9194L19.425 11.8125V2.3625C19.425 1.92758 19.0724 1.575 18.6374 1.575H4.46198C4.06329 1.575 3.73379 1.87126 3.68165 2.25564L3.67446 2.3625V6.3H2.09941V2.3625C2.09941 1.11209 3.07086 0.0885729 4.30023 0.00545039L4.46198 0H18.6374Z" fill="#3E6897"/>
</svg>
