<svg width="15" height="13" viewBox="0 0 15 13" fill="none" xmlns="http://www.w3.org/2000/svg">
<g clip-path="url(#clip0_1883_19796)">
<path fill-rule="evenodd" clip-rule="evenodd" d="M13.9425 3.0875C13.8694 2.71375 13.5363 2.4375 13.1462 2.4375H1.47875C1.08875 2.4375 0.755625 2.71375 0.6825 3.0875L0 6.5V7.3125C0 7.75938 0.365625 8.125 0.8125 8.125V12.1875C0.8125 12.6344 1.17813 13 1.625 13H8.125C8.57187 13 8.9375 12.6344 8.9375 12.1875V8.125H12.1875V12.1875C12.1875 12.6344 12.5531 13 13 13C13.4469 13 13.8125 12.6344 13.8125 12.1875V8.125C14.2594 8.125 14.625 7.75938 14.625 7.3125V6.5L13.9425 3.0875ZM7.3125 11.375H2.4375V8.125H7.3125V11.375ZM1.625 1.625H13C13.4469 1.625 13.8125 1.25937 13.8125 0.8125C13.8125 0.365625 13.4469 0 13 0H1.625C1.17813 0 0.8125 0.365625 0.8125 0.8125C0.8125 1.25937 1.17813 1.625 1.625 1.625Z" fill="#0075FF"/>
</g>
<defs>
<clipPath id="clip0_1883_19796">
<rect width="14.625" height="13" fill="white"/>
</clipPath>
</defs>
</svg>
