<svg width="189" height="45" viewBox="0 0 189 45" fill="none" xmlns="http://www.w3.org/2000/svg">
<path d="M189 15.5682C189 11.9299 186.1 9 182.5 9C178.9 9 176 11.9299 176 15.5682C176 19.2064 182.5 26 182.5 26C182.5 26 189 19.2064 189 15.5682ZM179.473 15.4394C179.473 13.7652 180.843 12.3807 182.5 12.3807C184.157 12.3807 185.527 13.733 185.527 15.4394C185.527 17.1136 184.189 18.4981 182.5 18.4981C180.843 18.4981 179.473 17.1136 179.473 15.4394Z" fill="#FD0A5A"/>
<path d="M13 15.5682C13 11.9299 10.1005 9 6.5 9C2.89951 9 0 11.9299 0 15.5682C0 19.2064 6.5 26 6.5 26C6.5 26 13 19.2064 13 15.5682ZM3.47304 15.4394C3.47304 13.7652 4.84314 12.3807 6.5 12.3807C8.15686 12.3807 9.52696 13.733 9.52696 15.4394C9.52696 17.1136 8.18872 18.4981 6.5 18.4981C4.84314 18.4981 3.47304 17.1136 3.47304 15.4394Z" fill="#0075FF"/>
<circle cx="6" cy="36" r="3" fill="#0075FF"/>
<circle cx="21" cy="36" r="1" fill="#0075FF"/>
<circle cx="13" cy="36" r="1" fill="#0075FF"/>
<circle cx="29" cy="36" r="1" fill="#0075FF"/>
<circle cx="25" cy="36" r="1" fill="#0075FF"/>
<circle cx="17" cy="36" r="1" fill="#0075FF"/>
<circle cx="33" cy="36" r="1" fill="#0075FF"/>
<circle cx="37" cy="36" r="1" fill="#0075FF"/>
<circle cx="45" cy="36" r="1" fill="#0075FF"/>
<circle cx="41" cy="36" r="1" fill="#0075FF"/>
<circle cx="49" cy="36" r="1" fill="#0075FF"/>
<circle cx="53" cy="36" r="1" fill="#0075FF"/>
<circle cx="61" cy="36" r="1" fill="#0075FF"/>
<circle cx="57" cy="36" r="1" fill="#0075FF"/>
<circle cx="65" cy="36" r="1" fill="#0075FF"/>
<circle cx="69" cy="36" r="1" fill="#0075FF"/>
<circle cx="77" cy="36" r="1" fill="#0075FF"/>
<circle cx="73" cy="36" r="1" fill="#0075FF"/>
<circle cx="81" cy="36" r="1" fill="#0075FF"/>
<circle cx="85" cy="36" r="1" fill="#0075FF"/>
<circle cx="93" cy="36" r="1" fill="#0075FF"/>
<circle cx="89" cy="36" r="1" fill="#0075FF"/>
<circle cx="97" cy="36" r="1" fill="#0075FF"/>
<circle cx="101" cy="36" r="1" fill="#0075FF"/>
<circle cx="109" cy="36" r="1" fill="#0075FF"/>
<circle cx="105" cy="36" r="1" fill="#0075FF"/>
<circle cx="113" cy="36" r="1" fill="#0075FF"/>
<circle cx="117" cy="36" r="1" fill="#0075FF"/>
<circle cx="125" cy="36" r="1" fill="#0075FF"/>
<circle cx="121" cy="36" r="1" fill="#0075FF"/>
<circle cx="129" cy="36" r="1" fill="#0075FF"/>
<circle cx="133" cy="36" r="1" fill="#0075FF"/>
<circle cx="141" cy="36" r="1" fill="#0075FF"/>
<circle cx="149" cy="36" r="1" fill="#0075FF"/>
<circle cx="137" cy="36" r="1" fill="#0075FF"/>
<circle cx="145" cy="36" r="1" fill="#0075FF"/>
<circle cx="153" cy="36" r="1" fill="#0075FF"/>
<circle cx="157" cy="36" r="1" fill="#0075FF"/>
<circle cx="169" cy="36" r="1" fill="#0075FF"/>
<circle cx="161" cy="36" r="1" fill="#0075FF"/>
<circle cx="173" cy="36" r="1" fill="#0075FF"/>
<circle cx="165" cy="36" r="1" fill="#0075FF"/>
<circle cx="177" cy="36" r="1" fill="#0075FF"/>
<circle cx="183" cy="36" r="3" fill="#FD0A5A"/>
</svg>
