<svg width="17" height="17" viewBox="0 0 17 17" fill="none" xmlns="http://www.w3.org/2000/svg">
<path d="M13.0996 3.75098C13.2374 3.74473 13.3733 3.78419 13.4863 3.86328C13.5993 3.94242 13.6834 4.05684 13.7246 4.18848L16.0869 11.7881C16.2484 12.3043 16.2855 12.8515 16.1953 13.3848C16.1052 13.9179 15.8904 14.4221 15.5684 14.8564C15.2514 15.2927 14.8342 15.6472 14.3525 15.8896C13.8709 16.132 13.338 16.2563 12.7988 16.251H3.42383C2.90256 16.2508 2.38817 16.1314 1.91992 15.9023C1.45144 15.6731 1.04083 15.3395 0.720703 14.9277C0.400722 14.5161 0.17893 14.0367 0.0722656 13.5264C-0.0344005 13.0158 -0.0230197 12.4869 0.105469 11.9814L2.00586 4.22559C2.0401 4.08697 2.12069 3.96433 2.23438 3.87793C2.34808 3.79153 2.48811 3.74682 2.63086 3.75098H13.0996ZM1.29297 12.2822C1.21261 12.6034 1.20641 12.9387 1.27441 13.2627C1.34246 13.5867 1.48276 13.8916 1.68555 14.1533C1.88835 14.415 2.14854 14.6266 2.44531 14.7734C2.74212 14.9203 3.06828 14.9986 3.39941 15.001H12.7744C13.1145 15.0015 13.4498 14.9209 13.7529 14.7666C14.0559 14.6124 14.3179 14.3885 14.5176 14.1133C14.723 13.8364 14.8604 13.5147 14.918 13.1748C14.9755 12.835 14.9524 12.4862 14.8496 12.1572L12.6494 5.00098H3.09961L1.29297 12.2822Z" fill="#3E6897"/>
<path d="M13.0996 3.75098C13.2374 3.74473 13.3733 3.78419 13.4863 3.86328C13.5993 3.94242 13.6834 4.05684 13.7246 4.18848L16.0869 11.7881C16.2484 12.3043 16.2855 12.8515 16.1953 13.3848C16.1052 13.9179 15.8904 14.4221 15.5684 14.8564C15.2514 15.2927 14.8342 15.6472 14.3525 15.8896C13.8709 16.132 13.338 16.2563 12.7988 16.251H3.42383C2.90256 16.2508 2.38817 16.1314 1.91992 15.9023C1.45144 15.6731 1.04083 15.3395 0.720703 14.9277C0.400722 14.5161 0.17893 14.0367 0.0722656 13.5264C-0.0344005 13.0158 -0.0230197 12.4869 0.105469 11.9814L2.00586 4.22559C2.0401 4.08697 2.12069 3.96433 2.23438 3.87793C2.34808 3.79153 2.48811 3.74682 2.63086 3.75098H13.0996ZM1.29297 12.2822C1.21261 12.6034 1.20641 12.9387 1.27441 13.2627C1.34246 13.5867 1.48276 13.8916 1.68555 14.1533C1.88835 14.415 2.14854 14.6266 2.44531 14.7734C2.74212 14.9203 3.06828 14.9986 3.39941 15.001H12.7744C13.1145 15.0015 13.4498 14.9209 13.7529 14.7666C14.0559 14.6124 14.3179 14.3885 14.5176 14.1133C14.723 13.8364 14.8604 13.5147 14.918 13.1748C14.9755 12.835 14.9524 12.4862 14.8496 12.1572L12.6494 5.00098H3.09961L1.29297 12.2822Z" stroke="white"/>
<path d="M8.10156 0C8.93036 0 9.72547 0.328988 10.3115 0.915039C10.8976 1.50109 11.2266 2.2962 11.2266 3.125V8.125C11.2266 8.29076 11.1612 8.45017 11.0439 8.56738C10.9267 8.68459 10.7673 8.75 10.6016 8.75C10.4358 8.75 10.2764 8.68459 10.1592 8.56738C10.042 8.45017 9.97656 8.29076 9.97656 8.125V3.125C9.97656 2.62772 9.77937 2.15046 9.42773 1.79883C9.0761 1.4472 8.59884 1.25 8.10156 1.25C7.60428 1.25 7.12702 1.4472 6.77539 1.79883C6.42376 2.15046 6.22656 2.62772 6.22656 3.125V8.125C6.22656 8.29076 6.16116 8.45017 6.04395 8.56738C5.92674 8.68459 5.76732 8.75 5.60156 8.75C5.4358 8.75 5.27639 8.68459 5.15918 8.56738C5.04197 8.45017 4.97656 8.29076 4.97656 8.125V3.125C4.97656 2.2962 5.30555 1.50109 5.8916 0.915039C6.47765 0.328988 7.27276 0 8.10156 0Z" fill="#3E6897"/>
<path d="M8.10156 0C8.93036 0 9.72547 0.328988 10.3115 0.915039C10.8976 1.50109 11.2266 2.2962 11.2266 3.125V8.125C11.2266 8.29076 11.1612 8.45017 11.0439 8.56738C10.9267 8.68459 10.7673 8.75 10.6016 8.75C10.4358 8.75 10.2764 8.68459 10.1592 8.56738C10.042 8.45017 9.97656 8.29076 9.97656 8.125V3.125C9.97656 2.62772 9.77937 2.15046 9.42773 1.79883C9.0761 1.4472 8.59884 1.25 8.10156 1.25C7.60428 1.25 7.12702 1.4472 6.77539 1.79883C6.42376 2.15046 6.22656 2.62772 6.22656 3.125V8.125C6.22656 8.29076 6.16116 8.45017 6.04395 8.56738C5.92674 8.68459 5.76732 8.75 5.60156 8.75C5.4358 8.75 5.27639 8.68459 5.15918 8.56738C5.04197 8.45017 4.97656 8.29076 4.97656 8.125V3.125C4.97656 2.2962 5.30555 1.50109 5.8916 0.915039C6.47765 0.328988 7.27276 0 8.10156 0Z" stroke="white"/>
</svg>
