<svg width="40" height="40" viewBox="0 0 40 40" fill="none" xmlns="http://www.w3.org/2000/svg">
<rect width="40" height="40" fill="white"/>
<path d="M0 20C0 8.95431 8.95431 0 20 0C31.0457 0 40 8.95431 40 20V40H20C8.95431 40 0 31.0457 0 20Z" fill="#F3F8FF"/>
<path fill-rule="evenodd" clip-rule="evenodd" d="M21.35 19.0093V15.25C21.35 14.7808 20.9692 14.4 20.5 14.4C20.0308 14.4 19.65 14.7808 19.65 15.25V19.4905C19.6485 19.6405 19.6868 19.7887 19.7605 19.9192C19.8433 20.0599 19.9526 20.1672 20.0832 20.2409L23.7556 22.3611C24.1619 22.5957 24.6821 22.4563 24.9167 22.05C25.1513 21.6437 25.0119 21.1235 24.6056 20.8889L21.35 19.0093ZM20.5 11C25.1945 11 29 14.8055 29 19.5C29 24.1945 25.1945 28 20.5 28C15.8055 28 12 24.1945 12 19.5C12 14.8055 15.8055 11 20.5 11Z" fill="#3E6897"/>
</svg>
