<svg width="40" height="40" viewBox="0 0 40 40" fill="none" xmlns="http://www.w3.org/2000/svg">
<path d="M0 20C0 8.95431 8.95431 0 20 0C31.0457 0 40 8.95431 40 20V40H20C8.95431 40 0 31.0457 0 20Z" fill="#F3F8FF"/>
<path d="M26.1364 18.0682C26.1364 14.4299 23.2064 11.5 19.5682 11.5C15.9299 11.5 13 14.4299 13 18.0682C13 21.7064 19.5682 28.5 19.5682 28.5C19.5682 28.5 26.1364 21.7064 26.1364 18.0682ZM16.5095 17.9394C16.5095 16.2652 17.8939 14.8807 19.5682 14.8807C21.2424 14.8807 22.6269 16.233 22.6269 17.9394C22.6269 19.6136 21.2746 20.9981 19.5682 20.9981C17.8939 20.9981 16.5095 19.6136 16.5095 17.9394Z" fill="#3E6897"/>
</svg>
