<svg width="37" height="61" viewBox="0 0 37 61" fill="none" xmlns="http://www.w3.org/2000/svg">
<circle cx="18.5" cy="49.5" r="9.5" fill="white" stroke="#0075FF" stroke-width="4"/>
<path d="M36.425 18.1591C36.425 8.10038 28.3008 0 18.2125 0C8.1242 0 0 8.10038 0 18.1591C0 28.2178 18.2125 47 18.2125 47C18.2125 47 36.425 28.2178 36.425 18.1591ZM9.73119 17.803C9.73119 13.1742 13.5701 9.34659 18.2125 9.34659C22.8549 9.34659 26.6938 13.0852 26.6938 17.803C26.6938 22.4318 22.9442 26.2595 18.2125 26.2595C13.5701 26.2595 9.73119 22.4318 9.73119 17.803Z" fill="#0075FF"/>
<path d="M18.2109 1.5C27.3515 1.5 34.7109 8.85948 34.7109 18C34.7109 20.2263 33.6984 23.0003 32.1143 25.9551C30.538 28.8952 28.4302 31.9529 26.3135 34.7285C24.1982 37.5022 22.0814 39.9841 20.4932 41.7734C19.6993 42.6679 19.0377 43.3891 18.5752 43.8857C18.4353 44.036 18.3126 44.1647 18.2109 44.2725C18.1093 44.1647 17.9866 44.036 17.8467 43.8857C17.3842 43.3891 16.7226 42.6679 15.9287 41.7734C14.3405 39.9841 12.2236 37.5022 10.1084 34.7285C7.99168 31.9529 5.8839 28.8952 4.30762 25.9551C2.72346 23.0003 1.71094 20.2263 1.71094 18C1.71094 8.85948 9.07041 1.5 18.2109 1.5ZM18.2109 9.25C13.6015 9.25 9.79395 13.0575 9.79395 17.667C9.79412 22.2763 13.6016 26.083 18.2109 26.083C22.9071 26.083 26.6278 22.2729 26.6279 17.667C26.6279 12.9708 22.817 9.25 18.2109 9.25Z" fill="#66C638" stroke="white"/>
<circle cx="18.2141" cy="17.6242" r="9.9875" fill="#66C638"/>
<g clip-path="url(#clip0_1925_34954)">
<path fill-rule="evenodd" clip-rule="evenodd" d="M24.0794 16.0875C24.0108 15.7138 23.6983 15.4375 23.3324 15.4375H12.3872C12.0214 15.4375 11.7088 15.7138 11.6402 16.0875L11 19.5V20.3125C11 20.7594 11.343 21.125 11.7622 21.125V25.1875C11.7622 25.6344 12.1052 26 12.5244 26H18.622C19.0412 26 19.3842 25.6344 19.3842 25.1875V21.125H22.433V25.1875C22.433 25.6344 22.776 26 23.1952 26C23.6144 26 23.9574 25.6344 23.9574 25.1875V21.125C24.3767 21.125 24.7196 20.7594 24.7196 20.3125V19.5L24.0794 16.0875ZM17.8598 24.375H13.2866V21.125H17.8598V24.375ZM12.5244 14.625H23.1952C23.6144 14.625 23.9574 14.2594 23.9574 13.8125C23.9574 13.3656 23.6144 13 23.1952 13H12.5244C12.1052 13 11.7622 13.3656 11.7622 13.8125C11.7622 14.2594 12.1052 14.625 12.5244 14.625Z" fill="white"/>
</g>
<circle cx="18.5" cy="49.5" r="1.5" fill="#0075FF"/>
<defs>
<clipPath id="clip0_1925_34954">
<rect width="13.7196" height="13" fill="white" transform="translate(11 13)"/>
</clipPath>
</defs>
</svg>
