<svg width="21" height="17" viewBox="0 0 21 17" fill="none" xmlns="http://www.w3.org/2000/svg">
<path d="M14.5331 12.0401C14.5321 12.0401 14.5308 12.0401 14.5298 12.0401C14.4214 12.0389 14.3215 11.9815 14.2659 11.8884L11.3108 6.92556C11.3025 6.91168 11.2955 6.89738 11.2895 6.88245C10.921 6.27746 10.7266 5.58418 10.7266 4.87348C10.7303 2.73642 12.4704 1 14.6065 1C14.6081 1 14.6096 1 14.6112 1C15.6482 1.00145 16.6217 1.40644 17.3525 2.14014C18.0828 2.87322 18.4841 3.84775 18.4826 4.88384C18.4826 5.58397 18.2891 6.27352 17.9222 6.88224C17.9152 6.90214 17.9058 6.92121 17.8944 6.93966L14.7969 11.8942C14.7397 11.9848 14.64 12.0401 14.5331 12.0401ZM11.8737 6.6555L14.5395 11.1325L17.3326 6.66504C17.3396 6.64597 17.3485 6.62732 17.3595 6.6097C17.6874 6.08595 17.8607 5.48904 17.8607 4.88364C17.8607 4.88343 17.8607 4.88343 17.8607 4.88322C17.8621 4.01273 17.5251 3.19447 16.9118 2.5787C16.2983 1.96293 15.4809 1.62302 14.6104 1.62157C14.6092 1.62157 14.6077 1.62157 14.6063 1.62157C12.8124 1.62157 11.3512 3.07965 11.3483 4.8739C11.3483 5.48614 11.5206 6.08347 11.8462 6.60079C11.8574 6.61799 11.8665 6.63643 11.8737 6.6555Z" fill="white" stroke="white" stroke-width="0.6"/>
<path d="M14.5961 6.32967C14.595 6.32967 14.594 6.32967 14.5928 6.32967C14.155 6.32967 13.7428 6.15868 13.4329 5.8482C13.1227 5.53731 12.9523 5.12445 12.9531 4.68526C12.9535 4.24753 13.1247 3.83571 13.4352 3.52606C13.7453 3.21704 14.1569 3.04688 14.5948 3.04688C14.5952 3.04688 14.5959 3.04688 14.5965 3.04688C15.5012 3.04791 16.2367 3.78534 16.2359 4.69086C16.2355 5.12922 16.0643 5.54125 15.7538 5.85089C15.444 6.15971 15.033 6.32967 14.5961 6.32967ZM14.5946 3.66866C14.3227 3.66866 14.0667 3.77436 13.8742 3.96649C13.6814 4.15862 13.5751 4.41438 13.5749 4.6863C13.5745 4.95926 13.6804 5.21585 13.8732 5.40902C14.0655 5.60177 14.3215 5.70789 14.5934 5.70789C14.594 5.70789 14.5946 5.70789 14.5955 5.70789C14.8674 5.70789 15.1225 5.60239 15.3149 5.41067C15.5076 5.21854 15.6139 4.96258 15.6141 4.69045C15.6146 4.12794 15.1578 3.66948 14.5957 3.66886C14.5955 3.66865 14.595 3.66866 14.5946 3.66866ZM15.925 4.69065H15.9271H15.925Z" fill="white" stroke="white" stroke-width="0.6"/>
<path d="M19.677 16.4504H1.05301C0.948547 16.4504 0.851135 16.3979 0.793517 16.3107C0.736106 16.2236 0.726157 16.1134 0.767195 16.0172L4.15486 8.09116C4.20377 7.97675 4.31631 7.90234 4.44067 7.90234H12.4343C12.6061 7.90234 12.7452 8.04142 12.7452 8.21323C12.7452 8.38505 12.6061 8.52412 12.4343 8.52412H4.64586L1.5239 15.8284H19.2059L16.1803 8.75045C16.1127 8.59252 16.1861 8.40992 16.344 8.34236C16.5013 8.275 16.6846 8.34795 16.7521 8.50609L19.9628 16.017C20.0038 16.1132 19.9939 16.2234 19.9365 16.3105C19.8788 16.3979 19.7814 16.4504 19.677 16.4504Z" fill="white" stroke="white" stroke-width="0.6"/>
<path d="M14.5647 16.3958C14.4088 16.3958 14.2743 16.2789 14.2563 16.1201C14.2544 16.1048 14.0559 14.5752 11.9142 14.2119C11.7151 14.1781 11.3973 14.1472 11.0292 14.1118C9.00245 13.9157 7.15369 13.6612 6.7972 12.7134C6.56715 12.102 6.90332 11.6359 7.17317 11.2613C7.46873 10.8514 7.56614 10.6723 7.41525 10.4151C7.31971 10.2522 7.01545 10.1195 6.72114 9.99125C6.14496 9.74005 5.35571 9.396 5.35157 8.45297C5.35074 8.28115 5.48939 8.14145 5.66101 8.14062C5.66142 8.14062 5.66204 8.14062 5.66246 8.14062C5.83365 8.14062 5.97252 8.27887 5.97335 8.45006C5.97563 8.95163 6.35139 9.15164 6.96985 9.42128C7.35536 9.58937 7.75392 9.76306 7.95185 10.1007C8.32181 10.7316 7.94957 11.2481 7.67785 11.6251C7.42292 11.9787 7.27204 12.2098 7.3794 12.4945C7.62915 13.1584 9.96621 13.3843 11.0894 13.4931C11.4693 13.5298 11.7974 13.5615 12.0183 13.599C14.6157 14.0399 14.8648 15.968 14.8741 16.0499C14.8936 16.2204 14.7711 16.3744 14.6005 16.3939C14.5885 16.3952 14.5765 16.3958 14.5647 16.3958Z" fill="white" stroke="white" stroke-width="0.6"/>
</svg>
