<svg width="18" height="20" viewBox="0 0 18 20" fill="none" xmlns="http://www.w3.org/2000/svg">
<path d="M17.4732 6.42642L15.7359 1.2146C15.6932 1.08638 15.5734 1 15.4383 1H3.27757C3.14246 1 3.02261 1.08638 2.97994 1.2146L1.24267 6.42642C1.232 6.45842 1.22656 6.49188 1.22656 6.52556V18.6863C1.22656 18.8594 1.36691 19 1.5403 19H17.1755C17.3487 19 17.4893 18.8594 17.4893 18.6863V6.52556C17.4893 6.49188 17.4839 6.45842 17.4732 6.42642ZM16.7825 6.33836C16.1394 6.80876 15.4203 7.03193 14.5326 7.03193C13.7292 7.03193 12.9539 6.78199 12.2777 6.31263V1.62748H15.2122L16.7825 6.33836ZM7.06586 1.62748H11.65V6.31326C10.9744 6.7822 10.1991 7.03214 9.39547 7.03214C8.56093 7.03214 7.75943 6.76212 7.06586 6.25574V1.62748ZM3.50367 1.62748H6.43838V6.25574C5.74481 6.76212 4.94352 7.03214 4.10877 7.03214C3.32212 7.03214 2.57104 6.80458 1.92076 6.37643L3.50367 1.62748ZM1.85404 18.3725V7.06916C2.53987 7.45464 3.30832 7.65962 4.10877 7.65962C5.0548 7.65962 5.9638 7.36575 6.75212 6.80709C7.54044 7.36575 8.44944 7.65962 9.39547 7.65962C10.3101 7.65962 11.1934 7.38478 11.9639 6.86251C12.7351 7.38478 13.6182 7.65962 14.5324 7.65962C15.4176 7.65962 16.1835 7.45339 16.8618 7.03904V18.3725H1.85404Z" fill="white" stroke="white" stroke-width="0.66026"/>
<path d="M12.4607 9.14062H6.26686C6.09347 9.14062 5.95312 9.28097 5.95312 9.45436V15.2123C5.95312 15.3855 6.09347 15.526 6.26686 15.526H12.4607C12.6339 15.526 12.7744 15.3855 12.7744 15.2123V9.45436C12.7744 9.28097 12.6339 9.14062 12.4607 9.14062ZM6.5806 9.7681H9.08193V14.8986H6.5806V9.7681ZM12.1469 14.8986H9.7092V9.7681H12.1467V14.8986H12.1469Z" fill="white" stroke="white" stroke-width="0.66026"/>
</svg>
