<svg width="22" height="19" viewBox="0 0 22 19" fill="none" xmlns="http://www.w3.org/2000/svg">
<path d="M20.8855 3.26507C20.8203 3.19832 20.7247 3.15992 20.6241 3.15992H4.36503L3.70206 1.21533C3.65818 1.08746 3.52403 1 3.37172 1H0.828954C0.638517 1 0.484375 1.13491 0.484375 1.30158C0.484375 1.46825 0.638517 1.60316 0.828954 1.60316H3.11489L7.3036 13.8883C7.30406 13.8898 7.30544 13.891 7.3059 13.8924L7.82621 15.4413C7.49772 15.727 7.29418 16.1225 7.29418 16.5585C7.29418 17.4291 8.10303 18.1374 9.09702 18.1374C10.0591 18.1374 10.845 17.4723 10.8934 16.6394H15.4095C15.4093 16.6504 15.4077 16.6613 15.4077 16.6725C15.4077 17.5423 16.216 18.25 17.2096 18.25C18.2031 18.25 19.0117 17.5423 19.0117 16.6725C19.0117 15.8028 18.2031 15.0951 17.2096 15.0951C16.4747 15.0951 15.8423 15.4827 15.5623 16.0362H10.7951C10.7069 15.816 10.5647 15.6136 10.3706 15.4437C10.0304 15.1459 9.57829 14.9817 9.09771 14.9817C9.09748 14.9817 9.09725 14.9817 9.09725 14.9817C8.86087 14.9817 8.63552 15.0227 8.42854 15.0955L8.09545 14.1037H18.8172C18.9874 14.1037 19.1321 13.9949 19.1576 13.8477L20.9648 3.50694C20.98 3.42008 20.951 3.33182 20.8855 3.26507ZM17.2096 15.6984C17.8232 15.6984 18.3226 16.1355 18.3226 16.6727C18.3226 17.2099 17.8232 17.647 17.2096 17.647C16.596 17.647 16.0968 17.2099 16.0968 16.6727C16.0968 16.1355 16.596 15.6984 17.2096 15.6984ZM9.09725 15.585H9.09748C9.39405 15.585 9.67293 15.6864 9.88289 15.8703C10.0931 16.0543 10.2086 16.299 10.2086 16.5589C10.2086 17.097 9.70992 17.5347 9.09679 17.5347C8.48275 17.5347 7.98311 17.097 7.98311 16.5589C7.98334 16.0219 8.48298 15.585 9.09725 15.585ZM18.521 13.5007H7.8926L7.24112 11.5609C7.23285 11.5364 7.22044 11.5141 7.2062 11.493L4.57063 3.76308H20.2228L18.521 13.5007Z" fill="white" stroke="white" stroke-width="0.646875"/>
</svg>
