<svg width="14" height="12" viewBox="0 0 14 12" fill="none" xmlns="http://www.w3.org/2000/svg">
<g clip-path="url(#clip0_1324_7243)">
<path fill-rule="evenodd" clip-rule="evenodd" d="M13.0183 2.72383C12.9533 2.40758 12.6572 2.17383 12.3106 2.17383H1.93944C1.59278 2.17383 1.29667 2.40758 1.23167 2.72383L0.625 5.61133V6.29883C0.625 6.67695 0.95 6.98633 1.34722 6.98633V10.4238C1.34722 10.802 1.67222 11.1113 2.06944 11.1113H7.84722C8.24444 11.1113 8.56944 10.802 8.56944 10.4238V6.98633H11.4583V10.4238C11.4583 10.802 11.7833 11.1113 12.1806 11.1113C12.5778 11.1113 12.9028 10.802 12.9028 10.4238V6.98633C13.3 6.98633 13.625 6.67695 13.625 6.29883V5.61133L13.0183 2.72383ZM7.125 9.73633H2.79167V6.98633H7.125V9.73633ZM2.06944 1.48633H12.1806C12.5778 1.48633 12.9028 1.17695 12.9028 0.798828C12.9028 0.420703 12.5778 0.111328 12.1806 0.111328H2.06944C1.67222 0.111328 1.34722 0.420703 1.34722 0.798828C1.34722 1.17695 1.67222 1.48633 2.06944 1.48633Z" fill="#6CABFF"/>
</g>
<defs>
<clipPath id="clip0_1324_7243">
<rect width="13" height="11" fill="white" transform="translate(0.625 0.111328)"/>
</clipPath>
</defs>
</svg>
