<svg width="16" height="15" viewBox="0 0 16 15" fill="none" xmlns="http://www.w3.org/2000/svg">
<path d="M7.93484 10.173C7.68896 9.94012 7.40211 9.7611 7.08884 9.64949L6.43209 7.09207L14.2537 4.90401L15.0916 8.16939L7.93484 10.173ZM5.44482 3.24759L10.6594 1.78906L11.4979 5.05552L6.28381 6.51405L5.44482 3.24759ZM5.67883 9.60042C5.53325 9.6414 5.39791 9.69963 5.26635 9.7638L2.96721 0.805023H2.10233C2.01552 0.994281 1.83381 1.12746 1.61921 1.12746H0.539737C0.241561 1.12746 0 0.874579 0 0.563462C0 0.252345 0.241561 0 0.539737 0H1.61921C1.80038 0 1.95244 0.0992125 2.05057 0.241022H3.7113V0.268521L3.7361 0.260972L6.11397 9.52601C5.96892 9.53949 5.82388 9.56052 5.67883 9.60042ZM5.81849 10.145C6.82625 9.86301 7.86205 10.4874 8.13218 11.5405C8.40232 12.5924 7.80435 13.6741 6.79605 13.9561C5.78829 14.237 4.75249 13.6126 4.48235 12.5606C4.21222 11.5086 4.81073 10.427 5.81849 10.145ZM5.53433 12.3034C5.64972 12.7542 6.09402 13.0216 6.52591 12.9003C6.95781 12.779 7.21393 12.3158 7.09854 11.8651C6.98315 11.4143 6.53885 11.1468 6.10696 11.2671C5.67452 11.3884 5.4184 11.8521 5.53433 12.3034ZM15.0242 10.0857L8.72422 11.8478C8.7129 11.6974 8.69187 11.5453 8.65305 11.3938C8.61477 11.2423 8.55923 11.0999 8.49722 10.963L14.7643 9.21058L15.0242 10.0857Z" fill="#6CABFF"/>
</svg>
