<svg width="21" height="21" viewBox="0 0 21 21" fill="none" xmlns="http://www.w3.org/2000/svg">
<path d="M14.5074 1C16.0804 1 17.4517 2.04152 17.8342 3.52666L18.2407 5.10882H19.2042C19.6049 5.10882 19.9361 5.39865 19.9885 5.77469L19.9957 5.87923C19.9957 6.26926 19.6979 6.59159 19.3116 6.6426L19.2042 6.64963H18.6386L18.8581 7.49862C19.5428 7.90414 20 8.63732 20 9.47445V18.2024C20 19.1952 19.1732 20 18.1532 20H16.5659C15.546 20 14.7191 19.1952 14.7191 18.2024L14.7181 16.9217H6.2808L6.28089 18.2024C6.28089 19.1952 5.45404 20 4.43408 20H2.8468C1.82684 20 1 19.1952 1 18.2024V9.47445C1 8.63744 1.45712 7.90434 2.14161 7.49879L2.3603 6.64963H1.79149C1.39079 6.64963 1.05963 6.3598 1.00723 5.98377L1 5.87923C1 5.4892 1.29776 5.16687 1.68409 5.11586L1.79149 5.10882H2.75499L3.16232 3.52873C3.54403 2.04258 4.91588 1 6.48969 1H14.5074ZM4.69783 16.9217H2.58192L2.58297 18.2024C2.58297 18.3442 2.70109 18.4592 2.8468 18.4592H4.43408C4.57979 18.4592 4.69791 18.3442 4.69791 18.2024L4.69783 16.9217ZM18.4169 16.9217H16.301L16.3021 18.2024C16.3021 18.3442 16.4202 18.4592 16.5659 18.4592H18.1532C18.2989 18.4592 18.417 18.3442 18.417 18.2024L18.4169 16.9217ZM17.6255 8.70405H3.37446C2.93734 8.70405 2.58297 9.04897 2.58297 9.47445V15.3809H18.417V9.47445C18.417 9.04897 18.0627 8.70405 17.6255 8.70405ZM8.64998 12.2993H12.3454C12.7826 12.2993 13.1369 12.6442 13.1369 13.0697C13.1369 13.4597 12.8392 13.782 12.4528 13.833L12.3454 13.8401H8.64998C8.21285 13.8401 7.85849 13.4952 7.85849 13.0697C7.85849 12.6796 8.15625 12.3573 8.54258 12.3063L8.64998 12.2993H12.3454H8.64998ZM15.7744 10.2449C16.3572 10.2449 16.8297 10.7047 16.8297 11.272C16.8297 11.8393 16.3572 12.2992 15.7744 12.2992C15.1916 12.2992 14.7191 11.8393 14.7191 11.272C14.7191 10.7047 15.1916 10.2449 15.7744 10.2449ZM5.22124 10.2449C5.80406 10.2449 6.27653 10.7047 6.27653 11.272C6.27653 11.8393 5.80406 12.2992 5.22124 12.2992C4.63842 12.2992 4.16595 11.8393 4.16595 11.272C4.16595 10.7047 4.63842 10.2449 5.22124 10.2449ZM14.5074 2.54081H6.48969C5.64226 2.54081 4.90356 3.1022 4.69803 3.90244L3.86052 7.16324H17.1388L16.2987 3.90132C16.0928 3.10163 15.3544 2.54081 14.5074 2.54081Z" fill="#3E6897"/>
</svg>
