<svg width="21" height="21" viewBox="0 0 21 21" fill="none" xmlns="http://www.w3.org/2000/svg">
<path fill-rule="evenodd" clip-rule="evenodd" d="M0.9375 7.7551C0.9375 6.94865 1.63218 6.29492 2.4891 6.29492H18.4484C19.3053 6.29492 20 6.94865 20 7.7551V18.6021C20 19.4086 19.3053 20.0623 18.4484 20.0623H2.4891C1.63218 20.0623 0.9375 19.4086 0.9375 18.6021V7.7551ZM2.4891 7.5465C2.36667 7.5465 2.26744 7.63989 2.26744 7.7551V18.6021C2.26744 18.7173 2.36667 18.8107 2.4891 18.8107H18.4484C18.5708 18.8107 18.6701 18.7173 18.6701 18.6021V7.7551C18.6701 7.63988 18.5708 7.5465 18.4484 7.5465H2.4891Z" fill="#3E6897"/>
<path fill-rule="evenodd" clip-rule="evenodd" d="M4.10938 9.08292C4.10938 8.71352 4.4186 8.41406 4.80005 8.41406H14.009C14.3904 8.41406 14.6997 8.71352 14.6997 9.08292V16.2174C14.6997 16.5868 14.3904 16.8863 14.009 16.8863H4.80005C4.4186 16.8863 4.10938 16.5868 4.10938 16.2174V9.08292ZM5.49072 9.75178V15.5486H13.3183V9.75178H5.49072Z" fill="#3E6897"/>
<path fill-rule="evenodd" clip-rule="evenodd" d="M15.5806 1.23775C15.8384 1.53624 15.8194 2.00002 15.5382 2.27364L10.5151 7.16145C10.2612 7.40854 9.87461 7.41924 9.6089 7.18654L5.42303 3.52068C5.1288 3.263 5.08705 2.8009 5.3298 2.48855C5.57255 2.17621 6.00786 2.1319 6.30209 2.38958L10.0246 5.64962L14.6048 1.19272C14.886 0.919101 15.3229 0.939266 15.5806 1.23775Z" fill="#3E6897"/>
<path fill-rule="evenodd" clip-rule="evenodd" d="M16.8247 8.41406C17.4095 8.41406 17.8837 8.76967 17.8837 9.20833V9.73785C17.8837 10.1765 17.4095 10.5321 16.8247 10.5321C16.2398 10.5321 15.7656 10.1765 15.7656 9.73785V9.20833C15.7656 8.76967 16.2398 8.41406 16.8247 8.41406Z" fill="#3E6897"/>
<path fill-rule="evenodd" clip-rule="evenodd" d="M16.8247 11.5898C17.4095 11.5898 17.8837 11.7676 17.8837 11.987V12.2517C17.8837 12.4711 17.4095 12.6489 16.8247 12.6489C16.2398 12.6489 15.7656 12.4711 15.7656 12.2517V11.987C15.7656 11.7676 16.2398 11.5898 16.8247 11.5898Z" fill="#3E6897"/>
</svg>
