<svg width="21" height="21" viewBox="0 0 21 21" fill="none" xmlns="http://www.w3.org/2000/svg">
<path d="M19.8831 6.13825L16.4003 2.49714C15.8161 1.88642 14.8887 1.83174 14.2431 2.36995C9.52024 6.30681 5.20796 10.7996 1.42607 15.7235C0.808842 16.5271 0.868377 17.682 1.56467 18.4099C1.93002 18.7919 2.41429 19 2.92183 19C3.00357 19 3.08599 18.9946 3.16852 18.9836C3.76371 18.9047 4.28 18.5496 4.58498 18.0093C5.46826 16.4445 6.89311 14.1399 8.66494 12.0468C9.08141 11.5548 9.78126 11.4975 10.264 11.9132L11.6675 13.3805C11.7455 13.462 11.8477 13.5028 11.9499 13.5028C12.052 13.5028 12.1543 13.462 12.2322 13.3805C12.3881 13.2175 12.3881 12.9532 12.2322 12.7902L9.72875 10.1729C9.85237 10.0459 9.97651 9.91932 10.1011 9.79304L12.3851 12.1809C12.4436 12.2421 12.5203 12.2727 12.5969 12.2727C12.6735 12.2727 12.7502 12.2421 12.8086 12.1809C12.9256 12.0587 12.9256 11.8605 12.8086 11.7382L10.5326 9.35874C10.648 9.24344 10.7637 9.12835 10.8798 9.01368L13.0277 11.2592C13.0862 11.3203 13.1629 11.3509 13.2395 11.3509C13.3161 11.3509 13.3928 11.3203 13.4512 11.2592C13.5682 11.1369 13.5682 10.9387 13.4512 10.8164L11.317 8.58521C11.434 8.47138 11.5511 8.35758 11.6689 8.24441L13.7341 10.4035C13.7925 10.4646 13.8692 10.4952 13.9458 10.4952C14.0225 10.4952 14.0991 10.4646 14.1576 10.4035C14.2745 10.2812 14.2745 10.083 14.1576 9.96073L12.1118 7.82196C12.2303 7.70967 12.3495 7.598 12.4687 7.48642L14.5015 9.61167C14.56 9.67282 14.6367 9.70338 14.7133 9.70338C14.7899 9.70338 14.8666 9.67282 14.925 9.61167C15.042 9.4894 15.042 9.29119 14.925 9.16893L12.9171 7.06977C13.0371 6.95911 13.1574 6.84894 13.278 6.73899L15.3301 8.88431C15.3885 8.94547 15.4652 8.97603 15.5418 8.97603C15.6184 8.97603 15.6951 8.94547 15.7536 8.88431C15.8705 8.76204 15.8705 8.56384 15.7536 8.44157L13.7321 6.32823C13.8537 6.21902 13.9754 6.11011 14.0976 6.0017L16.2227 8.22338C16.2812 8.28453 16.3578 8.31509 16.4344 8.31509C16.5111 8.31509 16.5877 8.28453 16.6462 8.22338C16.7631 8.10111 16.7631 7.9029 16.6462 7.78063L14.5573 5.59678C14.6804 5.48917 14.8036 5.38167 14.9272 5.27485L17.182 7.63211C17.2405 7.69326 17.3171 7.72382 17.3937 7.72382C17.4704 7.72382 17.547 7.69326 17.6055 7.63211C17.7224 7.50984 17.7224 7.31164 17.6055 7.18937L15.3926 4.87594C15.5173 4.76987 15.6424 4.66451 15.7676 4.55927L18.2125 7.11523C18.2709 7.17639 18.3476 7.20694 18.4242 7.20694C18.5008 7.20694 18.5775 7.17639 18.636 7.11523C18.7529 6.99296 18.7529 6.79476 18.636 6.67249L16.2387 4.16633C16.3557 4.06948 16.473 3.97305 16.5904 3.87696L19.3182 6.72872C19.4742 6.89173 19.727 6.89173 19.8829 6.72872C20.039 6.56558 20.039 6.30126 19.8831 6.13825ZM8.06688 11.4935C6.25308 13.6362 4.79824 15.9888 3.89719 17.585C3.71863 17.9013 3.4164 18.1092 3.06802 18.1554C2.71975 18.2015 2.37759 18.0792 2.12931 17.8196C1.72171 17.3935 1.68709 16.7171 2.04873 16.2463C3.87531 13.8681 5.82715 11.5919 7.88983 9.43116L9.22683 10.8289C8.77838 10.9024 8.37106 11.1342 8.06688 11.4935ZM9.1641 9.58261L8.45647 8.84282C10.4542 6.79075 12.5531 4.84647 14.7409 3.0227C15.0684 2.7497 15.5391 2.7775 15.8355 3.08749L16.0216 3.28206C13.6309 5.24363 11.3273 7.36014 9.1641 9.58261Z" fill="#3E6897" stroke="#3E6897" stroke-width="0.3"/>
</svg>
