<svg width="21" height="21" viewBox="0 0 21 21" fill="none" xmlns="http://www.w3.org/2000/svg">
<path d="M16.2125 5.9815C16.0461 5.82501 15.7845 5.83295 15.628 5.99931C15.4715 6.1656 15.4794 6.42729 15.6458 6.58382C16.0844 6.99648 16.4669 7.42861 16.7828 7.86814C16.9126 8.04868 17.0285 8.22717 17.1273 8.39865C17.2038 8.53151 17.3429 8.6058 17.486 8.6058C17.5559 8.6058 17.6269 8.58799 17.692 8.55054C17.8898 8.43654 17.9579 8.18375 17.8439 7.98585C17.7313 7.79043 17.6002 7.58844 17.4543 7.38546C17.1076 6.90289 16.6897 6.43052 16.2125 5.9815Z" fill="#3E6897" stroke="#3E6897" stroke-width="0.45"/>
<path d="M15.0919 5.04925L15.0618 5.02747C14.8767 4.89383 14.6182 4.93555 14.4845 5.12068C14.3509 5.30579 14.3926 5.56433 14.5777 5.69796L14.6059 5.71844C14.6793 5.77173 14.7643 5.79737 14.8486 5.79737C14.9764 5.79737 15.1026 5.73826 15.1835 5.62682C15.3177 5.44201 15.2767 5.18344 15.0919 5.04925Z" fill="#3E6897" stroke="#3E6897" stroke-width="0.45"/>
<path d="M7.36858 10.7461C6.47183 10.7461 5.74219 11.4757 5.74219 12.3724C5.74219 13.2692 6.47183 13.9988 7.36858 13.9988C8.26537 13.9988 8.99494 13.2692 8.99494 12.3724C8.99494 11.4757 8.26537 10.7461 7.36858 10.7461ZM7.36858 13.1719C6.92776 13.1719 6.56913 12.8133 6.56913 12.3725C6.56913 11.9317 6.92776 11.5731 7.36858 11.5731C7.80937 11.5731 8.16799 11.9317 8.16799 12.3725C8.16795 12.8133 7.80937 13.1719 7.36858 13.1719Z" fill="#3E6897" stroke="#3E6897" stroke-width="0.45"/>
<path d="M16.6733 10.4102C15.7765 10.4102 15.0469 11.1398 15.0469 12.0365C15.0469 12.9333 15.7765 13.6629 16.6733 13.6629C17.57 13.6629 18.2996 12.9333 18.2996 12.0365C18.2996 11.1398 17.57 10.4102 16.6733 10.4102ZM16.6733 12.8359C16.2324 12.8359 15.8738 12.4773 15.8738 12.0365C15.8738 11.5958 16.2324 11.2371 16.6733 11.2371C17.1141 11.2371 17.4727 11.5958 17.4727 12.0365C17.4726 12.4773 17.1141 12.8359 16.6733 12.8359Z" fill="#3E6897" stroke="#3E6897" stroke-width="0.45"/>
<path d="M18.7937 6.42059C17.8996 5.17661 16.6113 4.00362 15.166 3.11763C15.0472 3.04482 14.8998 3.03666 14.7737 3.09607L1.23724 9.47254C1.09018 9.54179 1.00037 9.68904 1.0003 9.84631L1 9.8466V12.9681C1 13.1651 1.13894 13.3347 1.33205 13.3735C1.66485 13.4404 1.90647 13.7358 1.90647 14.076C1.90647 14.4163 1.66489 14.7118 1.33205 14.7786C1.13894 14.8174 1 14.987 1 15.184V17.735C1 17.9634 1.18518 18.1485 1.41347 18.1485H19.5568C19.7851 18.1485 19.9703 17.9634 19.9703 17.735V9.87774C20.1196 8.91152 19.7031 7.68602 18.7937 6.42059ZM1.82698 17.3215V15.4822C2.3677 15.2364 2.73345 14.69 2.73345 14.0761C2.73345 13.4621 2.36767 12.9157 1.82698 12.6699V10.2601H10.3579C10.6422 10.838 11.237 11.2368 11.9233 11.2368C12.6096 11.2368 13.2044 10.8379 13.4886 10.2601H19.1433V17.3215H1.82698V17.3215ZM11.0067 9.49325C11.0067 8.98785 11.4179 8.57668 11.9233 8.57668C12.4287 8.57668 12.8398 8.98785 12.8398 9.49325C12.8398 9.99864 12.4287 10.4098 11.9233 10.4098C11.4179 10.4098 11.0067 9.99864 11.0067 9.49325ZM13.6653 9.43309C13.6334 8.49953 12.8645 7.7497 11.9233 7.7497C10.9821 7.7497 10.2131 8.49953 10.1813 9.43309H3.26156L14.9219 3.94034C17.3555 5.49319 19.1553 7.83939 19.1751 9.43309H13.6653Z" fill="#3E6897" stroke="#3E6897" stroke-width="0.45"/>
<path d="M11.8221 12.2637C10.6537 12.2637 9.70312 13.2143 9.70312 14.3827C9.70312 15.5511 10.6537 16.5017 11.8221 16.5017C12.9905 16.5017 13.9411 15.5511 13.9411 14.3827C13.9411 13.2143 12.9905 12.2637 11.8221 12.2637ZM11.8221 15.6747C11.1097 15.6747 10.5301 15.0951 10.5301 14.3827C10.5301 13.6702 11.1097 13.0906 11.8221 13.0906C12.5345 13.0906 13.1142 13.6702 13.1142 14.3827C13.1142 15.0951 12.5345 15.6747 11.8221 15.6747Z" fill="#3E6897" stroke="#3E6897" stroke-width="0.45"/>
<path d="M4.69358 14.3242C4.00958 14.3242 3.45312 14.8807 3.45312 15.5647C3.45312 16.2487 4.00958 16.8051 4.69358 16.8051C5.37758 16.8051 5.93404 16.2487 5.93404 15.5647C5.93404 14.8807 5.37758 14.3242 4.69358 14.3242ZM4.69358 15.9781C4.46558 15.9781 4.28011 15.7927 4.28011 15.5647C4.28011 15.3367 4.46558 15.1512 4.69358 15.1512C4.92158 15.1512 5.10705 15.3367 5.10705 15.5647C5.10705 15.7927 4.92154 15.9781 4.69358 15.9781Z" fill="#3E6897" stroke="#3E6897" stroke-width="0.45"/>
<path d="M16.4436 14.5508C15.7596 14.5508 15.2031 15.1072 15.2031 15.7912C15.2031 16.4752 15.7596 17.0317 16.4436 17.0317C17.1276 17.0317 17.684 16.4752 17.684 15.7912C17.684 15.1072 17.1276 14.5508 16.4436 14.5508ZM16.4436 16.2047C16.2156 16.2047 16.0301 16.0193 16.0301 15.7913C16.0301 15.5633 16.2156 15.3778 16.4436 15.3778C16.6716 15.3778 16.8571 15.5633 16.8571 15.7913C16.8571 16.0192 16.6716 16.2047 16.4436 16.2047Z" fill="#3E6897" stroke="#3E6897" stroke-width="0.45"/>
</svg>
