<svg width="21" height="21" viewBox="0 0 21 21" fill="none" xmlns="http://www.w3.org/2000/svg">
<path d="M10.0101 1.15879C10.2974 0.947069 10.7026 0.947069 10.9899 1.15879L18.4914 6.68523C19.444 7.38706 20 8.45852 20 9.59257V18.7662C20 19.4476 19.4093 20 18.6806 20H13.4028C12.6741 20 12.0833 19.4476 12.0833 18.7662V13.8312C12.0833 13.6949 11.9652 13.5844 11.8194 13.5844H9.18056C9.03481 13.5844 8.91667 13.6949 8.91667 13.8312V18.7662C8.91667 19.4476 8.32593 20 7.59722 20H2.31944C1.59074 20 1 19.4476 1 18.7662V9.59257C1 8.45852 1.55599 7.38706 2.50863 6.68523L10.0101 1.15879ZM10.5 2.68268L3.48851 7.84816C2.91692 8.26926 2.58333 8.91214 2.58333 9.59257V18.5195H7.33333V13.8312C7.33333 12.8772 8.16036 12.1039 9.18056 12.1039H11.8194C12.8396 12.1039 13.6667 12.8772 13.6667 13.8312V18.5195H18.4167V9.59257C18.4167 8.91214 18.0831 8.26926 17.5115 7.84816L10.5 2.68268Z" fill="#3E6897"/>
</svg>
