<svg width="21" height="21" viewBox="0 0 21 21" fill="none" xmlns="http://www.w3.org/2000/svg">
<path d="M5.99694 4.73053C5.99694 3.646 5.10042 2.76367 3.99847 2.76367C2.89651 2.76367 2 3.646 2 4.73053C2 5.81505 2.89651 6.69739 3.99847 6.69739C5.10042 6.69739 5.99694 5.81505 5.99694 4.73053ZM2.59954 4.73053C2.59954 3.97132 3.22706 3.35373 3.99847 3.35373C4.76988 3.35373 5.3974 3.97132 5.3974 4.73053C5.3974 5.48974 4.76988 6.10733 3.99847 6.10733C3.22706 6.10733 2.59954 5.48974 2.59954 4.73053Z" fill="#3E6897" stroke="#3E6897" stroke-width="0.7"/>
<path d="M17.2863 5.71484C16.4048 5.71484 15.6875 6.42075 15.6875 7.28833C15.6875 8.15591 16.4048 8.86182 17.2863 8.86182C18.1678 8.86182 18.885 8.15591 18.885 7.28833C18.885 6.42075 18.1678 5.71484 17.2863 5.71484ZM17.2863 8.27176C16.7353 8.27176 16.287 7.83059 16.287 7.28833C16.287 6.74607 16.7353 6.3049 17.2863 6.3049C17.8373 6.3049 18.2855 6.74607 18.2855 7.28833C18.2855 7.83059 17.8373 8.27176 17.2863 8.27176Z" fill="#3E6897" stroke="#3E6897" stroke-width="0.7"/>
<path d="M11.601 7.67387C12.2931 8.16401 13.2655 8.10265 13.8868 7.49076C14.2214 7.16151 14.4056 6.72388 14.4056 6.25832C14.4056 5.79277 14.2214 5.35514 13.8868 5.02589C13.6061 4.74955 13.2385 4.57607 12.8476 4.52965C12.8007 4.14494 12.6244 3.78323 12.3434 3.50669C12.0089 3.17744 11.5642 2.99609 11.0912 2.99609C10.6181 2.99609 10.1733 3.17744 9.83874 3.50669C9.22021 4.11524 9.15566 5.06582 9.65468 5.75461L6.21871 9.13643C5.52704 8.64648 4.55439 8.70765 3.93286 9.31954C3.59832 9.64879 3.41406 10.0864 3.41406 10.5522C3.41406 11.0175 3.59832 11.4554 3.93286 11.7846C4.21365 12.0609 4.58137 12.2344 4.97227 12.2806C5.01943 12.6654 5.1955 13.0273 5.47648 13.3036C5.81102 13.6329 6.25568 13.8142 6.72872 13.8142C7.20176 13.8142 7.64642 13.6329 7.98096 13.3036C8.59949 12.6949 8.66404 11.7443 8.16502 11.0557L11.601 7.67387ZM7.55709 11.2557C7.77832 11.4734 7.90022 11.763 7.90022 12.0712C7.90022 12.379 7.77832 12.6685 7.55709 12.8864C7.10024 13.3359 6.35721 13.3359 5.90036 12.8864C5.66714 12.6569 5.54343 12.3381 5.56062 12.0116C5.56501 11.9282 5.53324 11.847 5.47308 11.7878C5.41673 11.7323 5.34039 11.7014 5.26105 11.7014C5.25605 11.7014 5.25085 11.7016 5.24566 11.7018C4.91371 11.7183 4.58976 11.5968 4.35654 11.3674C3.89989 10.918 3.89989 10.1865 4.35654 9.73691C4.57777 9.51918 4.87194 9.3992 5.1849 9.3992C5.49787 9.3992 5.79204 9.51918 6.01327 9.7373C6.06843 9.7967 6.14597 9.83132 6.22771 9.83309C6.31004 9.83683 6.38858 9.80378 6.44634 9.74674L10.2728 5.9806C10.3296 5.92474 10.3577 5.84587 10.3571 5.76681C10.3565 5.68774 10.3204 5.60946 10.2626 5.55439C10.0414 5.33665 9.91948 5.04713 9.91948 4.73912C9.91948 4.43111 10.0414 4.14159 10.2626 3.92386C10.7195 3.47424 11.4627 3.47443 11.9193 3.92386C12.1526 4.15339 12.2763 4.47222 12.2591 4.79852C12.2547 4.88192 12.2865 4.96334 12.3464 5.02235C12.4064 5.08136 12.4865 5.11283 12.574 5.1085C12.9036 5.08962 13.2297 5.21353 13.463 5.44306C13.9196 5.89269 13.9196 6.62396 13.463 7.07359C13.2417 7.29132 12.9476 7.4113 12.6346 7.4113C12.3216 7.4113 12.0275 7.29132 11.817 7.08499C11.813 7.08047 11.8044 7.07083 11.8 7.06651C11.7441 7.00986 11.6673 6.9776 11.5872 6.97701C11.5045 6.97151 11.4299 7.0075 11.3732 7.06336L7.54669 10.8295C7.48994 10.8854 7.46196 10.9644 7.46256 11.0433C7.46316 11.1222 7.49933 11.2008 7.55709 11.2557Z" fill="#3E6897" stroke="#3E6897" stroke-width="0.7"/>
<path d="M5.08377 14.9732C4.96666 14.8579 4.777 14.8579 4.65989 14.9732L3.97262 15.6496L3.28535 14.9732C3.16823 14.8579 2.97858 14.8579 2.86147 14.9732C2.74436 15.0884 2.74436 15.2751 2.86147 15.3903L3.54874 16.0667L2.86127 16.7433C2.74416 16.8586 2.74416 17.0452 2.86127 17.1605C2.91983 17.2181 2.99657 17.2468 3.07331 17.2468C3.15005 17.2468 3.22679 17.2181 3.28535 17.1605L3.97262 16.4841L4.65989 17.1605C4.71845 17.2181 4.79519 17.2468 4.87193 17.2468C4.94867 17.2468 5.02541 17.2181 5.08397 17.1605C5.20108 17.0452 5.20108 16.8586 5.08397 16.7433L4.39669 16.0669L5.08397 15.3905C5.20088 15.2751 5.20088 15.0884 5.08377 14.9732Z" fill="#3E6897" stroke="#3E6897" stroke-width="0.7"/>
<path d="M16.3534 3.88022C16.412 3.93785 16.4887 3.96656 16.5654 3.96656C16.6422 3.96656 16.7189 3.93785 16.7775 3.88022L17.2649 3.4005L17.7523 3.88022C17.8109 3.93785 17.8876 3.96656 17.9644 3.96656C18.0411 3.96656 18.1179 3.93785 18.1764 3.88022C18.2935 3.76516 18.2935 3.57811 18.1764 3.46305L17.689 2.98333L18.1764 2.50361C18.2935 2.38855 18.2935 2.2015 18.1764 2.08644C18.0593 1.97119 17.8696 1.97119 17.7525 2.08644L17.2651 2.56616L16.7777 2.08644C16.6606 1.97119 16.4709 1.97119 16.3538 2.08644C16.2367 2.2015 16.2367 2.38855 16.3538 2.50361L16.8412 2.98333L16.3538 3.46305C16.2363 3.57831 16.2363 3.76516 16.3534 3.88022Z" fill="#3E6897" stroke="#3E6897" stroke-width="0.7"/>
<path d="M13.8438 10.4297C11.4746 10.4297 9.54688 12.3269 9.54688 14.6586C9.54688 16.9903 11.4746 18.8876 13.8438 18.8876C16.213 18.8876 18.1407 16.9903 18.1407 14.6586C18.1407 12.3269 16.213 10.4297 13.8438 10.4297ZM17.3985 13.6691C17.1492 13.8028 16.8823 13.8965 16.6007 13.947C16.4416 13.9757 16.2779 13.9901 16.1136 13.9901C14.7163 13.9901 13.5638 12.9593 13.4331 11.5917C13.4251 11.5095 13.4209 11.4249 13.4209 11.3403C13.4209 11.2408 13.4275 11.1415 13.4387 11.043C13.5718 11.0286 13.7067 11.0199 13.8436 11.0199C15.5337 11.0197 16.959 12.1426 17.3985 13.6691ZM10.2979 15.682C10.5537 15.5414 10.8287 15.4424 11.1191 15.3901C11.2787 15.3614 11.4426 15.3468 11.6063 15.3468C13.0034 15.3468 14.1559 16.3777 14.2868 17.7444C14.2946 17.8276 14.2988 17.9116 14.2988 17.9966C14.2988 18.0876 14.2938 18.1787 14.2844 18.269C14.1398 18.2859 13.9935 18.2973 13.8442 18.2973C12.1663 18.2975 10.7484 17.1914 10.2979 15.682ZM14.8902 18.1469C14.8926 18.0967 14.8982 18.0469 14.8982 17.9968C14.8982 17.8943 14.8934 17.791 14.8836 17.6896C14.7235 16.0177 13.3144 14.757 11.6063 14.757C11.4068 14.757 11.2066 14.7747 11.0114 14.8099C10.7182 14.8626 10.439 14.9568 10.174 15.0833C10.1574 14.9438 10.1466 14.8026 10.1466 14.6588C10.1466 12.9984 11.2839 11.597 12.8312 11.1621C12.828 11.2215 12.8218 11.2807 12.8218 11.3403C12.8218 11.4436 12.8268 11.5473 12.8366 11.6476C12.9964 13.3194 14.4056 14.5802 16.1138 14.5802C16.3139 14.5802 16.5139 14.5624 16.7086 14.5274C16.992 14.4765 17.262 14.3864 17.519 14.2664C17.5332 14.3955 17.5413 14.5261 17.5413 14.6586C17.5411 16.3072 16.4204 17.7014 14.8902 18.1469Z" fill="#3E6897" stroke="#3E6897" stroke-width="0.7"/>
</svg>
