<svg width="21" height="21" viewBox="0 0 21 21" fill="none" xmlns="http://www.w3.org/2000/svg">
<path d="M17.678 17.3296C17.6929 16.994 17.7013 16.6565 17.7013 16.32C17.7013 14.4516 17.4677 12.6474 17.0399 11.0127C17.036 10.9732 17.0258 10.9356 17.0101 10.9004C16.3044 8.2711 15.0937 6.09178 13.5435 4.80944V2.60802C13.5435 1.72134 12.7528 1 11.7809 1H8.97002C7.99812 1 7.20745 1.72134 7.20745 2.60802V4.76864C4.64776 6.84479 3 11.357 3 16.32C3 16.874 3.02037 17.4315 3.06066 17.9771C3.14433 19.1114 4.17827 20 5.41455 20H15.2868C16.523 20 17.5569 19.1114 17.6407 17.9771C17.6495 17.8575 17.657 17.7372 17.6639 17.6166C17.6877 17.5676 17.7013 17.5136 17.7013 17.4566C17.7013 17.4121 17.6929 17.3694 17.678 17.3296ZM16.8381 16.32C16.8381 16.5674 16.8334 16.8155 16.8251 17.0627H12.3061V11.4421H16.2689C16.6375 12.9479 16.8381 14.6035 16.8381 16.32ZM8.07069 2.60802C8.07069 2.1556 8.47412 1.78755 8.97002 1.78755H11.781C12.2769 1.78755 12.6803 2.1556 12.6803 2.60802V4.59323H11.6587V2.82124C11.6587 2.60372 11.4654 2.42746 11.2271 2.42746C10.9887 2.42746 10.7954 2.60372 10.7954 2.82124V4.59323H9.83626V2.82124C9.83626 2.60372 9.64301 2.42746 9.40464 2.42746C9.16627 2.42746 8.97301 2.60372 8.97301 2.82124V4.59323H8.07069V2.60802ZM15.2868 19.2124H5.41455C4.6309 19.2124 3.97524 18.6466 3.92194 17.9242C3.88298 17.3961 3.86324 16.8565 3.86324 16.32C3.86324 11.5902 5.38514 7.32204 7.7517 5.38073H12.9496C14.3048 6.49238 15.3828 8.36718 16.0569 10.6545H11.8745C11.6361 10.6545 11.4429 10.8308 11.4429 11.0483V17.4565C11.4429 17.674 11.6361 17.8503 11.8745 17.8503H16.7842C16.7825 17.8748 16.7813 17.8997 16.7794 17.9241C16.726 18.6466 16.0704 19.2124 15.2868 19.2124Z" fill="#3E6897" stroke="#3E6897" stroke-width="0.4"/>
<path d="M8.30785 6.71094C7.82328 6.71094 7.3977 6.96526 7.19714 7.37458L5.20835 11.434C4.90258 12.0583 4.96341 12.7734 5.37115 13.3471C5.77889 13.9207 6.46966 14.2632 7.21907 14.2632H7.26534C8.52205 14.2632 9.54448 13.3304 9.54448 12.1839V7.83136C9.54442 7.13002 8.91569 6.71094 8.30785 6.71094ZM8.68118 12.1839C8.68118 12.8961 8.046 13.4756 7.26528 13.4756H7.21901C6.75654 13.4756 6.34702 13.2726 6.09541 12.9186C5.84381 12.5646 5.80772 12.1406 5.99643 11.7555L7.98517 7.69601C8.06511 7.53283 8.20472 7.49854 8.30779 7.49854C8.43693 7.49854 8.68112 7.56811 8.68112 7.83141V12.1839H8.68118Z" fill="#3E6897" stroke="#3E6897" stroke-width="0.4"/>
</svg>
