<svg width="21" height="21" viewBox="0 0 21 21" fill="none" xmlns="http://www.w3.org/2000/svg">
<path d="M13.1389 1C15.0335 1 16.5694 2.38232 16.5694 4.0875C16.5694 4.69982 16.3714 5.27051 16.0298 5.75051L18.6806 5.75C19.4093 5.75 20 6.28166 20 6.9375V10.2625C20 10.8367 19.5472 11.3157 18.9454 11.4261L18.9444 16.9125C18.9444 18.5589 17.5126 19.9043 15.7086 19.9951L15.5139 20H5.48611C3.6568 20 2.16191 18.7114 2.06099 17.0877L2.05556 16.9125L2.05561 11.4263C1.45332 11.3162 1 10.837 1 10.2625V6.9375C1 6.28166 1.59074 5.75 2.31944 5.75L4.97021 5.75051C4.62861 5.27051 4.43056 4.69982 4.43056 4.0875C4.43056 2.38232 5.96647 1 7.86111 1C8.92252 1 9.87135 1.43383 10.5006 2.11522C11.1287 1.43383 12.0775 1 13.1389 1ZM9.70833 11.449H3.63889V16.9125C3.63889 17.7848 4.38528 18.5001 5.33461 18.5695L5.48611 18.575H9.70833V11.449ZM17.3611 11.449H11.2917V18.575H15.5139C16.4831 18.575 17.2779 17.9032 17.355 17.0489L17.3611 16.9125V11.449ZM9.70833 7.175H2.58333V10.025L9.70833 10.024V7.175ZM18.4167 10.025V7.175H11.2917V10.024L18.4167 10.025ZM13.1389 2.425C12.1187 2.425 11.2917 3.16933 11.2917 4.0875V5.74905H13.1642L13.2904 5.74449C14.2397 5.67513 14.9861 4.95976 14.9861 4.0875C14.9861 3.16933 14.1591 2.425 13.1389 2.425ZM7.86111 2.425C6.84092 2.425 6.01389 3.16933 6.01389 4.0875C6.01389 4.95976 6.76028 5.67513 7.70961 5.74449L7.83578 5.74905H9.70833V4.0875L9.70221 3.95115C9.62515 3.09676 8.83029 2.425 7.86111 2.425Z" fill="#3E6897"/>
</svg>
