<svg width="70" height="41" viewBox="0 0 70 41" fill="none" xmlns="http://www.w3.org/2000/svg">
<path d="M70 9.86461C70 4.40039 65.5392 0 60 0C54.4608 0 50 4.40039 50 9.86461C50 15.3288 60 25.5319 60 25.5319C60 25.5319 70 15.3288 70 9.86461ZM55.3431 9.67118C55.3431 7.15668 57.451 5.07737 60 5.07737C62.549 5.07737 64.6569 7.10832 64.6569 9.67118C64.6569 12.1857 62.598 14.265 60 14.265C57.451 14.265 55.3431 12.1857 55.3431 9.67118Z" fill="#FD0A5A"/>
<path d="M56 34.5316L47.5 40L19.28 22L5 30.2025" stroke="white" stroke-width="1.33184" stroke-linecap="round" stroke-dasharray="4.44 4.44"/>
<circle cx="59.8057" cy="32.0137" r="1.55382" stroke="white" stroke-width="1.33184"/>
<circle cx="2.21974" cy="32.0137" r="1.55382" stroke="white" stroke-width="1.33184"/>
</svg>
