<svg width="18" height="18" viewBox="0 0 18 18" fill="none" xmlns="http://www.w3.org/2000/svg">
<path d="M13.9053 3.98145C14.0516 3.97475 14.1964 4.01657 14.3164 4.10059C14.4363 4.18457 14.5256 4.30564 14.5693 4.44531L17.0771 12.5137C17.2485 13.0614 17.288 13.6421 17.1924 14.208C17.0967 14.774 16.8683 15.3094 16.5264 15.7705C16.19 16.2335 15.7475 16.6098 15.2363 16.8672C14.725 17.1246 14.1593 17.2556 13.5869 17.25H3.63477C3.08123 17.2498 2.53529 17.1232 2.03809 16.8799C1.54077 16.6365 1.10545 16.2828 0.765625 15.8457C0.425937 15.4087 0.190384 14.9002 0.0771484 14.3584C-0.0360817 13.8164 -0.0240906 13.2554 0.112305 12.7188L2.12891 4.48535C2.16523 4.33816 2.25136 4.20795 2.37207 4.11621C2.49263 4.02466 2.64067 3.97714 2.79199 3.98145H13.9053ZM1.37305 13.0371C1.28769 13.378 1.28039 13.7342 1.35254 14.0781C1.42473 14.4221 1.57388 14.7456 1.78906 15.0234C2.00436 15.3013 2.28061 15.5267 2.5957 15.6826C2.91073 15.8385 3.25694 15.9213 3.6084 15.9238H13.5605C13.9216 15.9244 14.2779 15.8386 14.5996 15.6748C14.9212 15.5111 15.1992 15.2735 15.4111 14.9814C15.6292 14.6876 15.7748 14.3462 15.8359 13.9854C15.897 13.6245 15.8719 13.2537 15.7627 12.9043L13.4277 5.30762H3.29004L1.37305 13.0371Z" fill="#66C638"/>
<path d="M13.9053 3.98145C14.0516 3.97475 14.1964 4.01657 14.3164 4.10059C14.4363 4.18457 14.5256 4.30564 14.5693 4.44531L17.0771 12.5137C17.2485 13.0614 17.288 13.6421 17.1924 14.208C17.0967 14.774 16.8683 15.3094 16.5264 15.7705C16.19 16.2335 15.7475 16.6098 15.2363 16.8672C14.725 17.1246 14.1593 17.2556 13.5869 17.25H3.63477C3.08123 17.2498 2.53529 17.1232 2.03809 16.8799C1.54077 16.6365 1.10545 16.2828 0.765625 15.8457C0.425937 15.4087 0.190384 14.9002 0.0771484 14.3584C-0.0360817 13.8164 -0.0240906 13.2554 0.112305 12.7188L2.12891 4.48535C2.16523 4.33816 2.25136 4.20795 2.37207 4.11621C2.49263 4.02466 2.64067 3.97714 2.79199 3.98145H13.9053ZM1.37305 13.0371C1.28769 13.378 1.28039 13.7342 1.35254 14.0781C1.42473 14.4221 1.57388 14.7456 1.78906 15.0234C2.00436 15.3013 2.28061 15.5267 2.5957 15.6826C2.91073 15.8385 3.25694 15.9213 3.6084 15.9238H13.5605C13.9216 15.9244 14.2779 15.8386 14.5996 15.6748C14.9212 15.5111 15.1992 15.2735 15.4111 14.9814C15.6292 14.6876 15.7748 14.3462 15.8359 13.9854C15.897 13.6245 15.8719 13.2537 15.7627 12.9043L13.4277 5.30762H3.29004L1.37305 13.0371Z" stroke="white"/>
<path d="M8.59863 0C9.47841 2.03939e-05 10.3222 0.349582 10.9443 0.97168C11.5664 1.59379 11.916 2.43761 11.916 3.31738V8.625C11.916 8.80084 11.8459 8.96935 11.7217 9.09375C11.5973 9.21817 11.4279 9.28809 11.252 9.28809C11.0762 9.28797 10.9075 9.21807 10.7832 9.09375C10.6589 8.96935 10.5889 8.80085 10.5889 8.625V3.31738C10.5889 2.78954 10.3791 2.28342 10.0059 1.91016C9.63261 1.53691 9.12649 1.32717 8.59863 1.32715C8.07075 1.32715 7.56468 1.53689 7.19141 1.91016C6.81814 2.28343 6.6084 2.7895 6.6084 3.31738V8.625C6.6084 8.80082 6.5383 8.96936 6.41406 9.09375C6.28964 9.21817 6.1203 9.28809 5.94434 9.28809C5.76851 9.28799 5.59992 9.21808 5.47559 9.09375C5.35128 8.96935 5.28125 8.80087 5.28125 8.625V3.31738C5.28125 2.43758 5.63081 1.5938 6.25293 0.97168C6.87505 0.349564 7.71883 0 8.59863 0Z" fill="#66C638"/>
<path d="M8.59863 0C9.47841 2.03939e-05 10.3222 0.349582 10.9443 0.97168C11.5664 1.59379 11.916 2.43761 11.916 3.31738V8.625C11.916 8.80084 11.8459 8.96935 11.7217 9.09375C11.5973 9.21817 11.4279 9.28809 11.252 9.28809C11.0762 9.28797 10.9075 9.21807 10.7832 9.09375C10.6589 8.96935 10.5889 8.80085 10.5889 8.625V3.31738C10.5889 2.78954 10.3791 2.28342 10.0059 1.91016C9.63261 1.53691 9.12649 1.32717 8.59863 1.32715C8.07075 1.32715 7.56468 1.53689 7.19141 1.91016C6.81814 2.28343 6.6084 2.7895 6.6084 3.31738V8.625C6.6084 8.80082 6.5383 8.96936 6.41406 9.09375C6.28964 9.21817 6.1203 9.28809 5.94434 9.28809C5.76851 9.28799 5.59992 9.21808 5.47559 9.09375C5.35128 8.96935 5.28125 8.80087 5.28125 8.625V3.31738C5.28125 2.43758 5.63081 1.5938 6.25293 0.97168C6.87505 0.349564 7.71883 0 8.59863 0Z" stroke="white"/>
</svg>
