<svg width="16" height="16" viewBox="0 0 16 16" fill="none" xmlns="http://www.w3.org/2000/svg">
<circle cx="8" cy="8" r="8" fill="#FFD640"/>
<path d="M7.10538 9.084L6.73338 3.6H8.96538L8.59338 9.084H7.10538ZM7.84938 12.096C7.51338 12.096 7.23738 11.988 7.02138 11.772C6.80538 11.556 6.69738 11.3 6.69738 11.004C6.69738 10.7 6.80538 10.448 7.02138 10.248C7.23738 10.04 7.51338 9.936 7.84938 9.936C8.19338 9.936 8.46938 10.04 8.67738 10.248C8.89338 10.448 9.00138 10.7 9.00138 11.004C9.00138 11.3 8.89338 11.556 8.67738 11.772C8.46938 11.988 8.19338 12.096 7.84938 12.096Z" fill="#052850"/>
</svg>
