<svg width="18" height="20" viewBox="0 0 18 20" fill="none" xmlns="http://www.w3.org/2000/svg">
<path d="M6.62107 18.241C7.52275 18.7459 8.41082 18.9995 9.2381 18.9995C9.93064 18.9993 10.5805 18.8215 11.159 18.4644L13.291 17.1492C13.3679 17.1018 13.4228 17.026 13.4437 16.938C13.4646 16.8502 13.4494 16.7577 13.4019 16.6808L11.5539 13.6856C11.5065 13.6089 11.4305 13.554 11.3427 13.5331C11.2542 13.5125 11.1621 13.5275 11.0855 13.5749L8.93731 14.9008C8.60704 15.1045 8.1833 15.1696 7.77567 15.08C7.36805 14.9901 7.02008 14.7538 6.82091 14.4307L3.90128 9.69908C3.47913 9.01493 3.69191 8.11482 4.3756 7.69267C4.3756 7.69267 4.37582 7.69267 4.37582 7.69245L6.60542 6.31598C6.76534 6.2173 6.81479 6.0077 6.71611 5.84778L4.86783 2.85326C4.76916 2.69333 4.55933 2.6432 4.39964 2.74233L2.17186 4.11744C-0.311109 5.64997 -0.224003 9.67299 2.38418 13.9008C3.57985 15.8394 5.08469 17.3808 6.62107 18.241ZM2.52959 4.69634L4.46769 3.50021L5.9587 5.9156L4.01855 7.11332C4.0181 7.11355 4.01787 7.11378 4.01764 7.114C3.01547 7.7335 2.70334 9.05304 3.32239 10.0561L6.24202 14.7876C6.53714 15.2664 7.04299 15.6151 7.62959 15.7444C8.20825 15.8712 8.8155 15.7752 9.29481 15.4794L11.1533 14.3323L12.6441 16.7481L10.8015 17.8848C9.45587 18.7151 7.96622 18.2138 6.95361 17.6469C5.51659 16.8421 4.09931 15.3848 2.9633 13.5433C0.565621 9.65666 0.387325 6.01859 2.52959 4.69634Z" fill="white" stroke="white" stroke-width="0.635295"/>
<path d="M8.90616 6.42603C10.0072 6.49113 10.9817 7.05687 11.5801 7.97853C12.1522 8.85685 12.2899 9.93321 11.9576 10.9318C11.8982 11.1101 11.9946 11.3029 12.1729 11.3619C12.2085 11.3739 12.2445 11.3793 12.2804 11.3793C12.4231 11.3793 12.5558 11.2893 12.6032 11.1466C13.0015 9.95022 12.8364 8.65995 12.1506 7.60741C11.4443 6.51903 10.2461 5.82331 8.94631 5.74642C8.7569 5.73848 8.59766 5.87844 8.58654 6.06603C8.57543 6.25386 8.71856 6.41491 8.90616 6.42603Z" fill="white" stroke="white" stroke-width="0.635295"/>
<path d="M9.3796 3.90091C11.1626 4.10575 12.7452 5.08412 13.7217 6.58467C14.6679 8.03939 14.936 9.83053 14.4571 11.4989C14.4052 11.6797 14.5095 11.868 14.6901 11.9197C14.7216 11.9288 14.7529 11.9331 14.7842 11.9331C14.9319 11.9331 15.0683 11.8358 15.1109 11.6868C15.6442 9.82871 15.3457 7.83365 14.292 6.21355C13.2045 4.54242 11.4425 3.45313 9.45718 3.22493C9.27412 3.20338 9.10195 3.33744 9.0804 3.52413C9.05885 3.71082 9.19269 3.87936 9.3796 3.90091Z" fill="white" stroke="white" stroke-width="0.635295"/>
<path d="M9.83988 1.67699C12.2078 2.00613 14.3134 3.34449 15.6168 5.34908C16.8936 7.31057 17.2765 9.73323 16.6677 11.9957C16.6187 12.1772 16.7265 12.3639 16.9079 12.4127C16.9374 12.4206 16.9674 12.4245 16.9966 12.4245C17.1466 12.4245 17.2843 12.3247 17.3249 12.1727C17.9841 9.7237 17.5694 7.1012 16.1873 4.97797C14.7763 2.80824 12.4971 1.35941 9.93402 1.00304C9.74869 0.978317 9.57584 1.10694 9.55021 1.29317C9.52412 1.47918 9.65388 1.65113 9.83988 1.67699Z" fill="white" stroke="white" stroke-width="0.635295"/>
</svg>
