<svg width="20" height="20" viewBox="0 0 20 20" fill="none" xmlns="http://www.w3.org/2000/svg">
<path d="M12.7891 7.35815L6.82204 12.064C6.70348 12.1621 6.66397 12.3581 6.78252 12.4758C6.84179 12.5542 6.92083 12.5934 7.01962 12.5934C7.0789 12.5934 7.15793 12.5738 7.19745 12.5346L13.1645 7.82874C13.2831 7.7307 13.3226 7.53462 13.204 7.41697C13.1052 7.27972 12.9274 7.26011 12.7891 7.35815Z" fill="white" stroke="white" stroke-width="0.65625" stroke-linecap="round" stroke-linejoin="round"/>
<path d="M8.42057 9.4541C8.4996 9.4541 8.57863 9.4541 8.65767 9.43449C9.46777 9.31684 10.0408 8.55214 9.90245 7.72861C9.84318 7.33645 9.62584 6.98351 9.3097 6.74822C8.99356 6.51292 8.59839 6.41488 8.20322 6.47371C7.80805 6.53253 7.4524 6.74822 7.2153 7.06194C6.9782 7.37567 6.8794 7.76783 6.93868 8.15998C7.05723 8.92469 7.70926 9.4541 8.42057 9.4541ZM8.28226 7.08155C8.32177 7.08155 8.38105 7.06194 8.42057 7.06194C8.85525 7.06194 9.25042 7.37567 9.3097 7.82665C9.38873 8.31684 9.05284 8.76783 8.55888 8.84626C8.06491 8.92469 7.61047 8.59135 7.53143 8.10116C7.4524 7.61096 7.80805 7.15998 8.28226 7.08155Z" fill="white" stroke="white" stroke-width="0.65625" stroke-linecap="round" stroke-linejoin="round"/>
<path d="M11.5798 10.4375C10.7499 10.4375 10.0781 11.1042 10.0781 11.9277C10.0781 12.7512 10.7499 13.4179 11.5798 13.4179C12.4096 13.4179 13.0814 12.7512 13.0814 11.9277C13.0617 11.1042 12.3899 10.4375 11.5798 10.4375ZM11.5798 12.81C11.0858 12.81 10.6709 12.3983 10.6709 11.9081C10.6709 11.4179 11.0858 11.0061 11.5798 11.0061C12.0737 11.0061 12.4887 11.4179 12.4887 11.9081C12.4689 12.4179 12.0737 12.81 11.5798 12.81Z" fill="white" stroke="white" stroke-width="0.65625" stroke-linecap="round" stroke-linejoin="round"/>
<path d="M18.9802 9.75C18.9802 9.73039 19 9.69118 19 9.67157C19 8.82843 18.1109 8.39706 17.3403 8.02451C16.787 7.75 16.1943 7.45588 16.0362 7.10294C15.8782 6.73039 16.0955 6.12255 16.3128 5.55392C16.6092 4.75 16.9056 3.92647 16.3524 3.37745C15.7991 2.82843 15.0088 3.02451 14.2184 3.20098C13.6652 3.31863 13.0922 3.45588 12.7168 3.29902C12.3414 3.14216 12.0252 2.65196 11.7289 2.18137C11.2942 1.51471 10.82 0.75 9.99012 0.75C9.16026 0.75 8.68606 1.51471 8.27113 2.20098C7.97475 2.69118 7.67838 3.18137 7.30296 3.33824C6.92755 3.4951 6.3348 3.35784 5.78156 3.22059C4.99122 3.02451 4.18112 2.82843 3.64764 3.35784C3.0944 3.90686 3.37102 4.73039 3.62788 5.53431C3.82547 6.12255 4.00329 6.71078 3.84523 7.10294C3.68716 7.47549 3.13392 7.75 2.60044 8.02451C1.84962 8.41667 1 8.84804 1 9.67157C1 9.69118 1 9.73039 1.01976 9.75C1.01976 9.76961 1 9.80882 1 9.82843C1 10.652 1.84962 11.1029 2.60044 11.4755C3.13392 11.75 3.68716 12.0245 3.84523 12.3971C4.00329 12.7696 3.80571 13.3775 3.62788 13.9657C3.37102 14.7696 3.0944 15.5931 3.64764 16.1422C4.20088 16.6912 5.01098 16.4755 5.78156 16.2794C6.3348 16.1422 6.92755 16.0049 7.30296 16.1618C7.67838 16.3186 7.97475 16.8088 8.27113 17.299C8.68606 17.9853 9.16026 18.75 9.99012 18.75C10.82 18.75 11.3139 17.9853 11.7289 17.3186C12.0252 16.848 12.3414 16.3578 12.7168 16.201C13.112 16.0441 13.6652 16.1618 14.2184 16.299C14.989 16.4755 15.7991 16.6716 16.3524 16.1226C16.9056 15.5735 16.6092 14.75 16.3128 13.9461C16.0955 13.3578 15.8782 12.7696 16.0362 12.3971C16.1943 12.0245 16.7673 11.75 17.3403 11.4755C18.1109 11.0833 19 10.652 19 9.82843C19 9.78922 18.9802 9.76961 18.9802 9.75ZM17.0637 10.9461C16.4116 11.2794 15.7201 11.6127 15.483 12.1814C15.2261 12.7696 15.5027 13.4755 15.7398 14.1618C15.9769 14.8088 16.2141 15.4363 15.9177 15.7108C15.6015 16.0245 14.989 15.8873 14.337 15.7304C13.685 15.5735 13.0329 15.4363 12.4599 15.6716C11.9067 15.9069 11.551 16.4559 11.2151 17.0049C10.8397 17.5931 10.4841 18.1618 9.97036 18.1618C9.4764 18.1618 9.12075 17.5931 8.74533 16.9853C8.40944 16.4167 8.05379 15.848 7.50055 15.6127C6.92755 15.3774 6.25576 15.5343 5.60373 15.7108C4.9517 15.8676 4.33919 16.0245 4.02305 15.7304C3.72667 15.4363 3.92426 14.8088 4.1416 14.1618C4.35895 13.4755 4.59605 12.7696 4.33919 12.201C4.10209 11.6324 3.45006 11.299 2.81778 10.9853C2.16575 10.652 1.55324 10.3382 1.55324 9.84804C1.55324 9.82843 1.55324 9.78922 1.53348 9.76961C1.53348 9.75 1.55324 9.71078 1.55324 9.69118C1.55324 9.22059 2.16575 8.90686 2.81778 8.55392C3.45006 8.2402 4.10209 7.90686 4.33919 7.33823C4.57629 6.75 4.35895 6.04412 4.1416 5.37745C3.92426 4.71078 3.72667 4.08333 4.02305 3.80882C4.33919 3.4951 4.9517 3.65196 5.60373 3.82843C6.25576 3.98529 6.92755 4.16176 7.50055 3.92647C8.05379 3.69118 8.40944 3.12255 8.74533 2.55392C9.12075 1.94608 9.45664 1.37745 9.97036 1.37745C10.4841 1.37745 10.8397 1.94608 11.2151 2.53431C11.5708 3.08333 11.9265 3.63235 12.4599 3.86765C13.0329 4.10294 13.685 3.94608 14.337 3.80882C14.989 3.65196 15.6015 3.51471 15.9177 3.82843C16.2141 4.10294 15.9769 4.73039 15.7398 5.37745C15.483 6.06373 15.2261 6.76961 15.483 7.35784C15.7201 7.92647 16.4116 8.2598 17.0637 8.59314C17.7552 8.92647 18.3875 9.2598 18.3875 9.73039C18.3875 9.75 18.3875 9.78922 18.4072 9.80882C18.4072 9.82843 18.3875 9.86765 18.3875 9.88725C18.4072 10.2794 17.7552 10.6127 17.0637 10.9461Z" fill="white" stroke="white" stroke-width="0.65625" stroke-linecap="round" stroke-linejoin="round"/>
</svg>
