<svg width="143" height="24" viewBox="0 0 143 24" fill="none" xmlns="http://www.w3.org/2000/svg">
<path d="M42.7875 18.2687C41.9211 18.2687 41.2188 17.5664 41.2188 16.7V7.56878C41.2188 6.70237 41.9211 6 42.7875 6H43.7403C44.2862 6 44.7928 6.28375 45.078 6.7492L49.056 13.2418C49.2619 13.5779 49.02 14.0097 48.6259 14.0097C48.2346 14.0097 47.9923 13.5836 48.1925 13.2474L52.0498 6.76643C52.3327 6.29119 52.8449 6 53.3979 6H54.3419C55.2066 6 55.9082 6.69964 55.9107 7.5643L55.9368 16.6955C55.9392 17.5636 55.2361 18.2687 54.368 18.2687H53.7335C52.8703 18.2687 52.1693 17.5715 52.1647 16.7083L52.1391 11.8955C52.1385 11.7759 52.2352 11.6787 52.3548 11.6787C52.522 11.6787 52.6256 11.8608 52.5402 12.0046L49.9299 16.3972C49.6471 16.873 49.1347 17.1646 48.5812 17.1646H48.5244C47.9814 17.1646 47.477 16.8838 47.191 16.4222L44.5 12.0806C44.3913 11.9052 44.5174 11.6787 44.7238 11.6787C44.8691 11.6787 44.987 11.7965 44.987 11.9419V16.7C44.987 17.5664 44.2846 18.2687 43.4182 18.2687H42.7875Z" fill="#052850"/>
<path d="M62.8799 18.444C61.7933 18.444 60.8293 18.2337 59.988 17.8131C59.1584 17.3807 58.5041 16.7907 58.025 16.0428C57.546 15.295 57.3064 14.4362 57.3064 13.4664C57.3064 12.4966 57.546 11.6378 58.025 10.89C58.5041 10.1422 59.1584 9.55794 59.988 9.13729C60.8293 8.71665 61.7933 8.50633 62.8799 8.50633C63.9666 8.50633 64.9306 8.71665 65.7719 9.13729C66.6131 9.55794 67.2675 10.1422 67.7349 10.89C68.2139 11.6378 68.4535 12.4966 68.4535 13.4664C68.4535 14.4362 68.2139 15.295 67.7349 16.0428C67.2675 16.7907 66.6131 17.3807 65.7719 17.8131C64.9306 18.2337 63.9666 18.444 62.8799 18.444ZM62.8799 15.3593C63.1721 15.3593 63.435 15.2892 63.6686 15.149C63.9023 15.0088 64.0893 14.7984 64.2295 14.518C64.3697 14.2259 64.4398 13.8754 64.4398 13.4664C64.4398 13.0458 64.3697 12.7011 64.2295 12.4323C64.0893 12.1519 63.9023 11.9416 63.6686 11.8014C63.435 11.6612 63.1721 11.591 62.8799 11.591C62.5878 11.591 62.3249 11.6612 62.0912 11.8014C61.8575 11.9416 61.6706 12.1519 61.5304 12.4323C61.3902 12.7011 61.3201 13.0458 61.3201 13.4664C61.3201 13.8754 61.3902 14.2259 61.5304 14.518C61.6706 14.7984 61.8575 15.0088 62.0912 15.149C62.3249 15.2892 62.5878 15.3593 62.8799 15.3593Z" fill="#052850"/>
<path d="M76.2258 18.2687C75.7788 18.2687 75.4164 17.9063 75.4164 17.4593V15.6772C75.4164 15.5327 75.5966 15.4665 75.6901 15.5767C75.7757 15.6776 75.704 15.8325 75.5717 15.8325H73.7163C72.2323 15.8325 71.0581 15.5346 70.1934 14.9387C69.3287 14.3311 68.8964 13.4781 68.8964 12.3797C68.8964 11.2113 69.3404 10.3057 70.2285 9.6631C71.1282 9.00876 72.3434 8.6816 73.874 8.6816H77.353C78.2194 8.6816 78.9217 9.38397 78.9217 10.2504V16.7C78.9217 17.5664 78.2194 18.2687 77.353 18.2687H76.2258ZM71.6941 18.2687C70.4293 18.2687 69.6845 16.8489 70.4034 15.8083L70.7422 15.3178C71.0351 14.8938 71.5176 14.6407 72.0329 14.6407H72.3451C73.5836 14.6407 74.3337 16.0087 73.6678 17.053L73.355 17.5434C73.0669 17.9952 72.5681 18.2687 72.0323 18.2687H71.6941ZM75.726 13.6265C75.6319 13.7642 75.4164 13.6976 75.4164 13.5308V11.5632C75.4164 11.3689 75.6772 11.3053 75.7666 11.4778C75.8307 11.6013 75.741 11.7488 75.6019 11.7488H73.9617C73.6345 11.7488 73.3833 11.8131 73.208 11.9416C73.0327 12.0584 72.9451 12.2512 72.9451 12.52C72.9451 13.0808 73.284 13.3612 73.9617 13.3612H75.586C75.7223 13.3612 75.8029 13.5139 75.726 13.6265Z" fill="#052850"/>
<path d="M82.1368 14.6933C81.314 14.6933 80.647 14.0263 80.647 13.2035C80.647 12.3807 81.314 11.7137 82.1368 11.7137H84.4153C85.2381 11.7137 85.9051 12.3807 85.9051 13.2035C85.9051 14.0263 85.2381 14.6933 84.4153 14.6933H82.1368Z" fill="#052850"/>
<path d="M87.8619 18.4615C87.2892 18.3734 86.9011 17.8482 86.9295 17.2695L87.0284 15.2597C87.0336 15.1541 87.1297 15.0766 87.234 15.094C87.2436 15.0956 87.2534 15.0964 87.2631 15.0964C87.3275 15.0964 87.3869 15.0964 87.4413 15.0964C87.6983 15.0964 87.9028 15.0497 88.0547 14.9562C88.2066 14.851 88.3234 14.705 88.4052 14.518C88.4987 14.3194 88.563 14.0857 88.598 13.8169C88.6331 13.5365 88.6565 13.2152 88.6681 12.853L88.7574 10.1977C88.7858 9.35226 89.4794 8.6816 90.3253 8.6816H96.3885C97.255 8.6816 97.9573 9.38397 97.9573 10.2504V16.7C97.9573 17.5664 97.255 18.2687 96.3885 18.2687H95.5651C94.6986 18.2687 93.9963 17.5664 93.9963 16.7V11.52C93.9963 11.3031 94.2565 11.1921 94.413 11.3423C94.5732 11.4959 94.4644 11.7663 94.2426 11.7663H91.9617C91.7546 11.7663 91.6465 11.52 91.7867 11.3675C91.9367 11.2045 92.2084 11.3171 92.1993 11.5383L92.1384 13.0107C92.1034 13.8754 92.0274 14.6524 91.9106 15.3418C91.7937 16.0195 91.6068 16.5979 91.3497 17.0769C91.1044 17.5443 90.7655 17.9065 90.3332 18.1636C89.9125 18.409 89.375 18.5317 88.7207 18.5317C88.4637 18.5317 88.1774 18.5083 87.8619 18.4615Z" fill="#052850"/>
<path d="M106.736 18.2687C106.005 18.2687 105.411 17.6755 105.411 16.9437V16.8362C105.411 16.6613 105.363 16.4898 105.271 16.3408C105.179 16.1918 105.131 16.0203 105.131 15.8454V12.888C105.131 12.4206 104.985 12.0643 104.693 11.8189C104.412 11.5735 103.951 11.4508 103.308 11.4508C102.876 11.4508 102.438 11.5209 101.994 11.6612C101.361 11.8444 100.589 11.6552 100.302 11.062L100.13 10.7061C99.8242 10.0728 100.043 9.29906 100.704 9.0569C100.987 8.95319 101.288 8.86315 101.608 8.78676C102.391 8.59981 103.156 8.50633 103.904 8.50633C105.551 8.50633 106.825 8.87439 107.725 9.61052C108.636 10.3466 109.092 11.5151 109.092 13.1159V16.7C109.092 17.5664 108.39 18.2687 107.523 18.2687H106.736ZM102.695 18.444C101.912 18.444 101.257 18.3096 100.732 18.0409C100.206 17.7722 99.8086 17.4158 99.5398 16.9718C99.2711 16.5161 99.1367 16.0136 99.1367 15.4645C99.1367 14.8452 99.2944 14.3194 99.6099 13.8871C99.9254 13.4547 100.404 13.1276 101.047 12.9056C101.701 12.6835 102.525 12.5725 103.518 12.5725H104.561C105.089 12.5725 105.516 13.0002 105.516 13.5278C105.516 14.0553 105.089 14.483 104.561 14.483H104.149C103.729 14.483 103.419 14.5531 103.22 14.6933C103.033 14.8218 102.94 15.0205 102.94 15.2892C102.94 15.5112 103.022 15.6982 103.185 15.8501C103.361 15.9903 103.594 16.0604 103.886 16.0604C104.155 16.0604 104.401 15.9903 104.623 15.8501C104.882 15.6812 105.359 15.6751 105.482 15.9594L105.584 16.1955C105.62 16.2786 105.63 16.3711 105.608 16.4589C105.445 17.1039 105.134 17.5903 104.675 17.9182C104.184 18.2687 103.524 18.444 102.695 18.444Z" fill="#052850"/>
<path d="M112.275 18.2687C111.408 18.2687 110.706 17.5664 110.706 16.7V10.2504C110.706 9.38396 111.408 8.6816 112.275 8.6816H116.087C117.372 8.6816 118.371 8.9036 119.084 9.34762C119.797 9.77994 120.153 10.3934 120.153 11.1879C120.153 11.9591 119.826 12.5784 119.171 13.0458C118.635 13.4193 117.946 13.6397 117.103 13.7071C116.823 13.7295 116.628 13.4497 116.726 13.1865C116.784 13.0282 116.935 12.9221 117.104 12.9273C118.146 12.9595 118.946 13.1742 119.504 13.5716C120.124 14.0039 120.433 14.6349 120.433 15.4645C120.433 16.3174 120.095 17.001 119.417 17.5151C118.751 18.0175 117.734 18.2687 116.367 18.2687H112.275ZM114.176 15.1139C114.176 15.5011 114.49 15.815 114.877 15.815H116.017C116.309 15.815 116.525 15.7507 116.665 15.6222C116.805 15.4937 116.875 15.3184 116.875 15.0964C116.875 14.8627 116.805 14.6933 116.665 14.5881C116.525 14.4713 116.309 14.4129 116.017 14.4129H114.877C114.49 14.4129 114.176 14.7267 114.176 15.1139ZM114.176 11.8014C114.176 12.1692 114.474 12.4674 114.842 12.4674H115.736C116.04 12.4674 116.256 12.409 116.385 12.2921C116.525 12.1753 116.595 12.0058 116.595 11.7838C116.595 11.5501 116.525 11.3866 116.385 11.2931C116.256 11.1879 116.04 11.1353 115.736 11.1353H114.842C114.474 11.1353 114.176 11.4335 114.176 11.8014Z" fill="#052850"/>
<path d="M129.244 18.2687C128.692 18.2687 128.18 17.9786 127.897 17.5047L126.539 15.2314C126.091 14.4818 126.341 13.5106 127.096 13.071L127.629 12.7606C128.35 12.3407 129.273 12.5585 129.73 13.2562L131.424 15.84C132.108 16.8833 131.359 18.2687 130.112 18.2687H129.244ZM123.297 18.2687C122.431 18.2687 121.729 17.5664 121.729 16.7V10.2504C121.729 9.38396 122.431 8.6816 123.297 8.6816H124.121C124.987 8.6816 125.69 9.38397 125.69 10.2504V16.7C125.69 17.5664 124.987 18.2687 124.121 18.2687H123.297ZM126.049 15.0789C125.212 15.0789 124.533 14.4001 124.533 13.5628C124.533 12.7255 125.212 12.0467 126.049 12.0467H126.592C127.43 12.0467 128.108 12.7255 128.108 13.5628C128.108 14.4001 127.43 15.0789 126.592 15.0789H126.049ZM129.838 13.1293C129.518 13.607 128.961 13.8709 128.388 13.8169L128.134 13.7929C126.972 13.6832 126.332 12.3881 126.951 11.3987L128.191 9.41807C128.478 8.95988 128.98 8.6816 129.521 8.6816H129.881C131.136 8.6816 131.883 10.0824 131.184 11.1246L129.838 13.1293Z" fill="#052850"/>
<path d="M140.643 18.2687C139.911 18.2687 139.318 17.6755 139.318 16.9437V16.8362C139.318 16.6613 139.27 16.4898 139.178 16.3408C139.086 16.1918 139.038 16.0203 139.038 15.8454V12.888C139.038 12.4206 138.892 12.0643 138.599 11.8189C138.319 11.5735 137.858 11.4508 137.215 11.4508C136.783 11.4508 136.344 11.5209 135.9 11.6612C135.267 11.8444 134.496 11.6552 134.209 11.062L134.037 10.7061C133.731 10.0728 133.95 9.29906 134.611 9.0569C134.894 8.9532 135.195 8.86315 135.515 8.78676C136.298 8.59981 137.063 8.50633 137.811 8.50633C139.458 8.50633 140.732 8.87439 141.632 9.61052C142.543 10.3466 142.999 11.5151 142.999 13.1159V16.7C142.999 17.5664 142.296 18.2687 141.43 18.2687H140.643ZM136.601 18.444C135.819 18.444 135.164 18.3096 134.638 18.0409C134.113 17.7722 133.715 17.4158 133.447 16.9718C133.178 16.5161 133.043 16.0136 133.043 15.4645C133.043 14.8452 133.201 14.3194 133.517 13.8871C133.832 13.4547 134.311 13.1276 134.954 12.9056C135.608 12.6835 136.432 12.5725 137.425 12.5725H138.468C138.996 12.5725 139.423 13.0002 139.423 13.5278C139.423 14.0553 138.996 14.483 138.468 14.483H138.056C137.635 14.483 137.326 14.5531 137.127 14.6933C136.94 14.8218 136.847 15.0205 136.847 15.2892C136.847 15.5112 136.929 15.6982 137.092 15.8501C137.267 15.9903 137.501 16.0604 137.793 16.0604C138.062 16.0604 138.307 15.9903 138.529 15.8501C138.789 15.6812 139.265 15.6751 139.388 15.9594L139.491 16.1955C139.527 16.2786 139.537 16.3711 139.514 16.4589C139.352 17.1039 139.041 17.5903 138.582 17.9182C138.091 18.2687 137.431 18.444 136.601 18.444Z" fill="#052850"/>
<rect width="7.35689" height="23.5421" rx="3.67845" transform="matrix(-1 0 0 1 7.96875 0.269531)" fill="#0075FF"/>
<path d="M33.6697 5.43829C33.6697 2.51894 31.2864 0.167969 28.327 0.167969C25.3676 0.167969 22.9844 2.51894 22.9844 5.43829C22.9844 8.35763 28.327 13.8088 28.327 13.8088C28.327 13.8088 33.6697 8.35763 33.6697 5.43829ZM25.839 5.33495C25.839 3.99153 26.9652 2.88063 28.327 2.88063C29.6889 2.88063 30.815 3.9657 30.815 5.33495C30.815 6.67836 29.7151 7.78926 28.327 7.78926C26.9652 7.78926 25.839 6.67836 25.839 5.33495Z" fill="#FD0A5A"/>
<circle cx="28.2172" cy="19.7212" r="4.09225" fill="#0075FF"/>
<path d="M29.6514 18.4521C29.6554 18.4525 29.6617 18.4538 29.6689 18.4551C29.6839 18.4577 29.7041 18.4625 29.7246 18.4727C29.7649 18.4926 29.8096 18.5322 29.8223 18.6152V18.6211L29.8232 18.6221V18.627L29.8242 18.6279V18.6338L29.8252 18.6348V18.6406L29.8262 18.6416V18.6465L29.8271 18.6475V18.6533L29.8281 18.6543V18.6592L29.8291 18.6602V18.666L29.8301 18.667V18.6729L29.8311 18.6738V18.6787L29.832 18.6797V18.6855H29.833V18.6924H29.834V18.6982L29.835 18.6992V18.7041L29.8359 18.7051V18.7109L29.8369 18.7119V18.7178H29.8379V18.7246H29.8389V18.7305H29.8398V18.7363L29.8408 18.7373V18.7432H29.8418V18.75H29.8428V18.7559L29.8438 18.7568V18.7627H29.8447V18.7686L29.8457 18.7695V18.7754H29.8467V18.7822H29.8477V18.7881L29.8486 18.7891V18.7949H29.8496V18.8018H29.8506L29.9062 19.1729L30.0195 19.916L30.1494 20.7715C30.1975 21.0877 29.9527 21.3721 29.6328 21.3721H26.8184C26.4986 21.372 26.2538 21.0876 26.3018 20.7715L26.4316 19.916L26.5449 19.1729L26.6016 18.8018V18.7979H26.6025V18.791H26.6035V18.7852H26.6045V18.7783H26.6055V18.7725L26.6064 18.7715V18.7656H26.6074V18.7598L26.6084 18.7588V18.7529H26.6094V18.7461H26.6104V18.7402H26.6113V18.7344L26.6123 18.7334V18.7275L26.6133 18.7266V18.7207H26.6143V18.7148L26.6152 18.7139V18.708L26.6162 18.707V18.7021L26.6172 18.7012V18.6953L26.6182 18.6943V18.6895L26.6191 18.6885V18.6826L26.6201 18.6816V18.6758L26.6211 18.6748V18.6699L26.6221 18.6689V18.6631L26.623 18.6621V18.6572L26.624 18.6562V18.6504L26.625 18.6494V18.6445L26.626 18.6436V18.6377L26.627 18.6367V18.6318L26.6279 18.6309V18.625L26.6289 18.624V18.6191L26.6299 18.6182V18.6152C26.6427 18.5318 26.686 18.4924 26.7246 18.4727C26.7442 18.4627 26.7631 18.4577 26.7773 18.4551C26.7845 18.4538 26.791 18.4525 26.7949 18.4521H29.6514Z" fill="white" stroke="white" stroke-width="0.0529212"/>
<mask id="path-6-inside-1_1158_15085" fill="white">
<path d="M28.878 18.1754C28.9449 18.1754 29.0002 18.1208 28.9895 18.0547C28.9643 17.8985 28.8906 17.7531 28.7773 17.6398C28.6353 17.4978 28.4427 17.418 28.2418 17.418C28.0409 17.418 27.8483 17.4978 27.7062 17.6398C27.5929 17.7531 27.5193 17.8985 27.4941 18.0547C27.4834 18.1208 27.5386 18.1754 27.6056 18.1754C27.6725 18.1754 27.7254 18.1204 27.741 18.0553C27.763 17.9636 27.8099 17.879 27.8776 17.8112C27.9742 17.7147 28.1052 17.6604 28.2418 17.6604C28.3784 17.6604 28.5093 17.7147 28.6059 17.8112C28.6736 17.879 28.7206 17.9636 28.7425 18.0553C28.7582 18.1204 28.811 18.1754 28.878 18.1754Z"/>
</mask>
<path d="M28.878 18.1754C28.9449 18.1754 29.0002 18.1208 28.9895 18.0547C28.9643 17.8985 28.8906 17.7531 28.7773 17.6398C28.6353 17.4978 28.4427 17.418 28.2418 17.418C28.0409 17.418 27.8483 17.4978 27.7062 17.6398C27.5929 17.7531 27.5193 17.8985 27.4941 18.0547C27.4834 18.1208 27.5386 18.1754 27.6056 18.1754C27.6725 18.1754 27.7254 18.1204 27.741 18.0553C27.763 17.9636 27.8099 17.879 27.8776 17.8112C27.9742 17.7147 28.1052 17.6604 28.2418 17.6604C28.3784 17.6604 28.5093 17.7147 28.6059 17.8112C28.6736 17.879 28.7206 17.9636 28.7425 18.0553C28.7582 18.1204 28.811 18.1754 28.878 18.1754Z" fill="white" stroke="white" stroke-width="1.05842" mask="url(#path-6-inside-1_1158_15085)"/>
<rect x="19.5078" y="6.65234" width="7.35689" height="12.4445" rx="3.67845" transform="rotate(45 19.5078 6.65234)" fill="#0075FF"/>
<rect width="7.35689" height="23.5421" rx="3.67845" transform="matrix(-0.707107 0.707107 0.707107 0.707107 4.3125 -1.19531)" fill="#0075FF"/>
</svg>
