<svg width="227" height="38" viewBox="0 0 227 38" fill="none" xmlns="http://www.w3.org/2000/svg">
<path d="M67.5046 22.3584C66.1257 22.3584 65.0078 21.2405 65.0078 19.8616V5.32883C65.0078 3.94989 66.1257 2.83203 67.5046 2.83203H69.021C69.8898 2.83203 70.6961 3.28363 71.15 4.02442L77.4811 14.3578C77.8088 14.8927 77.4239 15.5799 76.7966 15.5799C76.1739 15.5799 75.7883 14.9017 76.1068 14.3666L82.246 4.05184C82.6962 3.29548 83.5114 2.83203 84.3915 2.83203H85.8939C87.2701 2.83203 88.3868 3.94554 88.3907 5.32169L88.4322 19.8544C88.4362 21.2361 87.3172 22.3584 85.9355 22.3584H84.9256C83.5518 22.3584 82.4361 21.2486 82.4288 19.8748L82.3881 12.215C82.3871 12.0247 82.541 11.8699 82.7313 11.8699C82.9975 11.8699 83.1624 12.1597 83.0265 12.3886L78.872 19.3797C78.422 20.1369 77.6064 20.601 76.7256 20.601H76.6351C75.7709 20.601 74.9682 20.1541 74.5129 19.4196L70.2301 12.5096C70.0571 12.2305 70.2578 11.8699 70.5862 11.8699C70.8176 11.8699 71.0052 12.0575 71.0052 12.2889V19.8616C71.0052 21.2405 69.8873 22.3584 68.5084 22.3584H67.5046Z" fill="#052850"/>
<path d="M99.4827 22.6373C97.7532 22.6373 96.219 22.3026 94.88 21.6331C93.5597 20.945 92.5183 20.0059 91.7558 18.8157C90.9934 17.6255 90.6121 16.2587 90.6121 14.7152C90.6121 13.1717 90.9934 11.8048 91.7558 10.6147C92.5183 9.42449 93.5597 8.49466 94.88 7.82519C96.219 7.15572 97.7532 6.82098 99.4827 6.82098C101.212 6.82098 102.746 7.15572 104.085 7.82519C105.424 8.49466 106.466 9.42449 107.209 10.6147C107.972 11.8048 108.353 13.1717 108.353 14.7152C108.353 16.2587 107.972 17.6255 107.209 18.8157C106.466 20.0059 105.424 20.945 104.085 21.6331C102.746 22.3026 101.212 22.6373 99.4827 22.6373ZM99.4827 17.7278C99.9476 17.7278 100.366 17.6162 100.738 17.3931C101.11 17.1699 101.407 16.8352 101.631 16.3889C101.854 15.924 101.965 15.3661 101.965 14.7152C101.965 14.0457 101.854 13.4971 101.631 13.0694C101.407 12.6231 101.11 12.2883 100.738 12.0652C100.366 11.842 99.9476 11.7305 99.4827 11.7305C99.0177 11.7305 98.5993 11.842 98.2274 12.0652C97.8555 12.2883 97.5579 12.6231 97.3348 13.0694C97.1116 13.4971 97 14.0457 97 14.7152C97 15.3661 97.1116 15.924 97.3348 16.3889C97.5579 16.8352 97.8555 17.1699 98.2274 17.3931C98.5993 17.6162 99.0177 17.7278 99.4827 17.7278Z" fill="#052850"/>
<path d="M120.723 22.3584C120.012 22.3584 119.435 21.7816 119.435 21.0701V18.2338C119.435 18.0037 119.722 17.8984 119.871 18.0739C120.007 18.2345 119.893 18.481 119.682 18.481H116.729C114.367 18.481 112.499 18.0068 111.122 17.0583C109.746 16.0913 109.058 14.7338 109.058 12.9857C109.058 11.1261 109.765 9.68484 111.178 8.66203C112.61 7.62063 114.544 7.09993 116.98 7.09993H122.517C123.896 7.09993 125.014 8.21778 125.014 9.59672V19.8616C125.014 21.2405 123.896 22.3584 122.517 22.3584H120.723ZM113.511 22.3584C111.498 22.3584 110.312 20.0986 111.457 18.4424L111.996 17.6618C112.462 16.987 113.23 16.5841 114.05 16.5841H114.547C116.518 16.5841 117.712 18.7613 116.652 20.4234L116.154 21.204C115.696 21.9231 114.902 22.3584 114.049 22.3584H113.511ZM119.928 14.9699C119.778 15.1892 119.435 15.0832 119.435 14.8177V11.6862C119.435 11.3769 119.85 11.2757 119.992 11.5503C120.094 11.7468 119.952 11.9815 119.73 11.9815H117.12C116.599 11.9815 116.199 12.0838 115.92 12.2883C115.641 12.4743 115.502 12.7812 115.502 13.2089C115.502 14.1015 116.041 14.5478 117.12 14.5478H119.705C119.922 14.5478 120.05 14.7908 119.928 14.9699Z" fill="#052850"/>
<path d="M130.131 16.6678C128.821 16.6678 127.76 15.6063 127.76 14.2968C127.76 12.9873 128.821 11.9257 130.131 11.9257H133.757C135.067 11.9257 136.128 12.9873 136.128 14.2968C136.128 15.6063 135.067 16.6678 133.757 16.6678H130.131Z" fill="#052850"/>
<path d="M139.243 22.6652C138.331 22.525 137.713 21.689 137.759 20.7679L137.916 17.5693C137.924 17.4012 138.077 17.2779 138.243 17.3056C138.259 17.3081 138.274 17.3094 138.29 17.3094C138.392 17.3094 138.487 17.3094 138.573 17.3094C138.982 17.3094 139.308 17.235 139.55 17.0862C139.791 16.9189 139.977 16.6864 140.107 16.3889C140.256 16.0727 140.358 15.7008 140.414 15.2731C140.47 14.8268 140.507 14.3154 140.526 13.7389L140.668 9.51284C140.713 8.16731 141.817 7.09993 143.163 7.09993H152.813C154.192 7.09993 155.31 8.21778 155.31 9.59672V19.8616C155.31 21.2405 154.192 22.3584 152.813 22.3584H151.503C150.124 22.3584 149.006 21.2405 149.006 19.8616V11.6174C149.006 11.2722 149.42 11.0956 149.669 11.3346C149.924 11.579 149.751 12.0094 149.398 12.0094H145.768C145.438 12.0094 145.266 11.6173 145.489 11.3747C145.728 11.1153 146.16 11.2944 146.146 11.6466L146.049 13.9899C145.993 15.3661 145.872 16.6027 145.686 17.6999C145.5 18.7785 145.203 19.6991 144.794 20.4615C144.403 21.2054 143.864 21.7819 143.176 22.191C142.506 22.5815 141.651 22.7768 140.61 22.7768C140.2 22.7768 139.745 22.7396 139.243 22.6652Z" fill="#052850"/>
<path d="M169.282 22.3584C168.118 22.3584 167.173 21.4142 167.173 20.2495V20.0784C167.173 19.8 167.096 19.527 166.95 19.2899C166.804 19.0528 166.727 18.7799 166.727 18.5015V13.7947C166.727 13.0508 166.495 12.4836 166.03 12.0931C165.583 11.7026 164.849 11.5073 163.826 11.5073C163.138 11.5073 162.441 11.6189 161.734 11.842C160.727 12.1336 159.498 11.8326 159.042 10.8885L158.768 10.3221C158.281 9.31405 158.63 8.08264 159.681 7.69723C160.131 7.53219 160.611 7.38887 161.12 7.2673C162.366 6.96975 163.584 6.82098 164.774 6.82098C167.397 6.82098 169.424 7.40677 170.855 8.57835C172.306 9.74993 173.031 11.6096 173.031 14.1573V19.8616C173.031 21.2405 171.913 22.3584 170.534 22.3584H169.282ZM162.85 22.6373C161.604 22.6373 160.562 22.4234 159.725 21.9957C158.889 21.568 158.256 21.0008 157.829 20.2941C157.401 19.5689 157.187 18.7692 157.187 17.8952C157.187 16.9096 157.438 16.0727 157.94 15.3847C158.442 14.6966 159.205 14.1759 160.228 13.8226C161.269 13.4692 162.58 13.2926 164.161 13.2926H165.82C166.66 13.2926 167.341 13.9732 167.341 14.8128C167.341 15.6524 166.66 16.3331 165.82 16.3331H165.165C164.495 16.3331 164.003 16.4447 163.687 16.6678C163.389 16.8724 163.24 17.1885 163.24 17.6162C163.24 17.9696 163.37 18.2671 163.631 18.5089C163.91 18.732 164.282 18.8436 164.747 18.8436C165.174 18.8436 165.565 18.732 165.918 18.5089C166.332 18.2402 167.089 18.2304 167.285 18.6829L167.448 19.0586C167.505 19.1909 167.521 19.3382 167.486 19.478C167.227 20.5044 166.732 21.2785 166.002 21.8005C165.221 22.3583 164.17 22.6373 162.85 22.6373Z" fill="#052850"/>
<path d="M178.097 22.3584C176.718 22.3584 175.6 21.2405 175.6 19.8616V9.59672C175.6 8.21778 176.718 7.09993 178.097 7.09993H184.164C186.209 7.09993 187.8 7.45326 188.934 8.15993C190.068 8.848 190.635 9.82431 190.635 11.0889C190.635 12.3162 190.115 13.3019 189.073 14.0457C188.22 14.6402 187.122 14.991 185.782 15.0982C185.336 15.1338 185.026 14.6886 185.181 14.2696C185.274 14.0177 185.514 13.8489 185.783 13.8572C187.441 13.9084 188.715 14.2502 189.603 14.8826C190.589 15.5706 191.082 16.5748 191.082 17.8952C191.082 19.2527 190.542 20.3406 189.464 21.1589C188.404 21.9585 186.786 22.3584 184.61 22.3584H178.097ZM181.123 17.3373C181.123 17.9535 181.623 18.4531 182.239 18.4531H184.052C184.517 18.4531 184.861 18.3508 185.084 18.1462C185.308 17.9417 185.419 17.6627 185.419 17.3094C185.419 16.9375 185.308 16.6678 185.084 16.5005C184.861 16.3145 184.517 16.2215 184.052 16.2215H182.239C181.623 16.2215 181.123 16.7211 181.123 17.3373ZM181.123 12.0652C181.123 12.6506 181.598 13.1252 182.183 13.1252H183.606C184.09 13.1252 184.434 13.0322 184.638 12.8462C184.861 12.6603 184.973 12.3906 184.973 12.0373C184.973 11.6654 184.861 11.405 184.638 11.2562C184.434 11.0889 184.09 11.0052 183.606 11.0052H182.183C181.598 11.0052 181.123 11.4798 181.123 12.0652Z" fill="#052850"/>
<path d="M205.104 22.3584C204.226 22.3584 203.412 21.8966 202.961 21.1424L200.799 17.5243C200.086 16.3312 200.484 14.7855 201.685 14.0859L202.534 13.5918C203.681 12.9236 205.151 13.2702 205.878 14.3806L208.574 18.4928C209.662 20.1533 208.471 22.3584 206.486 22.3584H205.104ZM195.64 22.3584C194.261 22.3584 193.143 21.2405 193.143 19.8616V9.59672C193.143 8.21778 194.261 7.09993 195.64 7.09993H196.951C198.33 7.09993 199.448 8.21778 199.448 9.59672V19.8616C199.448 21.2405 198.33 22.3584 196.951 22.3584H195.64ZM200.019 17.2815C198.687 17.2815 197.607 16.2012 197.607 14.8686C197.607 13.536 198.687 12.4557 200.019 12.4557H200.884C202.217 12.4557 203.297 13.536 203.297 14.8686C203.297 16.2012 202.217 17.2815 200.884 17.2815H200.019ZM206.05 14.1786C205.54 14.939 204.654 15.359 203.742 15.273L203.337 15.2348C201.488 15.0603 200.47 12.9991 201.455 11.4243L203.428 8.27205C203.885 7.54282 204.684 7.09993 205.545 7.09993H206.118C208.116 7.09993 209.304 9.32937 208.191 10.9881L206.05 14.1786Z" fill="#052850"/>
<path d="M223.247 22.3584C222.082 22.3584 221.138 21.4142 221.138 20.2495V20.0784C221.138 19.8 221.06 19.527 220.915 19.2899C220.769 19.0528 220.691 18.7799 220.691 18.5015V13.7947C220.691 13.0508 220.459 12.4836 219.994 12.0931C219.548 11.7026 218.813 11.5073 217.79 11.5073C217.102 11.5073 216.405 11.6189 215.698 11.842C214.691 12.1336 213.463 11.8326 213.006 10.8885L212.733 10.322C212.246 9.31404 212.595 8.08264 213.646 7.69723C214.096 7.53219 214.575 7.38887 215.085 7.2673C216.331 6.96975 217.549 6.82098 218.739 6.82098C221.361 6.82098 223.388 7.40677 224.82 8.57835C226.27 9.74993 226.996 11.6096 226.996 14.1573V19.8616C226.996 21.2405 225.878 22.3584 224.499 22.3584H223.247ZM216.814 22.6373C215.568 22.6373 214.527 22.4234 213.69 21.9957C212.853 21.568 212.221 21.0008 211.793 20.2941C211.365 19.5689 211.151 18.7692 211.151 17.8952C211.151 16.9096 211.402 16.0727 211.905 15.3847C212.407 14.6966 213.169 14.1759 214.192 13.8226C215.233 13.4692 216.544 13.2926 218.125 13.2926H219.785C220.624 13.2926 221.305 13.9732 221.305 14.8128C221.305 15.6524 220.624 16.3331 219.785 16.3331H219.129C218.46 16.3331 217.967 16.4447 217.651 16.6678C217.353 16.8724 217.205 17.1885 217.205 17.6162C217.205 17.9696 217.335 18.2671 217.595 18.5089C217.874 18.732 218.246 18.8436 218.711 18.8436C219.139 18.8436 219.529 18.732 219.882 18.5089C220.296 18.2402 221.054 18.2304 221.25 18.6829L221.412 19.0586C221.47 19.1909 221.485 19.3382 221.45 19.478C221.191 20.5044 220.697 21.2785 219.966 21.8005C219.185 22.3583 218.134 22.6373 216.814 22.6373Z" fill="#052850"/>
<path d="M65.6186 34.8438V29.5836H70.0447V34.8438H69.4961V29.9142L69.6389 30.0645H66.0244L66.1672 29.9142V34.8438H65.6186ZM74.1266 34.8888C73.7308 34.8888 73.3626 34.8237 73.0219 34.6935C72.6863 34.5582 72.3932 34.3703 72.1427 34.1299C71.8972 33.8844 71.7044 33.6013 71.5641 33.2807C71.4288 32.9551 71.3612 32.5994 71.3612 32.2137C71.3612 31.8279 71.4288 31.4747 71.5641 31.1541C71.7044 30.8285 71.8972 30.5454 72.1427 30.3049C72.3932 30.0595 72.6863 29.8716 73.0219 29.7414C73.3576 29.6061 73.7258 29.5385 74.1266 29.5385C74.5223 29.5385 74.888 29.6061 75.2237 29.7414C75.5593 29.8716 75.8499 30.057 76.0954 30.2974C76.3459 30.5379 76.5387 30.821 76.674 31.1466C76.8143 31.4722 76.8844 31.8279 76.8844 32.2137C76.8844 32.5994 76.8143 32.9551 76.674 33.2807C76.5387 33.6064 76.3459 33.8894 76.0954 34.1299C75.8499 34.3703 75.5593 34.5582 75.2237 34.6935C74.888 34.8237 74.5223 34.8888 74.1266 34.8888ZM74.1266 34.3929C74.4422 34.3929 74.7327 34.3403 74.9982 34.2351C75.2688 34.1249 75.5017 33.9721 75.6971 33.7767C75.8975 33.5763 76.0528 33.3458 76.163 33.0853C76.2732 32.8198 76.3283 32.5293 76.3283 32.2137C76.3283 31.898 76.2732 31.61 76.163 31.3495C76.0528 31.084 75.8975 30.8535 75.6971 30.6581C75.5017 30.4577 75.2688 30.305 74.9982 30.1997C74.7327 30.0895 74.4422 30.0344 74.1266 30.0344C73.8109 30.0344 73.5179 30.0895 73.2474 30.1997C72.9768 30.305 72.7414 30.4577 72.541 30.6581C72.3456 30.8535 72.1903 31.084 72.0751 31.3495C71.9649 31.61 71.9098 31.898 71.9098 32.2137C71.9098 32.5243 71.9649 32.8123 72.0751 33.0778C72.1903 33.3433 72.3456 33.5763 72.541 33.7767C72.7414 33.9721 72.9768 34.1249 73.2474 34.2351C73.5179 34.3403 73.8109 34.3929 74.1266 34.3929ZM81.8109 34.8438L79.7894 32.2212L80.2403 31.9506L82.4496 34.8438H81.8109ZM78.2114 34.8438V29.5836H78.7524V34.8438H78.2114ZM78.5871 32.4316V31.9431H80.2328V32.4316H78.5871ZM80.2854 32.2738L79.7744 32.1836L81.7357 29.5836H82.3369L80.2854 32.2738ZM83.2288 34.3252C83.4843 34.4254 83.7247 34.4505 83.9502 34.4004C84.1756 34.3453 84.3835 34.1674 84.5739 33.8669L84.8294 33.4611L84.882 33.3934L86.8959 29.5836H87.4519L85.0623 33.9871C84.902 34.2927 84.7116 34.5206 84.4912 34.6709C84.2758 34.8212 84.0453 34.9014 83.7999 34.9114C83.5594 34.9214 83.3164 34.8763 83.071 34.7761L83.2288 34.3252ZM84.8669 33.8969L82.59 29.5836H83.1837L85.1675 33.4385L84.8669 33.8969ZM88.3164 34.8438V29.5836H92.7425V34.8438H92.1939V29.9142L92.3367 30.0645H88.7222L88.865 29.9142V34.8438H88.3164ZM93.7434 34.8438L96.1481 29.5836H96.6966L99.1013 34.8438H98.5152L96.3059 29.9067H96.5313L94.322 34.8438H93.7434ZM94.6902 33.4385L94.8556 32.9877H97.914L98.0793 33.4385H94.6902ZM100.109 34.8438V29.5836H100.658V33.942L104.024 29.5836H104.528V34.8438H103.979V30.4928L100.613 34.8438H100.109ZM102.304 29.2003C101.928 29.2003 101.63 29.1151 101.409 28.9448C101.194 28.7745 101.084 28.5365 101.079 28.2309H101.492C101.497 28.4313 101.572 28.5891 101.717 28.7043C101.868 28.8196 102.063 28.8772 102.304 28.8772C102.544 28.8772 102.737 28.8196 102.882 28.7043C103.032 28.5891 103.11 28.4313 103.115 28.2309H103.528C103.523 28.5365 103.411 28.7745 103.19 28.9448C102.97 29.1151 102.674 29.2003 102.304 29.2003ZM108.27 34.8438V29.5836H112.117V30.057H108.818V31.7778H110.539C111.16 31.7778 111.631 31.9056 111.952 32.161C112.277 32.4115 112.44 32.7823 112.44 33.2732C112.44 33.7792 112.265 34.1674 111.914 34.438C111.569 34.7085 111.07 34.8438 110.419 34.8438H108.27ZM108.818 34.4004H110.411C110.897 34.4004 111.263 34.3077 111.508 34.1224C111.759 33.932 111.884 33.6564 111.884 33.2957C111.884 32.5794 111.393 32.2212 110.411 32.2212H108.818V34.4004ZM113.199 34.8888C113.129 34.8888 113.062 34.8838 112.997 34.8738C112.931 34.8688 112.859 34.8563 112.779 34.8362L112.824 34.3403C112.909 34.3603 112.992 34.3703 113.072 34.3703C113.297 34.3703 113.477 34.2827 113.613 34.1073C113.753 33.927 113.858 33.6514 113.928 33.2807C113.998 32.905 114.044 32.4241 114.064 31.8379L114.139 29.5836H117.708V34.8438H117.16V29.9142L117.302 30.0645H114.492L114.627 29.9067L114.56 31.8229C114.54 32.3489 114.502 32.8048 114.447 33.1905C114.392 33.5713 114.312 33.8894 114.206 34.1449C114.101 34.3954 113.966 34.5832 113.801 34.7085C113.635 34.8287 113.435 34.8888 113.199 34.8888ZM119.483 34.8438V29.5836H120.031V33.942L123.398 29.5836H123.901V34.8438H123.353V30.4928L119.986 34.8438H119.483ZM125.053 34.2125L125.256 33.8143C125.486 34.0146 125.744 34.1649 126.03 34.2651C126.32 34.3603 126.611 34.4104 126.901 34.4154C127.192 34.4154 127.457 34.3728 127.698 34.2877C127.943 34.2025 128.141 34.0773 128.292 33.9119C128.442 33.7416 128.517 33.5362 128.517 33.2957C128.517 32.9902 128.394 32.7547 128.149 32.5894C127.908 32.4241 127.573 32.3414 127.142 32.3414H126.015V31.8905H127.112C127.482 31.8905 127.771 31.8129 127.976 31.6576C128.186 31.4973 128.292 31.2768 128.292 30.9963C128.292 30.7959 128.231 30.6256 128.111 30.4853C127.996 30.34 127.836 30.2298 127.63 30.1547C127.43 30.0745 127.204 30.0319 126.954 30.0269C126.703 30.0169 126.443 30.0495 126.172 30.1246C125.907 30.1947 125.649 30.3075 125.398 30.4628L125.218 30.0044C125.529 29.819 125.852 29.6913 126.187 29.6211C126.523 29.546 126.849 29.5209 127.164 29.546C127.48 29.571 127.763 29.6437 128.013 29.7639C128.269 29.8841 128.472 30.0419 128.622 30.2373C128.772 30.4327 128.848 30.6656 128.848 30.9362C128.848 31.1867 128.782 31.4071 128.652 31.5975C128.527 31.7878 128.349 31.9356 128.119 32.0408C127.893 32.141 127.625 32.1911 127.315 32.1911L127.345 32.0258C127.695 32.0258 127.998 32.0809 128.254 32.1911C128.514 32.3013 128.715 32.4591 128.855 32.6645C129 32.8649 129.073 33.1004 129.073 33.3709C129.073 33.6264 129.008 33.8543 128.878 34.0547C128.752 34.2501 128.577 34.4154 128.352 34.5507C128.131 34.6809 127.883 34.7761 127.608 34.8362C127.332 34.8913 127.044 34.9064 126.744 34.8813C126.443 34.8563 126.147 34.7911 125.857 34.6859C125.566 34.5757 125.298 34.4179 125.053 34.2125ZM134.053 34.8438L132.032 32.2212L132.483 31.9506L134.692 34.8438H134.053ZM130.454 34.8438V29.5836H130.995V34.8438H130.454ZM130.83 32.4316V31.9431H132.475V32.4316H130.83ZM132.528 32.2738L132.017 32.1836L133.978 29.5836H134.579L132.528 32.2738ZM137.846 34.8888C137.451 34.8888 137.082 34.8237 136.742 34.6935C136.406 34.5582 136.113 34.3703 135.862 34.1299C135.617 33.8844 135.424 33.6013 135.284 33.2807C135.149 32.9551 135.081 32.5994 135.081 32.2137C135.081 31.8279 135.149 31.4747 135.284 31.1541C135.424 30.8285 135.617 30.5454 135.862 30.3049C136.113 30.0595 136.406 29.8716 136.742 29.7414C137.077 29.6061 137.446 29.5385 137.846 29.5385C138.242 29.5385 138.608 29.6061 138.943 29.7414C139.279 29.8716 139.57 30.057 139.815 30.2974C140.066 30.5379 140.258 30.821 140.394 31.1466C140.534 31.4722 140.604 31.8279 140.604 32.2137C140.604 32.5994 140.534 32.9551 140.394 33.2807C140.258 33.6064 140.066 33.8894 139.815 34.1299C139.57 34.3703 139.279 34.5582 138.943 34.6935C138.608 34.8237 138.242 34.8888 137.846 34.8888ZM137.846 34.3929C138.162 34.3929 138.452 34.3403 138.718 34.2351C138.989 34.1249 139.221 33.9721 139.417 33.7767C139.617 33.5763 139.773 33.3458 139.883 33.0853C139.993 32.8198 140.048 32.5293 140.048 32.2137C140.048 31.898 139.993 31.61 139.883 31.3495C139.773 31.084 139.617 30.8535 139.417 30.6581C139.221 30.4577 138.989 30.305 138.718 30.1997C138.452 30.0895 138.162 30.0344 137.846 30.0344C137.531 30.0344 137.238 30.0895 136.967 30.1997C136.697 30.305 136.461 30.4577 136.261 30.6581C136.065 30.8535 135.91 31.084 135.795 31.3495C135.685 31.61 135.629 31.898 135.629 32.2137C135.629 32.5243 135.685 32.8123 135.795 33.0778C135.91 33.3433 136.065 33.5763 136.261 33.7767C136.461 33.9721 136.697 34.1249 136.967 34.2351C137.238 34.3403 137.531 34.3929 137.846 34.3929ZM141.318 35.9409L141.649 34.5507L141.709 34.8738C141.594 34.8738 141.496 34.8362 141.416 34.7611C141.341 34.6859 141.303 34.5883 141.303 34.468C141.303 34.3478 141.341 34.2501 141.416 34.175C141.496 34.0998 141.591 34.0622 141.702 34.0622C141.817 34.0622 141.91 34.1023 141.98 34.1825C142.055 34.2626 142.092 34.3578 142.092 34.468C142.092 34.5081 142.09 34.5482 142.085 34.5883C142.08 34.6283 142.07 34.6734 142.055 34.7235C142.04 34.7736 142.02 34.8337 141.995 34.9039L141.679 35.9409H141.318ZM145.253 34.3252C145.509 34.4254 145.749 34.4505 145.975 34.4004C146.2 34.3453 146.408 34.1674 146.598 33.8669L146.854 33.4611L146.907 33.3934L148.92 29.5836H149.476L147.087 33.9871C146.927 34.2927 146.736 34.5206 146.516 34.6709C146.3 34.8212 146.07 34.9014 145.824 34.9114C145.584 34.9214 145.341 34.8763 145.096 34.7761L145.253 34.3252ZM146.891 33.8969L144.615 29.5836H145.208L147.192 33.4385L146.891 33.8969ZM153.784 34.5807V30.0645H151.266L151.221 31.342C151.206 31.7377 151.181 32.1185 151.146 32.4842C151.116 32.8449 151.066 33.1705 150.996 33.4611C150.931 33.7466 150.841 33.9796 150.725 34.1599C150.615 34.3403 150.47 34.4455 150.29 34.4755L149.681 34.3628C149.881 34.3728 150.047 34.3002 150.177 34.1449C150.312 33.9896 150.415 33.7717 150.485 33.4911C150.56 33.2106 150.615 32.8824 150.65 32.5067C150.685 32.131 150.71 31.7252 150.725 31.2894L150.786 29.5836H154.332V34.5807H153.784ZM149.486 36.0235L149.493 34.3628H155.121V36.0235H154.603V34.8438H150.012L150.004 36.0235H149.486ZM158.563 34.8888C158.167 34.8888 157.799 34.8237 157.458 34.6935C157.122 34.5582 156.829 34.3703 156.579 34.1299C156.333 33.8844 156.141 33.6013 156 33.2807C155.865 32.9551 155.797 32.5994 155.797 32.2137C155.797 31.8279 155.865 31.4747 156 31.1541C156.141 30.8285 156.333 30.5454 156.579 30.3049C156.829 30.0595 157.122 29.8716 157.458 29.7414C157.794 29.6061 158.162 29.5385 158.563 29.5385C158.958 29.5385 159.324 29.6061 159.66 29.7414C159.996 29.8716 160.286 30.057 160.532 30.2974C160.782 30.5379 160.975 30.821 161.11 31.1466C161.25 31.4722 161.321 31.8279 161.321 32.2137C161.321 32.5994 161.25 32.9551 161.11 33.2807C160.975 33.6064 160.782 33.8894 160.532 34.1299C160.286 34.3703 159.996 34.5582 159.66 34.6935C159.324 34.8237 158.958 34.8888 158.563 34.8888ZM158.563 34.3929C158.878 34.3929 159.169 34.3403 159.434 34.2351C159.705 34.1249 159.938 33.9721 160.133 33.7767C160.334 33.5763 160.489 33.3458 160.599 33.0853C160.709 32.8198 160.764 32.5293 160.764 32.2137C160.764 31.898 160.709 31.61 160.599 31.3495C160.489 31.084 160.334 30.8535 160.133 30.6581C159.938 30.4577 159.705 30.305 159.434 30.1997C159.169 30.0895 158.878 30.0344 158.563 30.0344C158.247 30.0344 157.954 30.0895 157.684 30.1997C157.413 30.305 157.178 30.4577 156.977 30.6581C156.782 30.8535 156.626 31.084 156.511 31.3495C156.401 31.61 156.346 31.898 156.346 32.2137C156.346 32.5243 156.401 32.8123 156.511 33.0778C156.626 33.3433 156.782 33.5763 156.977 33.7767C157.178 33.9721 157.413 34.1249 157.684 34.2351C157.954 34.3403 158.247 34.3929 158.563 34.3929ZM162.648 34.8438V29.5836H166.495V30.057H163.196V31.7778H164.917C165.538 31.7778 166.009 31.9056 166.33 32.161C166.655 32.4115 166.818 32.7823 166.818 33.2732C166.818 33.7792 166.643 34.1674 166.292 34.438C165.946 34.7085 165.448 34.8438 164.797 34.8438H162.648ZM163.196 34.4004H164.789C165.275 34.4004 165.641 34.3077 165.886 34.1224C166.137 33.932 166.262 33.6564 166.262 33.2957C166.262 32.5794 165.771 32.2212 164.789 32.2212H163.196V34.4004ZM171.947 29.5836H172.496V34.8438H171.947V29.5836ZM168.656 34.8438H168.1V29.5836H168.656V34.8438ZM172 32.4165H168.596V31.9281H172V32.4165ZM176.579 34.8888C176.183 34.8888 175.815 34.8237 175.474 34.6935C175.138 34.5582 174.845 34.3703 174.595 34.1299C174.349 33.8844 174.156 33.6013 174.016 33.2807C173.881 32.9551 173.813 32.5994 173.813 32.2137C173.813 31.8279 173.881 31.4747 174.016 31.1541C174.156 30.8285 174.349 30.5454 174.595 30.3049C174.845 30.0595 175.138 29.8716 175.474 29.7414C175.81 29.6061 176.178 29.5385 176.579 29.5385C176.974 29.5385 177.34 29.6061 177.676 29.7414C178.011 29.8716 178.302 30.057 178.547 30.2974C178.798 30.5379 178.991 30.821 179.126 31.1466C179.266 31.4722 179.336 31.8279 179.336 32.2137C179.336 32.5994 179.266 32.9551 179.126 33.2807C178.991 33.6064 178.798 33.8894 178.547 34.1299C178.302 34.3703 178.011 34.5582 177.676 34.6935C177.34 34.8237 176.974 34.8888 176.579 34.8888ZM176.579 34.3929C176.894 34.3929 177.185 34.3403 177.45 34.2351C177.721 34.1249 177.954 33.9721 178.149 33.7767C178.35 33.5763 178.505 33.3458 178.615 33.0853C178.725 32.8198 178.78 32.5293 178.78 32.2137C178.78 31.898 178.725 31.61 178.615 31.3495C178.505 31.084 178.35 30.8535 178.149 30.6581C177.954 30.4577 177.721 30.305 177.45 30.1997C177.185 30.0895 176.894 30.0344 176.579 30.0344C176.263 30.0344 175.97 30.0895 175.699 30.1997C175.429 30.305 175.193 30.4577 174.993 30.6581C174.798 30.8535 174.642 31.084 174.527 31.3495C174.417 31.61 174.362 31.898 174.362 32.2137C174.362 32.5243 174.417 32.8123 174.527 33.0778C174.642 33.3433 174.798 33.5763 174.993 33.7767C175.193 33.9721 175.429 34.1249 175.699 34.2351C175.97 34.3403 176.263 34.3929 176.579 34.3929ZM180.051 35.9409L180.381 34.5507L180.442 34.8738C180.326 34.8738 180.229 34.8362 180.148 34.7611C180.073 34.6859 180.036 34.5883 180.036 34.468C180.036 34.3478 180.073 34.2501 180.148 34.175C180.229 34.0998 180.324 34.0622 180.434 34.0622C180.549 34.0622 180.642 34.1023 180.712 34.1825C180.787 34.2626 180.825 34.3578 180.825 34.468C180.825 34.5081 180.822 34.5482 180.817 34.5883C180.812 34.6283 180.802 34.6734 180.787 34.7235C180.772 34.7736 180.752 34.8337 180.727 34.9039L180.411 35.9409H180.051ZM184.076 34.8438V29.5836H186.263C186.819 29.5836 187.254 29.6988 187.57 29.9292C187.891 30.1547 188.051 30.4878 188.051 30.9287C188.051 31.3645 187.898 31.6951 187.593 31.9206C187.287 32.141 186.886 32.2512 186.39 32.2512L186.518 32.0634C187.104 32.0634 187.55 32.1786 187.856 32.409C188.161 32.6395 188.314 32.9776 188.314 33.4235C188.314 33.8744 188.154 34.2251 187.833 34.4755C187.517 34.721 187.042 34.8438 186.405 34.8438H184.076ZM184.624 34.4004H186.405C186.851 34.4004 187.189 34.3177 187.42 34.1524C187.65 33.9871 187.765 33.7316 187.765 33.3859C187.765 33.0453 187.65 32.7948 187.42 32.6345C187.189 32.4742 186.851 32.394 186.405 32.394H184.624V34.4004ZM184.624 31.9657H186.232C186.638 31.9657 186.949 31.8855 187.164 31.7252C187.385 31.5599 187.495 31.3169 187.495 30.9963C187.495 30.6757 187.385 30.4352 187.164 30.2749C186.949 30.1096 186.638 30.0269 186.232 30.0269H184.624V31.9657ZM191.906 31.4622C192.527 31.4622 193.001 31.6025 193.326 31.883C193.657 32.1585 193.822 32.5693 193.822 33.1154C193.822 33.6815 193.647 34.1123 193.296 34.4079C192.946 34.6985 192.445 34.8438 191.793 34.8438H189.704V29.5836H190.253V31.4622H191.906ZM191.778 34.4004C192.264 34.4004 192.633 34.2927 192.883 34.0773C193.139 33.8618 193.266 33.5462 193.266 33.1304C193.266 32.7146 193.141 32.409 192.891 32.2137C192.64 32.0133 192.269 31.9131 191.778 31.9131H190.253V34.4004H191.778ZM194.732 34.8438V29.5836H195.28V34.8438H194.732ZM197.05 34.8438V29.5836H200.394V30.0645H197.448L197.591 29.9217L197.599 34.8438H197.05ZM202.938 34.8888C202.543 34.8888 202.174 34.8237 201.834 34.6935C201.498 34.5582 201.205 34.3703 200.954 34.1299C200.709 33.8844 200.516 33.6013 200.376 33.2807C200.241 32.9551 200.173 32.5994 200.173 32.2137C200.173 31.8279 200.241 31.4747 200.376 31.1541C200.516 30.8285 200.709 30.5454 200.954 30.3049C201.205 30.0595 201.498 29.8716 201.834 29.7414C202.169 29.6061 202.538 29.5385 202.938 29.5385C203.334 29.5385 203.7 29.6061 204.035 29.7414C204.371 29.8716 204.662 30.057 204.907 30.2974C205.158 30.5379 205.35 30.821 205.486 31.1466C205.626 31.4722 205.696 31.8279 205.696 32.2137C205.696 32.5994 205.626 32.9551 205.486 33.2807C205.35 33.6064 205.158 33.8894 204.907 34.1299C204.662 34.3703 204.371 34.5582 204.035 34.6935C203.7 34.8237 203.334 34.8888 202.938 34.8888ZM202.938 34.3929C203.254 34.3929 203.544 34.3403 203.81 34.2351C204.081 34.1249 204.313 33.9721 204.509 33.7767C204.709 33.5763 204.865 33.3458 204.975 33.0853C205.085 32.8198 205.14 32.5293 205.14 32.2137C205.14 31.898 205.085 31.61 204.975 31.3495C204.865 31.084 204.709 30.8535 204.509 30.6581C204.313 30.4577 204.081 30.305 203.81 30.1997C203.544 30.0895 203.254 30.0344 202.938 30.0344C202.623 30.0344 202.33 30.0895 202.059 30.1997C201.789 30.305 201.553 30.4577 201.353 30.6581C201.157 30.8535 201.002 31.084 200.887 31.3495C200.777 31.61 200.722 31.898 200.722 32.2137C200.722 32.5243 200.777 32.8123 200.887 33.0778C201.002 33.3433 201.157 33.5763 201.353 33.7767C201.553 33.9721 201.789 34.1249 202.059 34.2351C202.33 34.3403 202.623 34.3929 202.938 34.3929ZM210.371 34.5807V30.0645H207.853L207.808 31.342C207.793 31.7377 207.768 32.1185 207.733 32.4842C207.703 32.8449 207.653 33.1705 207.583 33.4611C207.518 33.7466 207.427 33.9796 207.312 34.1599C207.202 34.3403 207.057 34.4455 206.876 34.4755L206.268 34.3628C206.468 34.3728 206.633 34.3002 206.764 34.1449C206.899 33.9896 207.002 33.7717 207.072 33.4911C207.147 33.2106 207.202 32.8824 207.237 32.5067C207.272 32.131 207.297 31.7252 207.312 31.2894L207.372 29.5836H210.919V34.5807H210.371ZM206.072 36.0235L206.08 34.3628H211.708V36.0235H211.19V34.8438H206.598L206.591 36.0235H206.072ZM216.69 29.5836H217.239V34.8438H216.69V29.5836ZM213.399 34.8438H212.843V29.5836H213.399V34.8438ZM216.743 32.4165H213.338V31.9281H216.743V32.4165ZM221.321 34.8888C220.925 34.8888 220.557 34.8237 220.216 34.6935C219.881 34.5582 219.588 34.3703 219.337 34.1299C219.092 33.8844 218.899 33.6013 218.759 33.2807C218.623 32.9551 218.556 32.5994 218.556 32.2137C218.556 31.8279 218.623 31.4747 218.759 31.1541C218.899 30.8285 219.092 30.5454 219.337 30.3049C219.588 30.0595 219.881 29.8716 220.216 29.7414C220.552 29.6061 220.92 29.5385 221.321 29.5385C221.717 29.5385 222.083 29.6061 222.418 29.7414C222.754 29.8716 223.044 30.057 223.29 30.2974C223.54 30.5379 223.733 30.821 223.869 31.1466C224.009 31.4722 224.079 31.8279 224.079 32.2137C224.079 32.5994 224.009 32.9551 223.869 33.2807C223.733 33.6064 223.54 33.8894 223.29 34.1299C223.044 34.3703 222.754 34.5582 222.418 34.6935C222.083 34.8237 221.717 34.8888 221.321 34.8888ZM221.321 34.3929C221.637 34.3929 221.927 34.3403 222.193 34.2351C222.463 34.1249 222.696 33.9721 222.892 33.7767C223.092 33.5763 223.247 33.3458 223.358 33.0853C223.468 32.8198 223.523 32.5293 223.523 32.2137C223.523 31.898 223.468 31.61 223.358 31.3495C223.247 31.084 223.092 30.8535 222.892 30.6581C222.696 30.4577 222.463 30.305 222.193 30.1997C221.927 30.0895 221.637 30.0344 221.321 30.0344C221.006 30.0344 220.712 30.0895 220.442 30.1997C220.171 30.305 219.936 30.4577 219.736 30.6581C219.54 30.8535 219.385 31.084 219.27 31.3495C219.159 31.61 219.104 31.898 219.104 32.2137C219.104 32.5243 219.159 32.8123 219.27 33.0778C219.385 33.3433 219.54 33.5763 219.736 33.7767C219.936 33.9721 220.171 34.1249 220.442 34.2351C220.712 34.3403 221.006 34.3929 221.321 34.3929ZM225.286 33.2657L225.181 29.5836H225.812L225.699 33.2657H225.286ZM225.496 34.8813C225.386 34.8813 225.291 34.8438 225.211 34.7686C225.135 34.6884 225.098 34.5958 225.098 34.4906C225.098 34.3804 225.135 34.2902 225.211 34.22C225.291 34.1449 225.386 34.1073 225.496 34.1073C225.611 34.1073 225.704 34.1449 225.774 34.22C225.849 34.2902 225.887 34.3804 225.887 34.4906C225.887 34.5958 225.849 34.6884 225.774 34.7686C225.704 34.8438 225.611 34.8813 225.496 34.8813Z" fill="#052850"/>
<rect width="11.7089" height="37.4683" rx="5.85443" transform="matrix(-1 0 0 1 12.0625 0.429688)" fill="#0075FF"/>
<path d="M52.9984 8.6575C52.9984 4.01122 49.2053 0.269531 44.4953 0.269531C39.7852 0.269531 35.9922 4.01122 35.9922 8.6575C35.9922 13.3038 44.4953 21.9796 44.4953 21.9796C44.4953 21.9796 52.9984 13.3038 52.9984 8.6575ZM40.5355 8.49303C40.5355 6.35492 42.3278 4.58687 44.4953 4.58687C46.6627 4.58687 48.4551 6.3138 48.4551 8.49303C48.4551 10.6311 46.7044 12.3992 44.4953 12.3992C42.3278 12.3992 40.5355 10.6311 40.5355 8.49303Z" fill="#FD0A5A"/>
<circle cx="44.3177" cy="31.388" r="6.51301" fill="#0075FF"/>
<path d="M46.5879 29.3662C46.5894 29.3663 46.5917 29.367 46.5947 29.3672C46.6012 29.3677 46.6112 29.3681 46.623 29.3701C46.6469 29.3742 46.6789 29.3832 46.7119 29.3994C46.7761 29.4311 46.847 29.4938 46.8672 29.626V29.6299L46.8682 29.6318V29.6367L46.8691 29.6387V29.6436L46.8701 29.6445V29.6494L46.8711 29.6514V29.6562L46.8721 29.6582V29.6631L46.873 29.6641V29.6689L46.874 29.6709V29.6748L46.875 29.6768V29.6816L46.876 29.6826V29.6875L46.877 29.6885V29.6943L46.8779 29.6963V29.7002L46.8789 29.7021V29.708L46.8799 29.709V29.7129L46.8809 29.7148V29.7197L46.8818 29.7217V29.7266L46.8828 29.7275V29.7334L46.8838 29.7344V29.7393L46.8848 29.7402V29.7461L46.8857 29.7471V29.752L46.8867 29.7529V29.7588L46.8877 29.7598V29.7646L46.8887 29.7656V29.7715L46.8896 29.7725V29.7773L46.8906 29.7793V29.7842L46.8916 29.7852V29.79L46.8926 29.791V29.7969L46.8936 29.7979V29.8037L46.8945 29.8047V29.8105L46.8955 29.8115V29.8164L46.8965 29.8174V29.8223L46.8975 29.8232V29.8291L46.8984 29.8301V29.8359L46.8994 29.8369V29.8418L46.9004 29.8428V29.8486L46.9014 29.8496V29.8555H46.9023V29.8613L46.9033 29.8623V29.8682L46.9043 29.8691V29.875H46.9053V29.8809L46.9062 29.8818V29.8867L46.9072 29.8877V29.8936L46.9082 29.8945V29.9004H46.9092V29.9062L46.9102 29.9072V29.9131H46.9111V29.9199H46.9121V29.9219L47.002 30.5137L47.1816 31.6963L47.3887 33.0576C47.465 33.5608 47.0754 34.0137 46.5664 34.0137H42.0869C41.5779 34.0137 41.1883 33.5608 41.2646 33.0576L41.4717 31.6963L41.6514 30.5137L41.7412 29.9219H41.7422V29.915H41.7432V29.9092H41.7441V29.9023H41.7451V29.8965L41.7461 29.8955V29.8896H41.7471V29.8838L41.748 29.8828V29.877H41.749V29.8701H41.75V29.8643L41.751 29.8633V29.8574H41.752V29.8516L41.7529 29.8506V29.8447H41.7539V29.8389L41.7549 29.8379V29.832H41.7559V29.8262L41.7568 29.8252V29.8193L41.7578 29.8184V29.8135L41.7588 29.8125V29.8066L41.7598 29.8057V29.7998L41.7607 29.7988V29.7939L41.7617 29.793V29.7871L41.7627 29.7861V29.7812L41.7637 29.7803V29.7744L41.7646 29.7734V29.7676L41.7656 29.7666V29.7627L41.7666 29.7607V29.7549L41.7676 29.7539V29.749L41.7686 29.748V29.7432L41.7695 29.7422V29.7354L41.7705 29.7344V29.7295L41.7715 29.7275V29.7236L41.7725 29.7227V29.7168L41.7734 29.7158V29.71L41.7744 29.709V29.7051L41.7754 29.7031V29.6973L41.7764 29.6963V29.6914L41.7773 29.6904V29.6846L41.7783 29.6826V29.6787L41.7793 29.6768V29.6719L41.7803 29.6709V29.666L41.7812 29.6641V29.6592L41.7822 29.6582V29.6533L41.7832 29.6514V29.6465L41.7842 29.6445V29.6396L41.7852 29.6387V29.6328L41.7861 29.6318V29.6279L41.7871 29.626C41.8074 29.4931 41.876 29.4298 41.9375 29.3984C41.969 29.3824 41.9998 29.3742 42.0225 29.3701C42.0336 29.3681 42.0427 29.3677 42.0488 29.3672C42.0519 29.3669 42.0542 29.3663 42.0557 29.3662H46.5879Z" fill="white" stroke="white" stroke-width="0.0842267"/>
<mask id="path-7-inside-1_1158_13903" fill="white">
<path d="M45.3742 28.9281C45.4808 28.9281 45.5687 28.8412 45.5517 28.736C45.5116 28.4875 45.3943 28.256 45.2141 28.0757C44.988 27.8497 44.6814 27.7227 44.3617 27.7227C44.042 27.7227 43.7354 27.8497 43.5093 28.0757C43.329 28.256 43.2118 28.4875 43.1717 28.736C43.1547 28.8412 43.2426 28.9281 43.3492 28.9281C43.4557 28.9281 43.5399 28.8406 43.5647 28.7369C43.5997 28.5911 43.6744 28.4564 43.7822 28.3486C43.9359 28.1949 44.1443 28.1085 44.3617 28.1085C44.5791 28.1085 44.7875 28.1949 44.9412 28.3486C45.049 28.4564 45.1237 28.5911 45.1587 28.7369C45.1835 28.8406 45.2677 28.9281 45.3742 28.9281Z"/>
</mask>
<path d="M45.3742 28.9281C45.4808 28.9281 45.5687 28.8412 45.5517 28.736C45.5116 28.4875 45.3943 28.256 45.2141 28.0757C44.988 27.8497 44.6814 27.7227 44.3617 27.7227C44.042 27.7227 43.7354 27.8497 43.5093 28.0757C43.329 28.256 43.2118 28.4875 43.1717 28.736C43.1547 28.8412 43.2426 28.9281 43.3492 28.9281C43.4557 28.9281 43.5399 28.8406 43.5647 28.7369C43.5997 28.5911 43.6744 28.4564 43.7822 28.3486C43.9359 28.1949 44.1443 28.1085 44.3617 28.1085C44.5791 28.1085 44.7875 28.1949 44.9412 28.3486C45.049 28.4564 45.1237 28.5911 45.1587 28.7369C45.1835 28.8406 45.2677 28.9281 45.3742 28.9281Z" fill="white" stroke="white" stroke-width="1.68453" mask="url(#path-7-inside-1_1158_13903)"/>
<rect x="30.4609" y="10.5879" width="11.7089" height="19.8061" rx="5.85443" transform="rotate(45 30.4609 10.5879)" fill="#0075FF"/>
<rect width="11.7089" height="37.4683" rx="5.85443" transform="matrix(-0.707107 0.707107 0.707107 0.707107 6.28125 -1.90234)" fill="#0075FF"/>
</svg>
