<svg width="23" height="23" viewBox="0 0 23 23" fill="none" xmlns="http://www.w3.org/2000/svg">
<path d="M16.6246 14.0824C16.3963 14.0837 16.1765 13.9953 16.0121 13.8358L12.3021 10.2257C11.7325 9.67741 11.2791 9.01868 10.9694 8.28926C10.6597 7.55984 10.5 6.77484 10.5 5.98163C10.5 5.18841 10.6597 4.40341 10.9694 3.67399C11.2791 2.94457 11.7325 2.28584 12.3021 1.73755C13.4682 0.622038 15.0156 0 16.6246 0C18.2335 0 19.781 0.622038 20.9471 1.73755C21.5167 2.28584 21.97 2.94457 22.2798 3.67399C22.5895 4.40341 22.7492 5.18841 22.7492 5.98163C22.7492 6.77484 22.5895 7.55984 22.2798 8.28926C21.97 9.01868 21.5167 9.67741 20.9471 10.2257L17.2371 13.8358C17.0727 13.9953 16.8529 14.0837 16.6246 14.0824ZM16.6246 1.75516C15.4667 1.74803 14.3519 2.19675 13.5183 3.00549C13.117 3.38884 12.7973 3.8504 12.5789 4.36206C12.3605 4.87371 12.2478 5.42476 12.2478 5.98163C12.2478 6.5385 12.3605 7.08954 12.5789 7.60119C12.7973 8.11285 13.117 8.57441 13.5183 8.95776L16.6246 11.9779L19.7308 8.95776C20.1322 8.57441 20.4518 8.11285 20.6703 7.60119C20.8887 7.08954 21.0013 6.5385 21.0013 5.98163C21.0013 5.42476 20.8887 4.87371 20.6703 4.36206C20.4518 3.8504 20.1322 3.38884 19.7308 3.00549C18.8962 2.19834 17.7821 1.74989 16.6246 1.75516Z" fill="white"/>
<path d="M7.00001 22.8868C6.84673 22.8879 6.69586 22.8484 6.56251 22.7723L0.437507 19.2503C0.303978 19.1727 0.193191 19.061 0.116363 18.9265C0.0395349 18.792 -0.000605224 18.6394 6.89752e-06 18.4842V2.63499C-0.000605224 2.47983 0.0395349 2.32727 0.116363 2.19275C0.193191 2.05823 0.303978 1.94652 0.437507 1.86894C0.570524 1.79166 0.721412 1.75098 0.875007 1.75098C1.0286 1.75098 1.17949 1.79166 1.31251 1.86894L7.43751 5.391C7.57103 5.46857 7.68182 5.58028 7.75865 5.7148C7.83548 5.84933 7.87562 6.00189 7.87501 6.15704V22.0063C7.87562 22.1614 7.83548 22.314 7.75865 22.4485C7.68182 22.5831 7.57103 22.6948 7.43751 22.7723C7.30415 22.8484 7.15329 22.8879 7.00001 22.8868ZM1.75001 17.9735L6.12501 20.4918V6.66774L1.75001 4.14947V17.9735Z" fill="white"/>
<path d="M7.00001 22.8873C6.84673 22.8884 6.69586 22.8489 6.56251 22.7728C6.42898 22.6953 6.31819 22.5836 6.24136 22.449C6.16454 22.3145 6.12439 22.1619 6.12501 22.0068V6.15754C6.12439 6.00239 6.16454 5.84983 6.24136 5.7153C6.31819 5.58078 6.42898 5.46908 6.56251 5.3915L11.8125 2.37134C11.9129 2.31347 12.0237 2.27622 12.1385 2.26173C12.2533 2.24724 12.3698 2.2558 12.4813 2.28692C12.5927 2.31803 12.697 2.37109 12.788 2.44301C12.8789 2.51494 12.9548 2.6043 13.0113 2.70593C13.1253 2.90811 13.1553 3.14749 13.0947 3.37183C13.034 3.59618 12.8876 3.78727 12.6875 3.90343L7.87501 6.66824V20.4923L12.6875 17.7187C12.7875 17.6609 12.8978 17.6234 13.0121 17.6085C13.1265 17.5936 13.2426 17.6015 13.3539 17.6317C13.4652 17.662 13.5696 17.714 13.6609 17.7848C13.7522 17.8557 13.8288 17.9439 13.8863 18.0445C13.9437 18.1451 13.9809 18.2561 13.9957 18.3711C14.0106 18.4862 14.0027 18.6031 13.9727 18.7151C13.9426 18.8271 13.8909 18.9321 13.8205 19.024C13.7501 19.1159 13.6625 19.193 13.5625 19.2508L7.43751 22.7728C7.30415 22.8489 7.15329 22.8884 7.00001 22.8873Z" fill="white"/>
<path d="M19.25 22.8874C19.0967 22.8885 18.9459 22.849 18.8125 22.7729L12.6875 19.2509C12.554 19.1733 12.4432 19.0616 12.3664 18.9271C12.2895 18.7925 12.2494 18.64 12.25 18.4848V10.5602C12.25 10.3267 12.3422 10.1027 12.5063 9.93758C12.6704 9.77246 12.8929 9.67969 13.125 9.67969C13.3571 9.67969 13.5796 9.77246 13.7437 9.93758C13.9078 10.1027 14 10.3267 14 10.5602V17.9741L18.375 20.4924V11.4407C18.375 11.2072 18.4672 10.9832 18.6313 10.8181C18.7954 10.653 19.0179 10.5602 19.25 10.5602C19.4821 10.5602 19.7046 10.653 19.8687 10.8181C20.0328 10.9832 20.125 11.2072 20.125 11.4407V22.0069C20.1256 22.162 20.0855 22.3146 20.0086 22.4491C19.9318 22.5836 19.821 22.6953 19.6875 22.7729C19.5542 22.849 19.4033 22.8885 19.25 22.8874Z" fill="white"/>
<path d="M16.625 8.79968C16.1058 8.79968 15.5983 8.64476 15.1666 8.3545C14.735 8.06425 14.3985 7.6517 14.1998 7.16902C14.0011 6.68634 13.9492 6.15521 14.0504 5.6428C14.1517 5.1304 14.4017 4.65972 14.7688 4.29029C15.136 3.92087 15.6037 3.66928 16.1129 3.56736C16.6221 3.46543 17.1499 3.51775 17.6295 3.71768C18.1092 3.91761 18.5192 4.25618 18.8076 4.69058C19.096 5.12498 19.25 5.6357 19.25 6.15814C19.25 6.85872 18.9734 7.53061 18.4812 8.02599C17.9889 8.52138 17.3212 8.79968 16.625 8.79968ZM16.625 5.27763C16.4519 5.27763 16.2828 5.32927 16.1389 5.42602C15.995 5.52278 15.8828 5.66029 15.8166 5.82119C15.7504 5.98208 15.7331 6.15912 15.7668 6.32992C15.8006 6.50073 15.8839 6.65762 16.0063 6.78076C16.1287 6.9039 16.2846 6.98776 16.4543 7.02174C16.624 7.05571 16.8 7.03828 16.9598 6.97163C17.1197 6.90499 17.2564 6.79213 17.3525 6.64733C17.4487 6.50253 17.5 6.33229 17.5 6.15814C17.5 5.92462 17.4078 5.70065 17.2437 5.53553C17.0796 5.3704 16.8571 5.27763 16.625 5.27763Z" fill="white"/>
</svg>
