<svg width="40" height="40" viewBox="0 0 40 40" fill="none" xmlns="http://www.w3.org/2000/svg">
<g clip-path="url(#clip0_1158_2988)">
<path d="M20 40C31.0457 40 40 31.0457 40 20C40 8.95431 31.0457 0 20 0C8.95431 0 0 8.95431 0 20C0 31.0457 8.95431 40 20 40Z" fill="#4D76A1"/>
<path fill-rule="evenodd" clip-rule="evenodd" d="M19.2394 28.7707H20.8091C20.8091 28.7707 21.2833 28.7186 21.5254 28.4576C21.7482 28.218 21.7411 27.7681 21.7411 27.7681C21.7411 27.7681 21.7104 25.6618 22.688 25.3516C23.6517 25.0461 24.8891 27.3874 26.2008 28.2876C27.1926 28.9689 27.9463 28.8195 27.9463 28.8195L31.4534 28.7707C31.4534 28.7707 33.288 28.6576 32.4181 27.2152C32.3468 27.0971 31.9115 26.1481 29.8105 24.1979C27.6115 22.1569 27.906 22.487 30.5549 18.9564C32.1682 16.8062 32.8131 15.4935 32.6117 14.9313C32.4195 14.3958 31.233 14.5373 31.233 14.5373L27.2842 14.5619C27.2842 14.5619 26.9915 14.522 26.7744 14.6518C26.5623 14.7791 26.4257 15.0757 26.4257 15.0757C26.4257 15.0757 25.8008 16.7396 24.9672 18.1546C23.2089 21.1404 22.5058 21.298 22.2184 21.1126C21.55 20.6805 21.7168 19.3767 21.7168 18.4505C21.7168 15.557 22.1557 14.3505 20.8623 14.0382C20.433 13.9345 20.1171 13.866 19.0194 13.855C17.6104 13.8404 16.4179 13.8592 15.7426 14.1901C15.2934 14.4101 14.9469 14.9003 15.1579 14.9284C15.4189 14.9634 16.01 15.0878 16.3234 15.5146C16.7281 16.065 16.7138 17.3014 16.7138 17.3014C16.7138 17.3014 16.9462 20.7076 16.1708 21.1308C15.6385 21.421 14.9084 20.8285 13.3408 18.1196C12.5375 16.7321 11.9311 15.1983 11.9311 15.1983C11.9311 15.1983 11.8142 14.9117 11.6056 14.7584C11.3525 14.5726 10.9988 14.5135 10.9988 14.5135L7.24644 14.5381C7.24644 14.5381 6.68314 14.5537 6.47636 14.7987C6.29239 15.0165 6.46174 15.4671 6.46174 15.4671C6.46174 15.4671 9.39945 22.3401 12.7258 25.8037C15.7758 28.9792 19.2394 28.7707 19.2394 28.7707Z" fill="white"/>
</g>
<defs>
<clipPath id="clip0_1158_2988">
<rect width="40" height="40" fill="white"/>
</clipPath>
</defs>
</svg>
