<svg width="18" height="18" viewBox="0 0 18 18" fill="none" xmlns="http://www.w3.org/2000/svg">
<path d="M0 2C0 0.895429 0.895431 0 2 0H5.82596C6.93052 0 7.82595 0.895431 7.82595 2V5.82596C7.82595 6.93052 6.93052 7.82595 5.82595 7.82595H2C0.895429 7.82595 0 6.93052 0 5.82595V2Z" fill="white"/>
<rect y="10.1738" width="7.82595" height="7.82595" rx="2" fill="white"/>
<rect x="10.1719" width="7.82595" height="7.82595" rx="2" fill="white"/>
<path d="M10.1719 12.1738C10.1719 11.0693 11.0673 10.1738 12.1719 10.1738H15.9978C17.1024 10.1738 17.9978 11.0693 17.9978 12.1738V17.9998H12.1719C11.0673 17.9998 10.1719 17.1044 10.1719 15.9998V12.1738Z" fill="white"/>
</svg>
