<svg width="21" height="21" viewBox="0 0 21 21" fill="none" xmlns="http://www.w3.org/2000/svg">
<path d="M9.32765 1H11.6772C12.794 1 13.7081 1.8787 13.7824 2.9907L13.7872 3.13701L13.7872 3.37445H14.9522C16.6355 3.37445 18 4.75646 18 6.46125V17.863C18 19.0432 17.0553 20 15.89 20H5.10999C3.94467 20 3 19.0432 3 17.863V6.46125C3 4.75646 4.36453 3.37445 6.04776 3.37445H7.21716L7.21767 3.13701C7.21767 2.00595 8.08526 1.08012 9.18319 1.00493L9.32765 1H11.6772H9.32765ZM14.9522 4.79913H6.04776C5.1414 4.79913 4.40666 5.54328 4.40666 6.46125V17.863C4.40666 18.2564 4.72155 18.5753 5.10999 18.5753H15.89C16.2785 18.5753 16.5933 18.2564 16.5933 17.863V6.46125C16.5933 5.54328 15.8586 4.79913 14.9522 4.79913ZM13.5505 11.9225C14.4568 11.9225 15.1916 12.6666 15.1916 13.5846V15.4814C15.1916 16.3994 14.4568 17.1435 13.5505 17.1435H7.45655C6.5502 17.1435 5.81545 16.3994 5.81545 15.4814V13.5846C5.81545 12.6666 6.5502 11.9225 7.45655 11.9225H13.5505ZM13.5505 13.3472H7.45655C7.32708 13.3472 7.22211 13.4535 7.22211 13.5846V15.4814C7.22211 15.6125 7.32708 15.7189 7.45655 15.7189H13.5505C13.68 15.7189 13.7849 15.6125 13.7849 15.4814V13.5846C13.7849 13.4535 13.68 13.3472 13.5505 13.3472ZM9.32996 8.12336H11.6744C12.0628 8.12336 12.3777 8.44229 12.3777 8.8357C12.3777 9.19633 12.1131 9.49437 11.7698 9.54154L11.6744 9.54804H9.32996C8.94152 9.54804 8.62663 9.22911 8.62663 8.8357C8.62663 8.47507 8.89123 8.17704 9.23452 8.12987L9.32996 8.12336H11.6744H9.32996ZM11.6772 2.42467H9.32765C8.97159 2.42467 8.67732 2.69266 8.63075 3.04035L8.62432 3.13701L8.62382 3.37445H12.3806V3.13701C12.3806 2.77638 12.116 2.47834 11.7727 2.43118L11.6772 2.42467Z" fill="#3E6897"/>
</svg>
