<svg width="21" height="21" viewBox="0 0 21 21" fill="none" xmlns="http://www.w3.org/2000/svg">
<g clip-path="url(#clip0_456_17497)">
<path d="M4.93489 3.73175L4.2682 3.06506C4.18142 2.97831 4.04075 2.97831 3.95397 3.06506L3.06506 3.95397C2.97831 4.04075 2.97831 4.18142 3.06506 4.2682L3.73175 4.93489C3.77341 4.97655 3.82992 5 3.88886 5H4.77777C4.9005 5 5 4.9005 5 4.77777V3.88886C5 3.82994 4.97658 3.77341 4.93489 3.73175ZM4.55554 4.55554H3.98086L3.53641 4.11109L4.11109 3.53641L4.55554 3.98086V4.55554Z" fill="#3E6897" stroke="#3E6897" stroke-width="0.4"/>
<path d="M19.5364 14.655L17.6364 12.755C17.0176 12.1377 16.016 12.1377 15.3972 12.755L14.9333 13.2189L11.0405 9.32608L8.1905 6.47607L7.01662 5.30218V3.53327C7.01662 3.44928 6.98321 3.36876 6.92383 3.30939L4.70716 1.09271C4.5835 0.969095 4.38305 0.969095 4.25939 1.09271L1.09271 4.25939C0.969095 4.38305 0.969095 4.5835 1.09271 4.70716L3.30939 6.92383C3.36876 6.98321 3.44928 7.01662 3.53327 7.01662H5.30218L6.47607 8.19051L9.32607 11.0405L13.2189 14.9333L12.7553 15.3972C12.1372 16.0155 12.1372 17.0178 12.7553 17.6361L14.6553 19.5361C14.9515 19.834 15.3546 20.001 15.7747 20H18.4167C19.2907 19.999 19.999 19.2907 20 18.4167V15.7747C20.0012 15.3545 19.8343 14.9513 19.5364 14.655ZM5.65716 6.47607C5.59779 6.41669 5.51727 6.38328 5.43328 6.38328H3.66437L1.76437 4.48328L4.48328 1.76437L6.38328 3.66437V5.43328C6.38328 5.51728 6.41669 5.59779 6.47607 5.65716L7.51885 6.69995L6.69995 7.51885L5.65716 6.47607ZM7.14772 7.96662L7.96662 7.14772L10.3689 9.54996L9.54996 10.3689L7.14772 7.96662ZM9.99773 10.8166L10.8166 9.99773L14.7094 13.8905L15.5666 14.7477V15.5666H14.7477L13.8905 14.7094L9.99773 10.8166ZM19.3667 18.4167C19.3667 18.9413 18.9413 19.3667 18.4167 19.3667H15.7747C15.5229 19.3659 15.2816 19.2659 15.103 19.0883L13.203 17.1883C12.8322 16.8173 12.8322 16.216 13.203 15.845L13.6666 15.3811L14.3928 16.1072C14.4521 16.1666 14.5326 16.2 14.6166 16.2H15.8833C16.0582 16.2 16.2 16.0582 16.2 15.8833V14.6166C16.2 14.5326 16.1666 14.4521 16.1072 14.3928L15.3811 13.6666L15.8447 13.2027C16.2157 12.8317 16.8172 12.8316 17.1882 13.2026C17.1882 13.2026 17.1883 13.2027 17.1883 13.2027L19.0883 15.1027C19.2671 15.2806 19.3673 15.5225 19.3667 15.7747V18.4167Z" fill="#3E6897" stroke="#3E6897" stroke-width="0.5"/>
</g>
<defs>
<clipPath id="clip0_456_17497">
<rect width="21" height="21" fill="white"/>
</clipPath>
</defs>
</svg>
