<svg width="21" height="21" viewBox="0 0 21 21" fill="none" xmlns="http://www.w3.org/2000/svg">
<path d="M11.5521 6.48103C14.8785 6.48103 16.7655 8.70883 17.04 11.3993L17.1239 11.3993C19.2646 11.3993 21 13.1506 21 15.311C21 17.4713 19.2646 19.2227 17.1239 19.2227H5.98025C3.83955 19.2227 2.10418 17.4713 2.10418 15.311C2.10418 13.1506 3.83955 11.3993 5.98027 11.3993L6.0642 11.3993C6.34023 8.69115 8.22566 6.48103 11.5521 6.48103ZM11.5521 8.07181C9.37755 8.07181 7.48219 9.80669 7.48219 12.2031C7.48219 12.5828 7.14735 12.8807 6.76394 12.8807L6.03897 12.8807C4.71514 12.8807 3.64196 13.9443 3.64196 15.2563C3.64196 16.5683 4.71514 17.6319 6.03897 17.6319H17.0652C18.389 17.6319 19.4622 16.5683 19.4622 15.2563C19.4622 13.9443 18.389 12.8807 17.0652 12.8807L16.3402 12.8807C15.9568 12.8807 15.622 12.5828 15.622 12.2031C15.622 9.77595 13.7266 8.07181 11.5521 8.07181ZM2.48744 10.8951C2.63999 11.2677 2.49239 11.6903 2.15728 11.8879L2.06132 11.936L1.0889 12.3435C0.687142 12.5119 0.226553 12.3188 0.0601414 11.9123C-0.0924027 11.5397 0.0551953 11.1171 0.390307 10.9195L0.486265 10.8714L1.45869 10.4639C1.86044 10.2955 2.32103 10.4886 2.48744 10.8951ZM9.29769 5.76108L9.11757 5.82225C8.55687 6.02267 8.04379 6.29395 7.58451 6.62749C7.0245 6.4428 6.3985 6.45167 5.81113 6.69784C4.50326 7.24598 3.88218 8.76308 4.42392 10.0864C4.48755 10.2418 4.56439 10.3877 4.65258 10.5231C4.13583 10.6691 3.6519 10.9011 3.21794 11.2022C3.12469 11.0427 3.04155 10.8733 2.96904 10.6961C2.09448 8.55983 3.09712 6.11067 5.2085 5.22578C6.61768 4.63519 8.16461 4.89067 9.29769 5.76108ZM0.989596 5.7941L1.10036 5.83117L2.07278 6.23872C2.47454 6.40709 2.66532 6.87312 2.49891 7.27962C2.34762 7.64916 1.95322 7.84229 1.58092 7.74785L1.47015 7.71077L0.497729 7.30323C0.0959756 7.13485 -0.0948066 6.66882 0.0716051 6.26233C0.222888 5.89278 0.617293 5.69966 0.989596 5.7941ZM4.99494 2.62183L5.04247 2.71892L5.44526 3.70283C5.61167 4.10933 5.42089 4.57536 5.01914 4.74373C4.65086 4.89808 4.23315 4.74874 4.03791 4.40967L3.99038 4.31258L3.58759 3.32867C3.42118 2.92217 3.61196 2.45615 4.01372 2.28777C4.38199 2.13342 4.7997 2.28276 4.99494 2.62183ZM9.56522 2.28351C9.93045 2.43658 10.1213 2.83564 10.028 3.21234L9.99134 3.32441L9.58855 4.30832C9.42214 4.71481 8.96155 4.90785 8.5598 4.73947C8.19457 4.5864 8.0037 4.18734 8.09704 3.81064L8.13368 3.69857L8.53647 2.71466C8.70288 2.30817 9.16347 2.11513 9.56522 2.28351Z" fill="#3E6897"/>
</svg>
