<svg width="17" height="18" viewBox="0 0 17 18" fill="none" xmlns="http://www.w3.org/2000/svg">
<path d="M13.0996 4.62598C13.2374 4.61973 13.3733 4.65919 13.4863 4.73828C13.5993 4.81742 13.6834 4.93184 13.7246 5.06348L16.0869 12.6631C16.2484 13.1793 16.2855 13.7265 16.1953 14.2598C16.1052 14.7929 15.8904 15.2971 15.5684 15.7314C15.2514 16.1677 14.8342 16.5222 14.3525 16.7646C13.8709 17.007 13.338 17.1313 12.7988 17.126H3.42383C2.90256 17.1258 2.38817 17.0064 1.91992 16.7773C1.45144 16.5481 1.04083 16.2145 0.720703 15.8027C0.400722 15.3911 0.17893 14.9117 0.0722656 14.4014C-0.0344005 13.8908 -0.0230196 13.3619 0.105469 12.8564L2.00586 5.10059C2.0401 4.96197 2.12069 4.83933 2.23438 4.75293C2.34808 4.66653 2.48811 4.62182 2.63086 4.62598H13.0996ZM1.29297 13.1572C1.21261 13.4784 1.20641 13.8137 1.27441 14.1377C1.34246 14.4617 1.48276 14.7666 1.68555 15.0283C1.88835 15.29 2.14854 15.5016 2.44531 15.6484C2.74212 15.7953 3.06828 15.8736 3.39941 15.876H12.7744C13.1145 15.8765 13.4498 15.7959 13.7529 15.6416C14.0559 15.4874 14.3179 15.2635 14.5176 14.9883C14.723 14.7114 14.8604 14.3897 14.918 14.0498C14.9755 13.71 14.9524 13.3612 14.8496 13.0322L12.6494 5.87598H3.09961L1.29297 13.1572Z" fill="white"/>
<path d="M13.0996 4.62598C13.2374 4.61973 13.3733 4.65919 13.4863 4.73828C13.5993 4.81742 13.6834 4.93184 13.7246 5.06348L16.0869 12.6631C16.2484 13.1793 16.2855 13.7265 16.1953 14.2598C16.1052 14.7929 15.8904 15.2971 15.5684 15.7314C15.2514 16.1677 14.8342 16.5222 14.3525 16.7646C13.8709 17.007 13.338 17.1313 12.7988 17.126H3.42383C2.90256 17.1258 2.38817 17.0064 1.91992 16.7773C1.45144 16.5481 1.04083 16.2145 0.720703 15.8027C0.400722 15.3911 0.17893 14.9117 0.0722656 14.4014C-0.0344005 13.8908 -0.0230196 13.3619 0.105469 12.8564L2.00586 5.10059C2.0401 4.96197 2.12069 4.83933 2.23438 4.75293C2.34808 4.66653 2.48811 4.62182 2.63086 4.62598H13.0996ZM1.29297 13.1572C1.21261 13.4784 1.20641 13.8137 1.27441 14.1377C1.34246 14.4617 1.48276 14.7666 1.68555 15.0283C1.88835 15.29 2.14854 15.5016 2.44531 15.6484C2.74212 15.7953 3.06828 15.8736 3.39941 15.876H12.7744C13.1145 15.8765 13.4498 15.7959 13.7529 15.6416C14.0559 15.4874 14.3179 15.2635 14.5176 14.9883C14.723 14.7114 14.8604 14.3897 14.918 14.0498C14.9755 13.71 14.9524 13.3612 14.8496 13.0322L12.6494 5.87598H3.09961L1.29297 13.1572Z" stroke="white"/>
<path d="M8.10156 0.875C8.93036 0.875 9.72547 1.20399 10.3115 1.79004C10.8976 2.37609 11.2266 3.1712 11.2266 4V9C11.2266 9.16576 11.1612 9.32517 11.0439 9.44238C10.9267 9.55959 10.7673 9.625 10.6016 9.625C10.4358 9.625 10.2764 9.55959 10.1592 9.44238C10.042 9.32517 9.97656 9.16576 9.97656 9V4C9.97656 3.50272 9.77937 3.02546 9.42773 2.67383C9.0761 2.3222 8.59884 2.125 8.10156 2.125C7.60428 2.125 7.12702 2.3222 6.77539 2.67383C6.42376 3.02546 6.22656 3.50272 6.22656 4V9C6.22656 9.16576 6.16116 9.32517 6.04395 9.44238C5.92674 9.55959 5.76732 9.625 5.60156 9.625C5.4358 9.625 5.27639 9.55959 5.15918 9.44238C5.04197 9.32517 4.97656 9.16576 4.97656 9V4C4.97656 3.1712 5.30555 2.37609 5.8916 1.79004C6.47765 1.20399 7.27276 0.875 8.10156 0.875Z" fill="white"/>
<path d="M8.10156 0.875C8.93036 0.875 9.72547 1.20399 10.3115 1.79004C10.8976 2.37609 11.2266 3.1712 11.2266 4V9C11.2266 9.16576 11.1612 9.32517 11.0439 9.44238C10.9267 9.55959 10.7673 9.625 10.6016 9.625C10.4358 9.625 10.2764 9.55959 10.1592 9.44238C10.042 9.32517 9.97656 9.16576 9.97656 9V4C9.97656 3.50272 9.77937 3.02546 9.42773 2.67383C9.0761 2.3222 8.59884 2.125 8.10156 2.125C7.60428 2.125 7.12702 2.3222 6.77539 2.67383C6.42376 3.02546 6.22656 3.50272 6.22656 4V9C6.22656 9.16576 6.16116 9.32517 6.04395 9.44238C5.92674 9.55959 5.76732 9.625 5.60156 9.625C5.4358 9.625 5.27639 9.55959 5.15918 9.44238C5.04197 9.32517 4.97656 9.16576 4.97656 9V4C4.97656 3.1712 5.30555 2.37609 5.8916 1.79004C6.47765 1.20399 7.27276 0.875 8.10156 0.875Z" stroke="white"/>
</svg>
