<svg width="19" height="19" viewBox="0 0 19 19" fill="none" xmlns="http://www.w3.org/2000/svg">
<path d="M9.73926 0.834961C9.85406 0.834961 9.96754 0.861921 10.0703 0.913086L18.2334 4.98633C18.3567 5.04783 18.4606 5.14263 18.5332 5.25977C18.6058 5.37697 18.6444 5.5125 18.6445 5.65039V13.7959L18.6367 13.8994C18.6225 14.0012 18.5876 14.0995 18.5332 14.1875C18.4607 14.3048 18.3568 14.3993 18.2334 14.4609L10.0703 18.5332L10.0713 18.5342C9.9686 18.5857 9.85509 18.612 9.74023 18.6123H9.73926C9.62437 18.6121 9.51093 18.5856 9.4082 18.5342L1.24609 14.4609C1.12267 14.3994 1.01887 14.3048 0.946289 14.1875C0.87364 14.07 0.834827 13.934 0.834961 13.7959V5.65039C0.835103 5.5125 0.873655 5.37698 0.946289 5.25977C1.01891 5.14262 1.12273 5.04781 1.24609 4.98633L9.4082 0.913086C9.51093 0.861896 9.62449 0.835016 9.73926 0.834961ZM2.31934 6.11426V13.3369L9.73926 17.04L17.1592 13.3369V6.11426L9.73926 2.40625L2.31934 6.11426Z" fill="white" stroke="#0075FF" stroke-width="0.329903"/>
<path d="M17.8535 4.90527C17.951 4.89878 18.049 4.91108 18.1416 4.94238C18.2342 4.97372 18.32 5.0235 18.3936 5.08789C18.4671 5.15225 18.527 5.23078 18.5703 5.31836C18.6136 5.40595 18.64 5.50115 18.6465 5.59863C18.653 5.69615 18.6397 5.79414 18.6084 5.88672C18.5771 5.97928 18.5282 6.06513 18.4639 6.13867C18.4317 6.17538 18.3959 6.20867 18.3574 6.23828L18.2334 6.31543L10.0723 10.373C9.99522 10.4112 9.91215 10.4356 9.82715 10.4453L9.74121 10.4502C9.62653 10.4503 9.51291 10.424 9.41016 10.373L1.24902 6.31543V6.31445C1.07244 6.22685 0.937202 6.07347 0.874023 5.88672C0.810781 5.69977 0.82473 5.4953 0.912109 5.31836C0.99962 5.14137 1.1538 5.00568 1.34082 4.94238C1.52774 4.87915 1.73225 4.89313 1.90918 4.98047H1.91016L9.74121 8.86914L17.5732 4.98047C17.6608 4.9372 17.7561 4.91177 17.8535 4.90527Z" fill="white" stroke="#0075FF" stroke-width="0.329903"/>
<path d="M5.41895 2.91309C5.60586 2.84985 5.81038 2.86383 5.9873 2.95117H5.98828L14.1504 7.01953L14.2568 7.08398C14.3574 7.15707 14.4387 7.25448 14.4922 7.36816C14.5635 7.51978 14.5813 7.69138 14.543 7.85449C14.5046 8.0174 14.4125 8.16276 14.2812 8.2666C14.1498 8.37047 13.9868 8.42704 13.8193 8.42676L13.6543 8.42578V8.40137C13.5978 8.38844 13.5426 8.36965 13.4902 8.34375H13.4893L5.32715 4.28613V4.28516C5.15056 4.19756 5.01533 4.04417 4.95215 3.85742C4.88891 3.67048 4.90286 3.46601 4.99023 3.28906C5.07775 3.11207 5.23193 2.97638 5.41895 2.91309Z" fill="white" stroke="#0075FF" stroke-width="0.329903"/>
<path d="M9.74121 8.96582C9.93808 8.96582 10.1274 9.04439 10.2666 9.18359C10.4056 9.32273 10.4834 9.51135 10.4834 9.70801V17.8701C10.4834 18.0669 10.4058 18.2563 10.2666 18.3955C10.1274 18.5347 9.93808 18.6123 9.74121 18.6123C9.54451 18.6123 9.35594 18.5345 9.2168 18.3955C9.07759 18.2563 8.99902 18.067 8.99902 17.8701V9.70801C8.99907 9.51121 9.07763 9.32276 9.2168 9.18359C9.35596 9.04443 9.54441 8.96587 9.74121 8.96582Z" fill="white" stroke="#0075FF" stroke-width="0.329903"/>
</svg>
