<svg width="23" height="23" viewBox="0 0 23 23" fill="none" xmlns="http://www.w3.org/2000/svg">
<path d="M2.55566 1H7.44434C8.30343 1.00002 9 1.69656 9 2.55566V7.44434C8.99998 8.30342 8.30342 8.99998 7.44434 9H2.55566C1.69656 9 1.00002 8.30344 1 7.44434V2.55566C1 1.69655 1.69655 1 2.55566 1Z" stroke="#0075FF" stroke-width="2"/>
<rect x="1" y="14" width="7.99986" height="7.99986" rx="1.55556" stroke="#0075FF" stroke-width="2"/>
<rect x="14" y="1" width="7.99986" height="7.99986" rx="1.55556" stroke="#0075FF" stroke-width="2"/>
<path d="M15.5557 14H20.4443C21.3034 14 22 14.6966 22 15.5557V22H15.5557C14.6966 22 14 21.3034 14 20.4443V15.5557C14 14.6966 14.6965 14 15.5557 14Z" stroke="#0075FF" stroke-width="2"/>
</svg>
