<svg width="25" height="26" viewBox="0 0 25 26" fill="none" xmlns="http://www.w3.org/2000/svg">
<path d="M18.264 15.4806C18.013 15.4821 17.7713 15.3849 17.5906 15.2096L13.5123 11.241C12.8861 10.6383 12.3877 9.91417 12.0473 9.11232C11.7068 8.31047 11.5312 7.44753 11.5312 6.57555C11.5312 5.70358 11.7068 4.84063 12.0473 4.03879C12.3877 3.23694 12.8861 2.51281 13.5123 1.91008C14.7942 0.683801 16.4953 0 18.264 0C20.0326 0 21.7337 0.683801 23.0156 1.91008C23.6418 2.51281 24.1402 3.23694 24.4807 4.03879C24.8211 4.84063 24.9967 5.70358 24.9967 6.57555C24.9967 7.44753 24.8211 8.31047 24.4807 9.11232C24.1402 9.91417 23.6418 10.6383 23.0156 11.241L18.9373 15.2096C18.7566 15.3849 18.5149 15.4821 18.264 15.4806ZM18.264 1.92943C16.9911 1.92159 15.7656 2.41487 14.8493 3.30391C14.408 3.72533 14.0567 4.23272 13.8166 4.79518C13.5764 5.35764 13.4526 5.96339 13.4526 6.57555C13.4526 7.18772 13.5764 7.79347 13.8166 8.35593C14.0567 8.91839 14.408 9.42578 14.8493 9.8472L18.264 13.1672L21.6786 9.8472C22.1199 9.42578 22.4712 8.91839 22.7114 8.35593C22.9515 7.79347 23.0753 7.18772 23.0753 6.57555C23.0753 5.96339 22.9515 5.35764 22.7114 4.79518C22.4712 4.23272 22.1199 3.72533 21.6786 3.30391C20.7612 2.41662 19.5364 1.92364 18.264 1.92943Z" fill="#0075FF"/>
<path d="M7.69505 25.1602C7.52655 25.1614 7.3607 25.118 7.21411 25.0344L0.480948 21.1626C0.334161 21.0773 0.212373 20.9545 0.127917 20.8067C0.0434604 20.6588 -0.000665318 20.4911 7.58239e-06 20.3205V2.89757C-0.000665318 2.72701 0.0434604 2.5593 0.127917 2.41142C0.212373 2.26354 0.334161 2.14074 0.480948 2.05546C0.627172 1.97051 0.793043 1.92578 0.961888 1.92578C1.13073 1.92578 1.2966 1.97051 1.44283 2.05546L8.17599 5.92723C8.32278 6.01251 8.44457 6.1353 8.52902 6.28318C8.61348 6.43106 8.6576 6.59877 8.65693 6.76934V24.1923C8.6576 24.3628 8.61348 24.5306 8.52902 24.6784C8.44457 24.8263 8.32278 24.9491 8.17599 25.0344C8.0294 25.118 7.86355 25.1614 7.69505 25.1602ZM1.92377 19.7591L6.73317 22.5274V7.33074L1.92377 4.56243V19.7591Z" fill="#0075FF"/>
<path d="M7.69626 25.1576C7.52776 25.1588 7.36192 25.1154 7.21532 25.0318C7.06854 24.9465 6.94675 24.8237 6.86229 24.6758C6.77784 24.5279 6.73371 24.3602 6.73438 24.1897V6.76673C6.73371 6.59617 6.77784 6.42846 6.86229 6.28058C6.94675 6.1327 7.06854 6.0099 7.21532 5.92462L12.9866 2.60458C13.097 2.54097 13.2188 2.50002 13.3449 2.48409C13.4711 2.46816 13.5992 2.47757 13.7218 2.51178C13.8443 2.54598 13.9589 2.60431 14.0589 2.68337C14.1589 2.76244 14.2424 2.86067 14.3044 2.9724C14.4298 3.19465 14.4627 3.4578 14.3961 3.70442C14.3294 3.95103 14.1685 4.16111 13.9485 4.2888L8.65814 7.32813V22.5248L13.9485 19.4758C14.0584 19.4122 14.1796 19.3711 14.3053 19.3547C14.431 19.3383 14.5587 19.347 14.6811 19.3802C14.8034 19.4135 14.9181 19.4707 15.0185 19.5485C15.1189 19.6264 15.2031 19.7233 15.2663 19.8339C15.3294 19.9445 15.3703 20.0665 15.3866 20.193C15.4029 20.3195 15.3943 20.448 15.3612 20.5711C15.3282 20.6943 15.2714 20.8097 15.194 20.9107C15.1166 21.0117 15.0203 21.0965 14.9104 21.16L8.1772 25.0318C8.03061 25.1154 7.86476 25.1588 7.69626 25.1576Z" fill="#0075FF"/>
<path d="M21.1638 25.1597C20.9953 25.1609 20.8295 25.1175 20.6829 25.0339L13.9497 21.1622C13.8029 21.0769 13.6811 20.9541 13.5967 20.8062C13.5122 20.6583 13.4681 20.4906 13.4688 20.32V11.6086C13.4688 11.3519 13.5701 11.1057 13.7505 10.9241C13.9309 10.7426 14.1755 10.6406 14.4306 10.6406C14.6857 10.6406 14.9304 10.7426 15.1108 10.9241C15.2912 11.1057 15.3925 11.3519 15.3925 11.6086V19.7586L20.2019 22.5269V12.5765C20.2019 12.3198 20.3033 12.0736 20.4836 11.8921C20.664 11.7105 20.9087 11.6086 21.1638 11.6086C21.4189 11.6086 21.6636 11.7105 21.844 11.8921C22.0243 12.0736 22.1257 12.3198 22.1257 12.5765V24.1918C22.1264 24.3624 22.0822 24.5301 21.9978 24.678C21.9133 24.8258 21.7915 24.9486 21.6447 25.0339C21.4981 25.1175 21.3323 25.1609 21.1638 25.1597Z" fill="#0075FF"/>
<path d="M18.2685 9.67288C17.6977 9.67288 17.1398 9.50258 16.6653 9.1835C16.1907 8.86442 15.8209 8.41091 15.6025 7.88031C15.3841 7.3497 15.3269 6.76584 15.4383 6.20255C15.5496 5.63927 15.8244 5.12185 16.228 4.71575C16.6316 4.30964 17.1457 4.03308 17.7055 3.92103C18.2653 3.80899 18.8455 3.86649 19.3727 4.08628C19.9 4.30606 20.3507 4.67825 20.6678 5.15578C20.9849 5.63331 21.1541 6.19474 21.1541 6.76906C21.1541 7.5392 20.8501 8.2778 20.3089 8.82237C19.7677 9.36695 19.0338 9.67288 18.2685 9.67288ZM18.2685 5.80112C18.0782 5.80112 17.8922 5.85789 17.7341 5.96425C17.5759 6.0706 17.4526 6.22178 17.3798 6.39864C17.307 6.57551 17.2879 6.77013 17.3251 6.9579C17.3622 7.14566 17.4538 7.31813 17.5883 7.4535C17.7228 7.58887 17.8942 7.68105 18.0808 7.7184C18.2674 7.75575 18.4608 7.73658 18.6366 7.66332C18.8123 7.59006 18.9625 7.466 19.0682 7.30682C19.1739 7.14764 19.2303 6.9605 19.2303 6.76906C19.2303 6.51235 19.129 6.26615 18.9486 6.08462C18.7682 5.9031 18.5236 5.80112 18.2685 5.80112Z" fill="#0075FF"/>
</svg>
