<svg width="32" height="32" viewBox="0 0 32 32" fill="none" xmlns="http://www.w3.org/2000/svg">
<mask id="path-1-inside-1_1158_1999" fill="white">
<path d="M24.2275 10.8859C24.7746 10.5936 25.461 10.7986 25.6959 11.3727C26.5823 13.5389 26.7571 15.9422 26.1773 18.2299C25.5051 20.8821 23.8671 23.1879 21.584 24.6959C19.301 26.2038 16.5373 26.8052 13.8341 26.3824C11.1308 25.9596 8.68277 24.543 6.96922 22.4099C5.25566 20.2768 4.40002 17.581 4.56982 14.8502C4.73963 12.1193 5.92264 9.55024 7.88724 7.64589C9.85185 5.74154 12.4565 4.63909 15.1913 4.5544C17.5502 4.48136 19.8594 5.17006 21.7835 6.50251C22.2935 6.85565 22.3457 7.57006 21.9424 8.04131C21.539 8.51257 20.8332 8.5606 20.3142 8.221C18.8228 7.24528 17.06 6.74391 15.2608 6.79963C13.0854 6.86699 11.0135 7.74395 9.45069 9.2588C7.88792 10.7736 6.94687 12.8173 6.81179 14.9896C6.67672 17.1618 7.35736 19.3063 8.72043 21.0031C10.0835 22.6999 12.0309 23.8267 14.1812 24.1631C16.3315 24.4994 18.5299 24.021 20.346 22.8215C22.1621 21.622 23.4651 19.7878 23.9998 17.678C24.442 15.9331 24.3324 14.1037 23.7011 12.4371C23.4814 11.857 23.6804 11.1782 24.2275 10.8859Z"/>
</mask>
<path d="M24.2275 10.8859C24.7746 10.5936 25.461 10.7986 25.6959 11.3727C26.5823 13.5389 26.7571 15.9422 26.1773 18.2299C25.5051 20.8821 23.8671 23.1879 21.584 24.6959C19.301 26.2038 16.5373 26.8052 13.8341 26.3824C11.1308 25.9596 8.68277 24.543 6.96922 22.4099C5.25566 20.2768 4.40002 17.581 4.56982 14.8502C4.73963 12.1193 5.92264 9.55024 7.88724 7.64589C9.85185 5.74154 12.4565 4.63909 15.1913 4.5544C17.5502 4.48136 19.8594 5.17006 21.7835 6.50251C22.2935 6.85565 22.3457 7.57006 21.9424 8.04131C21.539 8.51257 20.8332 8.5606 20.3142 8.221C18.8228 7.24528 17.06 6.74391 15.2608 6.79963C13.0854 6.86699 11.0135 7.74395 9.45069 9.2588C7.88792 10.7736 6.94687 12.8173 6.81179 14.9896C6.67672 17.1618 7.35736 19.3063 8.72043 21.0031C10.0835 22.6999 12.0309 23.8267 14.1812 24.1631C16.3315 24.4994 18.5299 24.021 20.346 22.8215C22.1621 21.622 23.4651 19.7878 23.9998 17.678C24.442 15.9331 24.3324 14.1037 23.7011 12.4371C23.4814 11.857 23.6804 11.1782 24.2275 10.8859Z" stroke="white" stroke-width="4" mask="url(#path-1-inside-1_1158_1999)"/>
<rect x="23.3125" y="21.5156" width="5.36683" height="2.54532" rx="1.27266" transform="rotate(45 23.3125 21.5156)" fill="white"/>
</svg>
