<svg width="40" height="40" viewBox="0 0 40 40" fill="none" xmlns="http://www.w3.org/2000/svg">
<g clip-path="url(#clip0_1158_2967)">
<mask id="mask0_1158_2967" style="mask-type:luminance" maskUnits="userSpaceOnUse" x="0" y="0" width="40" height="40">
<path d="M0 20C0 31.0457 8.95426 40 20 40C31.0458 40 40.0001 31.0457 40.0001 20C40.0001 8.95417 31.0458 -8.01086e-05 20 -8.01086e-05C8.95426 -8.01086e-05 0 8.95417 0 20Z" fill="white"/>
</mask>
<g mask="url(#mask0_1158_2967)">
<path d="M0 20C0 31.0457 8.95426 40 20 40C31.0458 40 40.0001 31.0457 40.0001 20C40.0001 8.95417 31.0458 -8.01086e-05 20 -8.01086e-05C8.95426 -8.01086e-05 0 8.95417 0 20Z" fill="url(#paint0_linear_1158_2967)"/>
</g>
<mask id="mask1_1158_2967" style="mask-type:luminance" maskUnits="userSpaceOnUse" x="-3" y="-3" width="46" height="46">
<path d="M-2.69531 -2.69679H42.5568V42.3711H-2.69531V-2.69679Z" fill="white"/>
</mask>
<g mask="url(#mask1_1158_2967)">
<path d="M13.5391 21.4605L15.9119 28.0283C15.9119 28.0283 16.2086 28.6426 16.5264 28.6426C16.8442 28.6426 21.5687 23.7273 21.5687 23.7273L26.823 13.579L13.6238 19.7654L13.5391 21.4605Z" fill="#C8DAEA"/>
</g>
<mask id="mask2_1158_2967" style="mask-type:luminance" maskUnits="userSpaceOnUse" x="-3" y="-3" width="46" height="46">
<path d="M-2.69531 -2.69679H42.5568V42.3711H-2.69531V-2.69679Z" fill="white"/>
</mask>
<g mask="url(#mask2_1158_2967)">
<path d="M16.6823 23.1444L16.2267 27.9854C16.2267 27.9854 16.036 29.4685 17.5191 27.9854C19.0022 26.5023 20.4217 25.3583 20.4217 25.3583" fill="#A9C6D8"/>
</g>
<mask id="mask3_1158_2967" style="mask-type:luminance" maskUnits="userSpaceOnUse" x="-3" y="-3" width="46" height="46">
<path d="M-2.69531 -2.69679H42.5568V42.3711H-2.69531V-2.69679Z" fill="white"/>
</mask>
<g mask="url(#mask3_1158_2967)">
<path d="M13.5786 21.6948L8.6981 20.1045C8.6981 20.1045 8.11555 19.868 8.30267 19.3313C8.34132 19.2206 8.41911 19.1265 8.65217 18.964C9.73386 18.2102 28.6698 11.404 28.6698 11.404C28.6698 11.404 29.2046 11.224 29.5207 11.3436C29.6651 11.3984 29.7573 11.4602 29.8349 11.686C29.8632 11.7682 29.8795 11.9429 29.8773 12.1168C29.8756 12.2423 29.8603 12.3584 29.8492 12.5406C29.7339 14.4016 26.283 28.2894 26.283 28.2894C26.283 28.2894 26.0766 29.1021 25.3368 29.1298C25.0669 29.1399 24.7395 29.0852 24.348 28.7484C22.8963 27.4996 17.8781 24.1272 16.7695 23.3857C16.7068 23.344 16.6891 23.2896 16.6785 23.2365C16.6629 23.1586 16.7462 23.0613 16.7462 23.0613C16.7462 23.0613 25.4839 15.2943 25.7164 14.4794C25.7344 14.4162 25.6668 14.385 25.5751 14.4123C24.9947 14.6258 14.9344 20.9784 13.8242 21.6801C13.7593 21.7211 13.5773 21.6947 13.5773 21.6947" fill="white"/>
</g>
</g>
<defs>
<linearGradient id="paint0_linear_1158_2967" x1="20" y1="39.9998" x2="20" y2="-0.000249601" gradientUnits="userSpaceOnUse">
<stop stop-color="#1D93D2"/>
<stop offset="1" stop-color="#38B0E3"/>
</linearGradient>
<clipPath id="clip0_1158_2967">
<rect width="40" height="40" fill="white"/>
</clipPath>
</defs>
</svg>
